G04 #@! TF.GenerationSoftware,KiCad,Pcbnew,(5.1.5)-3*
G04 #@! TF.CreationDate,2020-02-17T19:36:34-06:00*
G04 #@! TF.ProjectId,ledgrid_programmer,6c656467-7269-4645-9f70-726f6772616d,rev?*
G04 #@! TF.SameCoordinates,Original*
G04 #@! TF.FileFunction,Copper,L1,Top*
G04 #@! TF.FilePolarity,Positive*
%FSLAX46Y46*%
G04 Gerber Fmt 4.6, Leading zero omitted, Abs format (unit mm)*
G04 Created by KiCad (PCBNEW (5.1.5)-3) date 2020-02-17 19:36:34*
%MOMM*%
%LPD*%
G04 APERTURE LIST*
%ADD10C,2.200000*%
%ADD11C,0.100000*%
%ADD12O,1.600000X1.600000*%
%ADD13C,1.600000*%
%ADD14O,1.700000X1.700000*%
%ADD15R,1.700000X1.700000*%
%ADD16R,1.600000X1.600000*%
%ADD17R,0.450000X1.475000*%
%ADD18C,0.800000*%
%ADD19C,0.250000*%
G04 APERTURE END LIST*
D10*
X98750000Y-106000000D03*
X93750000Y-106000000D03*
X98750000Y-101000000D03*
X93750000Y-101000000D03*
X85750000Y-106000000D03*
X80750000Y-106000000D03*
X85750000Y-101000000D03*
X80750000Y-101000000D03*
G04 #@! TA.AperFunction,SMDPad,CuDef*
D11*
G36*
X104074505Y-96551204D02*
G01*
X104098773Y-96554804D01*
X104122572Y-96560765D01*
X104145671Y-96569030D01*
X104167850Y-96579520D01*
X104188893Y-96592132D01*
X104208599Y-96606747D01*
X104226777Y-96623223D01*
X104243253Y-96641401D01*
X104257868Y-96661107D01*
X104270480Y-96682150D01*
X104280970Y-96704329D01*
X104289235Y-96727428D01*
X104295196Y-96751227D01*
X104298796Y-96775495D01*
X104300000Y-96799999D01*
X104300000Y-97700001D01*
X104298796Y-97724505D01*
X104295196Y-97748773D01*
X104289235Y-97772572D01*
X104280970Y-97795671D01*
X104270480Y-97817850D01*
X104257868Y-97838893D01*
X104243253Y-97858599D01*
X104226777Y-97876777D01*
X104208599Y-97893253D01*
X104188893Y-97907868D01*
X104167850Y-97920480D01*
X104145671Y-97930970D01*
X104122572Y-97939235D01*
X104098773Y-97945196D01*
X104074505Y-97948796D01*
X104050001Y-97950000D01*
X103399999Y-97950000D01*
X103375495Y-97948796D01*
X103351227Y-97945196D01*
X103327428Y-97939235D01*
X103304329Y-97930970D01*
X103282150Y-97920480D01*
X103261107Y-97907868D01*
X103241401Y-97893253D01*
X103223223Y-97876777D01*
X103206747Y-97858599D01*
X103192132Y-97838893D01*
X103179520Y-97817850D01*
X103169030Y-97795671D01*
X103160765Y-97772572D01*
X103154804Y-97748773D01*
X103151204Y-97724505D01*
X103150000Y-97700001D01*
X103150000Y-96799999D01*
X103151204Y-96775495D01*
X103154804Y-96751227D01*
X103160765Y-96727428D01*
X103169030Y-96704329D01*
X103179520Y-96682150D01*
X103192132Y-96661107D01*
X103206747Y-96641401D01*
X103223223Y-96623223D01*
X103241401Y-96606747D01*
X103261107Y-96592132D01*
X103282150Y-96579520D01*
X103304329Y-96569030D01*
X103327428Y-96560765D01*
X103351227Y-96554804D01*
X103375495Y-96551204D01*
X103399999Y-96550000D01*
X104050001Y-96550000D01*
X104074505Y-96551204D01*
G37*
G04 #@! TD.AperFunction*
G04 #@! TA.AperFunction,SMDPad,CuDef*
G36*
X106124505Y-96551204D02*
G01*
X106148773Y-96554804D01*
X106172572Y-96560765D01*
X106195671Y-96569030D01*
X106217850Y-96579520D01*
X106238893Y-96592132D01*
X106258599Y-96606747D01*
X106276777Y-96623223D01*
X106293253Y-96641401D01*
X106307868Y-96661107D01*
X106320480Y-96682150D01*
X106330970Y-96704329D01*
X106339235Y-96727428D01*
X106345196Y-96751227D01*
X106348796Y-96775495D01*
X106350000Y-96799999D01*
X106350000Y-97700001D01*
X106348796Y-97724505D01*
X106345196Y-97748773D01*
X106339235Y-97772572D01*
X106330970Y-97795671D01*
X106320480Y-97817850D01*
X106307868Y-97838893D01*
X106293253Y-97858599D01*
X106276777Y-97876777D01*
X106258599Y-97893253D01*
X106238893Y-97907868D01*
X106217850Y-97920480D01*
X106195671Y-97930970D01*
X106172572Y-97939235D01*
X106148773Y-97945196D01*
X106124505Y-97948796D01*
X106100001Y-97950000D01*
X105449999Y-97950000D01*
X105425495Y-97948796D01*
X105401227Y-97945196D01*
X105377428Y-97939235D01*
X105354329Y-97930970D01*
X105332150Y-97920480D01*
X105311107Y-97907868D01*
X105291401Y-97893253D01*
X105273223Y-97876777D01*
X105256747Y-97858599D01*
X105242132Y-97838893D01*
X105229520Y-97817850D01*
X105219030Y-97795671D01*
X105210765Y-97772572D01*
X105204804Y-97748773D01*
X105201204Y-97724505D01*
X105200000Y-97700001D01*
X105200000Y-96799999D01*
X105201204Y-96775495D01*
X105204804Y-96751227D01*
X105210765Y-96727428D01*
X105219030Y-96704329D01*
X105229520Y-96682150D01*
X105242132Y-96661107D01*
X105256747Y-96641401D01*
X105273223Y-96623223D01*
X105291401Y-96606747D01*
X105311107Y-96592132D01*
X105332150Y-96579520D01*
X105354329Y-96569030D01*
X105377428Y-96560765D01*
X105401227Y-96554804D01*
X105425495Y-96551204D01*
X105449999Y-96550000D01*
X106100001Y-96550000D01*
X106124505Y-96551204D01*
G37*
G04 #@! TD.AperFunction*
D12*
X126870000Y-106300000D03*
D13*
X119250000Y-106300000D03*
D12*
X126870000Y-102250000D03*
D13*
X119250000Y-102250000D03*
D14*
X79750000Y-92700000D03*
X79750000Y-90160000D03*
X79750000Y-87620000D03*
X79750000Y-85080000D03*
X79750000Y-82540000D03*
D15*
X79750000Y-80000000D03*
D12*
X100950000Y-80000000D03*
X88250000Y-92700000D03*
X100950000Y-82540000D03*
X88250000Y-90160000D03*
X100950000Y-85080000D03*
X88250000Y-87620000D03*
X100950000Y-87620000D03*
X88250000Y-85080000D03*
X100950000Y-90160000D03*
X88250000Y-82540000D03*
X100950000Y-92700000D03*
D16*
X88250000Y-80000000D03*
D15*
X119380000Y-81280000D03*
X114300000Y-76200000D03*
X111760000Y-76200000D03*
X111760000Y-88900000D03*
X119380000Y-91440000D03*
D14*
X134790000Y-80090000D03*
X132250000Y-80090000D03*
X134790000Y-82630000D03*
X132250000Y-82630000D03*
X134790000Y-85170000D03*
X132250000Y-85170000D03*
X134790000Y-87710000D03*
X132250000Y-87710000D03*
X134790000Y-90250000D03*
D15*
X132250000Y-90250000D03*
X119380000Y-93980000D03*
X111760000Y-93980000D03*
X109220000Y-88900000D03*
D17*
X103675000Y-101562000D03*
X104325000Y-101562000D03*
X104975000Y-101562000D03*
X105625000Y-101562000D03*
X106275000Y-101562000D03*
X106925000Y-101562000D03*
X107575000Y-101562000D03*
X108225000Y-101562000D03*
X108875000Y-101562000D03*
X109525000Y-101562000D03*
X110175000Y-101562000D03*
X110825000Y-101562000D03*
X110825000Y-107438000D03*
X110175000Y-107438000D03*
X109525000Y-107438000D03*
X108875000Y-107438000D03*
X108225000Y-107438000D03*
X107575000Y-107438000D03*
X106925000Y-107438000D03*
X106275000Y-107438000D03*
X105625000Y-107438000D03*
X104975000Y-107438000D03*
X104325000Y-107438000D03*
X103675000Y-107438000D03*
D18*
X121500000Y-100000000D03*
X105750000Y-99399500D03*
X108875000Y-105875000D03*
X103500000Y-86750000D03*
X107250000Y-104750000D03*
X107500000Y-99500000D03*
X106000000Y-105500000D03*
X113000000Y-104000000D03*
X111750000Y-91250000D03*
X108000000Y-97750000D03*
X105000000Y-105000000D03*
D19*
X99824999Y-95424499D02*
X104975000Y-100574500D01*
X99824999Y-88745001D02*
X99824999Y-95424499D01*
X104975000Y-100574500D02*
X104975000Y-101562000D01*
X100950000Y-87620000D02*
X99824999Y-88745001D01*
X107290000Y-81280000D02*
X119380000Y-81280000D01*
X100950000Y-87620000D02*
X107290000Y-81280000D01*
X111760000Y-77300000D02*
X111760000Y-76200000D01*
X109060000Y-80000000D02*
X111760000Y-77300000D01*
X100950000Y-80000000D02*
X109060000Y-80000000D01*
X105549999Y-102624501D02*
X105625000Y-102549500D01*
X99374990Y-98809492D02*
X103189999Y-102624501D01*
X99374990Y-81575010D02*
X99374990Y-98809492D01*
X105625000Y-102549500D02*
X105625000Y-101562000D01*
X100950000Y-80000000D02*
X99374990Y-81575010D01*
X105375499Y-102624501D02*
X107499999Y-102624501D01*
X107575000Y-102549500D02*
X107575000Y-101562000D01*
X105375499Y-102624501D02*
X105549999Y-102624501D01*
X107499999Y-102624501D02*
X107575000Y-102549500D01*
X103189999Y-102624501D02*
X105375499Y-102624501D01*
X118450001Y-103049999D02*
X119250000Y-102250000D01*
X107925497Y-103049999D02*
X118450001Y-103049999D01*
X107499999Y-102624501D02*
X107925497Y-103049999D01*
X131250000Y-90250000D02*
X132250000Y-90250000D01*
X121500000Y-100000000D02*
X131250000Y-90250000D01*
X103725000Y-98447502D02*
X105625000Y-100347502D01*
X105625000Y-100574500D02*
X105625000Y-101562000D01*
X105625000Y-100347502D02*
X105625000Y-100574500D01*
X103725000Y-97250000D02*
X103725000Y-98447502D01*
X106925000Y-100574500D02*
X105750000Y-99399500D01*
X106925000Y-101562000D02*
X106925000Y-100574500D01*
X105750000Y-99399500D02*
X105750000Y-99399500D01*
X105750000Y-97275000D02*
X105775000Y-97250000D01*
X105750000Y-99399500D02*
X105750000Y-97275000D01*
X134790000Y-94330000D02*
X126870000Y-102250000D01*
X134790000Y-90250000D02*
X134790000Y-94330000D01*
X126070001Y-103049999D02*
X126870000Y-102250000D01*
X120619499Y-108500501D02*
X126070001Y-103049999D01*
X108950001Y-108500501D02*
X120619499Y-108500501D01*
X108875000Y-108425500D02*
X108950001Y-108500501D01*
X108875000Y-107438000D02*
X108875000Y-108425500D01*
X108875000Y-107438000D02*
X108875000Y-105875000D01*
X108875000Y-105875000D02*
X108875000Y-105875000D01*
X133940001Y-88559999D02*
X134790000Y-87710000D01*
X133425001Y-89074999D02*
X133940001Y-88559999D01*
X133425001Y-92124999D02*
X133425001Y-89074999D01*
X120880000Y-102000000D02*
X123750000Y-102000000D01*
X112860000Y-93980000D02*
X120880000Y-102000000D01*
X111760000Y-93980000D02*
X112860000Y-93980000D01*
X119250000Y-106300000D02*
X123750000Y-102000000D01*
X123750000Y-102000000D02*
X133425001Y-92124999D01*
X118450001Y-105500001D02*
X119250000Y-106300000D01*
X108526999Y-105149999D02*
X118099999Y-105149999D01*
X108149999Y-105526999D02*
X108526999Y-105149999D01*
X118099999Y-105149999D02*
X118450001Y-105500001D01*
X108149999Y-106375499D02*
X108149999Y-105526999D01*
X108225000Y-106450500D02*
X108149999Y-106375499D01*
X108225000Y-107438000D02*
X108225000Y-106450500D01*
X114375001Y-90075001D02*
X106825001Y-90075001D01*
X119380000Y-93980000D02*
X118280000Y-93980000D01*
X118280000Y-93980000D02*
X114375001Y-90075001D01*
X106825001Y-90075001D02*
X103500000Y-86750000D01*
X103500000Y-86750000D02*
X103500000Y-86750000D01*
X106825001Y-90075001D02*
X106825001Y-98825001D01*
X106825001Y-98825001D02*
X107500000Y-99500000D01*
X107500000Y-99500000D02*
X107500000Y-99500000D01*
X107500000Y-107363000D02*
X107575000Y-107438000D01*
X107500000Y-105500000D02*
X107500000Y-107363000D01*
X107500000Y-105500000D02*
X107500000Y-105000000D01*
X107500000Y-105000000D02*
X107250000Y-104750000D01*
X107250000Y-104750000D02*
X107250000Y-104750000D01*
X106925000Y-106425000D02*
X106925000Y-107438000D01*
X106000000Y-105500000D02*
X106925000Y-106425000D01*
X106000000Y-104926998D02*
X106926998Y-104000000D01*
X106000000Y-105500000D02*
X106000000Y-104926998D01*
X106926998Y-104000000D02*
X113000000Y-104000000D01*
X113000000Y-104000000D02*
X113000000Y-104000000D01*
X133425001Y-81454999D02*
X133940001Y-80939999D01*
X131685999Y-81454999D02*
X133425001Y-81454999D01*
X121700998Y-91440000D02*
X131685999Y-81454999D01*
X133940001Y-80939999D02*
X134790000Y-80090000D01*
X119380000Y-91440000D02*
X121700998Y-91440000D01*
X106925000Y-108425500D02*
X106925000Y-107438000D01*
X85750000Y-101000000D02*
X93250501Y-108500501D01*
X106849999Y-108500501D02*
X106925000Y-108425500D01*
X93250501Y-108500501D02*
X106849999Y-108500501D01*
X111750000Y-91250000D02*
X108000000Y-95000000D01*
X108000000Y-95000000D02*
X108000000Y-97750000D01*
X108000000Y-97750000D02*
X108000000Y-97750000D01*
X106275000Y-106450500D02*
X106275000Y-107438000D01*
X106199999Y-106375499D02*
X106275000Y-106450500D01*
X105802497Y-106375499D02*
X106199999Y-106375499D01*
X105000000Y-105573002D02*
X105802497Y-106375499D01*
X105000000Y-105000000D02*
X105000000Y-105573002D01*
X104434315Y-105000000D02*
X105000000Y-105000000D01*
X97740997Y-102099999D02*
X100640998Y-105000000D01*
X94849999Y-102099999D02*
X97740997Y-102099999D01*
X100640998Y-105000000D02*
X104434315Y-105000000D01*
X93750000Y-101000000D02*
X94849999Y-102099999D01*
X85710000Y-85080000D02*
X88250000Y-87620000D01*
X79750000Y-85080000D02*
X85710000Y-85080000D01*
X89049999Y-85879999D02*
X88250000Y-85080000D01*
X89375001Y-86205001D02*
X89049999Y-85879999D01*
X89375001Y-88160001D02*
X89375001Y-86205001D01*
X81164999Y-89034999D02*
X88500003Y-89034999D01*
X88500003Y-89034999D02*
X89375001Y-88160001D01*
X79750000Y-87620000D02*
X81164999Y-89034999D01*
X79750000Y-80000000D02*
X88250000Y-80000000D01*
M02*
