M48
; DRILL file {KiCad (5.1.5)-3} date 2/17/2020 7:39:47 PM
; FORMAT={-:-/ absolute / inch / decimal}
; #@! TF.CreationDate,2020-02-17T19:39:47-06:00
; #@! TF.GenerationSoftware,Kicad,Pcbnew,(5.1.5)-3
; #@! TF.FileFunction,Plated,1,2,PTH
FMAT,2
INCH
T1C0.0157
T2C0.0315
T3C0.0394
T4C0.0433
%
G90
G05
T1
X4.0748Y-3.4154
X4.1339Y-4.1339
X4.1634Y-3.9134
X4.1732Y-4.1535
X4.2224Y-4.124
X4.2323Y-3.9173
X4.252Y-3.8484
X4.2864Y-4.1683
X4.3996Y-3.5925
X4.4488Y-4.0945
X4.7835Y-3.937
T2
X3.4744Y-3.1496
X3.4744Y-3.2496
X3.4744Y-3.3496
X3.4744Y-3.4496
X3.4744Y-3.5496
X3.4744Y-3.6496
X3.9744Y-3.1496
X3.9744Y-3.2496
X3.9744Y-3.3496
X3.9744Y-3.4496
X3.9744Y-3.5496
X3.9744Y-3.6496
X4.6949Y-4.0256
X4.9949Y-4.0256
X4.6949Y-4.185
X4.9949Y-4.185
T3
X4.7Y-3.6
X3.1398Y-3.1496
X3.1398Y-3.2496
X3.1398Y-3.3496
X3.1398Y-3.4496
X3.1398Y-3.5496
X3.1398Y-3.6496
X4.4Y-3.5
X5.2067Y-3.1531
X5.2067Y-3.2531
X5.2067Y-3.3531
X5.2067Y-3.4531
X5.2067Y-3.5531
X5.3067Y-3.1531
X5.3067Y-3.2531
X5.3067Y-3.3531
X5.3067Y-3.4531
X5.3067Y-3.5531
X4.3Y-3.5
X4.7Y-3.7
X4.4Y-3.7
X4.7Y-3.2
X4.5Y-3.0
X4.4Y-3.0
T4
X3.6909Y-3.9764
X3.6909Y-4.1732
X3.8878Y-3.9764
X3.8878Y-4.1732
X3.1791Y-3.9764
X3.1791Y-4.1732
X3.376Y-3.9764
X3.376Y-4.1732
T0
M30
