G04 #@! TF.GenerationSoftware,KiCad,Pcbnew,(5.1.5)-3*
G04 #@! TF.CreationDate,2020-02-17T19:36:34-06:00*
G04 #@! TF.ProjectId,ledgrid_programmer,6c656467-7269-4645-9f70-726f6772616d,rev?*
G04 #@! TF.SameCoordinates,Original*
G04 #@! TF.FileFunction,Copper,L2,Bot*
G04 #@! TF.FilePolarity,Positive*
%FSLAX46Y46*%
G04 Gerber Fmt 4.6, Leading zero omitted, Abs format (unit mm)*
G04 Created by KiCad (PCBNEW (5.1.5)-3) date 2020-02-17 19:36:34*
%MOMM*%
%LPD*%
G04 APERTURE LIST*
%ADD10C,2.200000*%
%ADD11O,1.600000X1.600000*%
%ADD12C,1.600000*%
%ADD13O,1.700000X1.700000*%
%ADD14R,1.700000X1.700000*%
%ADD15R,1.600000X1.600000*%
%ADD16C,0.800000*%
%ADD17C,0.250000*%
%ADD18C,0.254000*%
G04 APERTURE END LIST*
D10*
X98750000Y-106000000D03*
X93750000Y-106000000D03*
X98750000Y-101000000D03*
X93750000Y-101000000D03*
X85750000Y-106000000D03*
X80750000Y-106000000D03*
X85750000Y-101000000D03*
X80750000Y-101000000D03*
D11*
X126870000Y-106300000D03*
D12*
X119250000Y-106300000D03*
D11*
X126870000Y-102250000D03*
D12*
X119250000Y-102250000D03*
D13*
X79750000Y-92700000D03*
X79750000Y-90160000D03*
X79750000Y-87620000D03*
X79750000Y-85080000D03*
X79750000Y-82540000D03*
D14*
X79750000Y-80000000D03*
D11*
X100950000Y-80000000D03*
X88250000Y-92700000D03*
X100950000Y-82540000D03*
X88250000Y-90160000D03*
X100950000Y-85080000D03*
X88250000Y-87620000D03*
X100950000Y-87620000D03*
X88250000Y-85080000D03*
X100950000Y-90160000D03*
X88250000Y-82540000D03*
X100950000Y-92700000D03*
D15*
X88250000Y-80000000D03*
D14*
X119380000Y-81280000D03*
X114300000Y-76200000D03*
X111760000Y-76200000D03*
X111760000Y-88900000D03*
X119380000Y-91440000D03*
D13*
X134790000Y-80090000D03*
X132250000Y-80090000D03*
X134790000Y-82630000D03*
X132250000Y-82630000D03*
X134790000Y-85170000D03*
X132250000Y-85170000D03*
X134790000Y-87710000D03*
X132250000Y-87710000D03*
X134790000Y-90250000D03*
D14*
X132250000Y-90250000D03*
X119380000Y-93980000D03*
X111760000Y-93980000D03*
X109220000Y-88900000D03*
D16*
X121500000Y-100000000D03*
X105750000Y-99399500D03*
X108875000Y-105875000D03*
X103500000Y-86750000D03*
X107250000Y-104750000D03*
X107500000Y-99500000D03*
X106000000Y-105500000D03*
X113000000Y-104000000D03*
X111750000Y-91250000D03*
X108000000Y-97750000D03*
X105000000Y-105000000D03*
D17*
X119250000Y-102250000D02*
X120049999Y-101450001D01*
X120049999Y-101450001D02*
X121500000Y-100000000D01*
X121500000Y-100000000D02*
X121500000Y-100000000D01*
X108875000Y-89245000D02*
X109220000Y-88900000D01*
X108875000Y-105875000D02*
X108875000Y-89245000D01*
X102620000Y-86750000D02*
X100950000Y-85080000D01*
X103500000Y-86750000D02*
X102620000Y-86750000D01*
X107250000Y-104750000D02*
X107250000Y-99750000D01*
X107250000Y-99750000D02*
X107500000Y-99500000D01*
X107500000Y-99500000D02*
X107500000Y-99500000D01*
X106000000Y-105500000D02*
X106000000Y-105500000D01*
X118280000Y-91440000D02*
X119380000Y-91440000D01*
X113000000Y-96720000D02*
X118280000Y-91440000D01*
X113000000Y-104000000D02*
X113000000Y-96720000D01*
X111760000Y-88900000D02*
X111760000Y-88990000D01*
X111760000Y-88990000D02*
X111750000Y-89000000D01*
X111750000Y-89000000D02*
X111750000Y-91250000D01*
X111750000Y-91250000D02*
X111750000Y-91250000D01*
X106475001Y-99274999D02*
X106475001Y-103524999D01*
X108000000Y-97750000D02*
X106475001Y-99274999D01*
X106475001Y-103524999D02*
X105000000Y-105000000D01*
X105000000Y-105000000D02*
X105000000Y-105000000D01*
D18*
G36*
X136840001Y-109340000D02*
G01*
X78160000Y-109340000D01*
X78160000Y-107206712D01*
X79722893Y-107206712D01*
X79830726Y-107481338D01*
X80137384Y-107632216D01*
X80467585Y-107720369D01*
X80808639Y-107742409D01*
X81147439Y-107697489D01*
X81470966Y-107587336D01*
X81669274Y-107481338D01*
X81777107Y-107206712D01*
X80750000Y-106179605D01*
X79722893Y-107206712D01*
X78160000Y-107206712D01*
X78160000Y-106058639D01*
X79007591Y-106058639D01*
X79052511Y-106397439D01*
X79162664Y-106720966D01*
X79268662Y-106919274D01*
X79543288Y-107027107D01*
X80570395Y-106000000D01*
X80929605Y-106000000D01*
X81956712Y-107027107D01*
X82231338Y-106919274D01*
X82382216Y-106612616D01*
X82470369Y-106282415D01*
X82492409Y-105941361D01*
X82477528Y-105829117D01*
X84015000Y-105829117D01*
X84015000Y-106170883D01*
X84081675Y-106506081D01*
X84212463Y-106821831D01*
X84402337Y-107105998D01*
X84644002Y-107347663D01*
X84928169Y-107537537D01*
X85243919Y-107668325D01*
X85579117Y-107735000D01*
X85920883Y-107735000D01*
X86256081Y-107668325D01*
X86571831Y-107537537D01*
X86855998Y-107347663D01*
X87097663Y-107105998D01*
X87287537Y-106821831D01*
X87418325Y-106506081D01*
X87485000Y-106170883D01*
X87485000Y-105829117D01*
X92015000Y-105829117D01*
X92015000Y-106170883D01*
X92081675Y-106506081D01*
X92212463Y-106821831D01*
X92402337Y-107105998D01*
X92644002Y-107347663D01*
X92928169Y-107537537D01*
X93243919Y-107668325D01*
X93579117Y-107735000D01*
X93920883Y-107735000D01*
X94256081Y-107668325D01*
X94571831Y-107537537D01*
X94855998Y-107347663D01*
X94996949Y-107206712D01*
X97722893Y-107206712D01*
X97830726Y-107481338D01*
X98137384Y-107632216D01*
X98467585Y-107720369D01*
X98808639Y-107742409D01*
X99147439Y-107697489D01*
X99470966Y-107587336D01*
X99669274Y-107481338D01*
X99777107Y-107206712D01*
X98750000Y-106179605D01*
X97722893Y-107206712D01*
X94996949Y-107206712D01*
X95097663Y-107105998D01*
X95287537Y-106821831D01*
X95418325Y-106506081D01*
X95485000Y-106170883D01*
X95485000Y-106058639D01*
X97007591Y-106058639D01*
X97052511Y-106397439D01*
X97162664Y-106720966D01*
X97268662Y-106919274D01*
X97543288Y-107027107D01*
X98570395Y-106000000D01*
X98929605Y-106000000D01*
X99956712Y-107027107D01*
X100231338Y-106919274D01*
X100382216Y-106612616D01*
X100470369Y-106282415D01*
X100492409Y-105941361D01*
X100447489Y-105602561D01*
X100337336Y-105279034D01*
X100231338Y-105080726D01*
X99956712Y-104972893D01*
X98929605Y-106000000D01*
X98570395Y-106000000D01*
X97543288Y-104972893D01*
X97268662Y-105080726D01*
X97117784Y-105387384D01*
X97029631Y-105717585D01*
X97007591Y-106058639D01*
X95485000Y-106058639D01*
X95485000Y-105829117D01*
X95418325Y-105493919D01*
X95287537Y-105178169D01*
X95097663Y-104894002D01*
X94996949Y-104793288D01*
X97722893Y-104793288D01*
X98750000Y-105820395D01*
X99672334Y-104898061D01*
X103965000Y-104898061D01*
X103965000Y-105101939D01*
X104004774Y-105301898D01*
X104082795Y-105490256D01*
X104196063Y-105659774D01*
X104340226Y-105803937D01*
X104509744Y-105917205D01*
X104698102Y-105995226D01*
X104898061Y-106035000D01*
X105101939Y-106035000D01*
X105111430Y-106033112D01*
X105196063Y-106159774D01*
X105340226Y-106303937D01*
X105509744Y-106417205D01*
X105698102Y-106495226D01*
X105898061Y-106535000D01*
X106101939Y-106535000D01*
X106301898Y-106495226D01*
X106490256Y-106417205D01*
X106659774Y-106303937D01*
X106803937Y-106159774D01*
X106917205Y-105990256D01*
X106995226Y-105801898D01*
X107004276Y-105756400D01*
X107148061Y-105785000D01*
X107351939Y-105785000D01*
X107551898Y-105745226D01*
X107740256Y-105667205D01*
X107879572Y-105574117D01*
X107840000Y-105773061D01*
X107840000Y-105976939D01*
X107879774Y-106176898D01*
X107957795Y-106365256D01*
X108071063Y-106534774D01*
X108215226Y-106678937D01*
X108384744Y-106792205D01*
X108573102Y-106870226D01*
X108773061Y-106910000D01*
X108976939Y-106910000D01*
X109176898Y-106870226D01*
X109365256Y-106792205D01*
X109534774Y-106678937D01*
X109678937Y-106534774D01*
X109792205Y-106365256D01*
X109870226Y-106176898D01*
X109873852Y-106158665D01*
X117815000Y-106158665D01*
X117815000Y-106441335D01*
X117870147Y-106718574D01*
X117978320Y-106979727D01*
X118135363Y-107214759D01*
X118335241Y-107414637D01*
X118570273Y-107571680D01*
X118831426Y-107679853D01*
X119108665Y-107735000D01*
X119391335Y-107735000D01*
X119668574Y-107679853D01*
X119929727Y-107571680D01*
X120164759Y-107414637D01*
X120364637Y-107214759D01*
X120521680Y-106979727D01*
X120629853Y-106718574D01*
X120643684Y-106649039D01*
X125478096Y-106649039D01*
X125518754Y-106783087D01*
X125638963Y-107037420D01*
X125806481Y-107263414D01*
X126014869Y-107452385D01*
X126256119Y-107597070D01*
X126520960Y-107691909D01*
X126743000Y-107570624D01*
X126743000Y-106427000D01*
X126997000Y-106427000D01*
X126997000Y-107570624D01*
X127219040Y-107691909D01*
X127483881Y-107597070D01*
X127725131Y-107452385D01*
X127933519Y-107263414D01*
X128101037Y-107037420D01*
X128221246Y-106783087D01*
X128261904Y-106649039D01*
X128139915Y-106427000D01*
X126997000Y-106427000D01*
X126743000Y-106427000D01*
X125600085Y-106427000D01*
X125478096Y-106649039D01*
X120643684Y-106649039D01*
X120685000Y-106441335D01*
X120685000Y-106158665D01*
X120643685Y-105950961D01*
X125478096Y-105950961D01*
X125600085Y-106173000D01*
X126743000Y-106173000D01*
X126743000Y-105029376D01*
X126997000Y-105029376D01*
X126997000Y-106173000D01*
X128139915Y-106173000D01*
X128261904Y-105950961D01*
X128221246Y-105816913D01*
X128101037Y-105562580D01*
X127933519Y-105336586D01*
X127725131Y-105147615D01*
X127483881Y-105002930D01*
X127219040Y-104908091D01*
X126997000Y-105029376D01*
X126743000Y-105029376D01*
X126520960Y-104908091D01*
X126256119Y-105002930D01*
X126014869Y-105147615D01*
X125806481Y-105336586D01*
X125638963Y-105562580D01*
X125518754Y-105816913D01*
X125478096Y-105950961D01*
X120643685Y-105950961D01*
X120629853Y-105881426D01*
X120521680Y-105620273D01*
X120364637Y-105385241D01*
X120164759Y-105185363D01*
X119929727Y-105028320D01*
X119668574Y-104920147D01*
X119391335Y-104865000D01*
X119108665Y-104865000D01*
X118831426Y-104920147D01*
X118570273Y-105028320D01*
X118335241Y-105185363D01*
X118135363Y-105385241D01*
X117978320Y-105620273D01*
X117870147Y-105881426D01*
X117815000Y-106158665D01*
X109873852Y-106158665D01*
X109910000Y-105976939D01*
X109910000Y-105773061D01*
X109870226Y-105573102D01*
X109792205Y-105384744D01*
X109678937Y-105215226D01*
X109635000Y-105171289D01*
X109635000Y-103898061D01*
X111965000Y-103898061D01*
X111965000Y-104101939D01*
X112004774Y-104301898D01*
X112082795Y-104490256D01*
X112196063Y-104659774D01*
X112340226Y-104803937D01*
X112509744Y-104917205D01*
X112698102Y-104995226D01*
X112898061Y-105035000D01*
X113101939Y-105035000D01*
X113301898Y-104995226D01*
X113490256Y-104917205D01*
X113659774Y-104803937D01*
X113803937Y-104659774D01*
X113917205Y-104490256D01*
X113995226Y-104301898D01*
X114035000Y-104101939D01*
X114035000Y-103898061D01*
X113995226Y-103698102D01*
X113917205Y-103509744D01*
X113803937Y-103340226D01*
X113760000Y-103296289D01*
X113760000Y-102108665D01*
X117815000Y-102108665D01*
X117815000Y-102391335D01*
X117870147Y-102668574D01*
X117978320Y-102929727D01*
X118135363Y-103164759D01*
X118335241Y-103364637D01*
X118570273Y-103521680D01*
X118831426Y-103629853D01*
X119108665Y-103685000D01*
X119391335Y-103685000D01*
X119668574Y-103629853D01*
X119929727Y-103521680D01*
X120164759Y-103364637D01*
X120364637Y-103164759D01*
X120521680Y-102929727D01*
X120629853Y-102668574D01*
X120685000Y-102391335D01*
X120685000Y-102108665D01*
X125435000Y-102108665D01*
X125435000Y-102391335D01*
X125490147Y-102668574D01*
X125598320Y-102929727D01*
X125755363Y-103164759D01*
X125955241Y-103364637D01*
X126190273Y-103521680D01*
X126451426Y-103629853D01*
X126728665Y-103685000D01*
X127011335Y-103685000D01*
X127288574Y-103629853D01*
X127549727Y-103521680D01*
X127784759Y-103364637D01*
X127984637Y-103164759D01*
X128141680Y-102929727D01*
X128249853Y-102668574D01*
X128305000Y-102391335D01*
X128305000Y-102108665D01*
X128249853Y-101831426D01*
X128141680Y-101570273D01*
X127984637Y-101335241D01*
X127784759Y-101135363D01*
X127549727Y-100978320D01*
X127288574Y-100870147D01*
X127011335Y-100815000D01*
X126728665Y-100815000D01*
X126451426Y-100870147D01*
X126190273Y-100978320D01*
X125955241Y-101135363D01*
X125755363Y-101335241D01*
X125598320Y-101570273D01*
X125490147Y-101831426D01*
X125435000Y-102108665D01*
X120685000Y-102108665D01*
X120648688Y-101926113D01*
X121539802Y-101035000D01*
X121601939Y-101035000D01*
X121801898Y-100995226D01*
X121990256Y-100917205D01*
X122159774Y-100803937D01*
X122303937Y-100659774D01*
X122417205Y-100490256D01*
X122495226Y-100301898D01*
X122535000Y-100101939D01*
X122535000Y-99898061D01*
X122495226Y-99698102D01*
X122417205Y-99509744D01*
X122303937Y-99340226D01*
X122159774Y-99196063D01*
X121990256Y-99082795D01*
X121801898Y-99004774D01*
X121601939Y-98965000D01*
X121398061Y-98965000D01*
X121198102Y-99004774D01*
X121009744Y-99082795D01*
X120840226Y-99196063D01*
X120696063Y-99340226D01*
X120582795Y-99509744D01*
X120504774Y-99698102D01*
X120465000Y-99898061D01*
X120465000Y-99960198D01*
X119573887Y-100851312D01*
X119391335Y-100815000D01*
X119108665Y-100815000D01*
X118831426Y-100870147D01*
X118570273Y-100978320D01*
X118335241Y-101135363D01*
X118135363Y-101335241D01*
X117978320Y-101570273D01*
X117870147Y-101831426D01*
X117815000Y-102108665D01*
X113760000Y-102108665D01*
X113760000Y-97034801D01*
X117976689Y-92818113D01*
X117940498Y-92885820D01*
X117904188Y-93005518D01*
X117891928Y-93130000D01*
X117891928Y-94830000D01*
X117904188Y-94954482D01*
X117940498Y-95074180D01*
X117999463Y-95184494D01*
X118078815Y-95281185D01*
X118175506Y-95360537D01*
X118285820Y-95419502D01*
X118405518Y-95455812D01*
X118530000Y-95468072D01*
X120230000Y-95468072D01*
X120354482Y-95455812D01*
X120474180Y-95419502D01*
X120584494Y-95360537D01*
X120681185Y-95281185D01*
X120760537Y-95184494D01*
X120819502Y-95074180D01*
X120855812Y-94954482D01*
X120868072Y-94830000D01*
X120868072Y-93130000D01*
X120855812Y-93005518D01*
X120819502Y-92885820D01*
X120760537Y-92775506D01*
X120706778Y-92710000D01*
X120760537Y-92644494D01*
X120819502Y-92534180D01*
X120855812Y-92414482D01*
X120868072Y-92290000D01*
X120868072Y-90590000D01*
X120855812Y-90465518D01*
X120819502Y-90345820D01*
X120760537Y-90235506D01*
X120681185Y-90138815D01*
X120584494Y-90059463D01*
X120474180Y-90000498D01*
X120354482Y-89964188D01*
X120230000Y-89951928D01*
X118530000Y-89951928D01*
X118405518Y-89964188D01*
X118285820Y-90000498D01*
X118175506Y-90059463D01*
X118078815Y-90138815D01*
X117999463Y-90235506D01*
X117940498Y-90345820D01*
X117904188Y-90465518D01*
X117891928Y-90590000D01*
X117891928Y-90785674D01*
X117855724Y-90805026D01*
X117739999Y-90899999D01*
X117716201Y-90928997D01*
X112488998Y-96156201D01*
X112460000Y-96179999D01*
X112436202Y-96208997D01*
X112436201Y-96208998D01*
X112365026Y-96295724D01*
X112294454Y-96427754D01*
X112250998Y-96571015D01*
X112236324Y-96720000D01*
X112240001Y-96757332D01*
X112240000Y-103296289D01*
X112196063Y-103340226D01*
X112082795Y-103509744D01*
X112004774Y-103698102D01*
X111965000Y-103898061D01*
X109635000Y-103898061D01*
X109635000Y-93130000D01*
X110271928Y-93130000D01*
X110271928Y-94830000D01*
X110284188Y-94954482D01*
X110320498Y-95074180D01*
X110379463Y-95184494D01*
X110458815Y-95281185D01*
X110555506Y-95360537D01*
X110665820Y-95419502D01*
X110785518Y-95455812D01*
X110910000Y-95468072D01*
X112610000Y-95468072D01*
X112734482Y-95455812D01*
X112854180Y-95419502D01*
X112964494Y-95360537D01*
X113061185Y-95281185D01*
X113140537Y-95184494D01*
X113199502Y-95074180D01*
X113235812Y-94954482D01*
X113248072Y-94830000D01*
X113248072Y-93130000D01*
X113235812Y-93005518D01*
X113199502Y-92885820D01*
X113140537Y-92775506D01*
X113061185Y-92678815D01*
X112964494Y-92599463D01*
X112854180Y-92540498D01*
X112734482Y-92504188D01*
X112610000Y-92491928D01*
X110910000Y-92491928D01*
X110785518Y-92504188D01*
X110665820Y-92540498D01*
X110555506Y-92599463D01*
X110458815Y-92678815D01*
X110379463Y-92775506D01*
X110320498Y-92885820D01*
X110284188Y-93005518D01*
X110271928Y-93130000D01*
X109635000Y-93130000D01*
X109635000Y-90388072D01*
X110070000Y-90388072D01*
X110194482Y-90375812D01*
X110314180Y-90339502D01*
X110424494Y-90280537D01*
X110490000Y-90226778D01*
X110555506Y-90280537D01*
X110665820Y-90339502D01*
X110785518Y-90375812D01*
X110910000Y-90388072D01*
X110990001Y-90388072D01*
X110990001Y-90546288D01*
X110946063Y-90590226D01*
X110832795Y-90759744D01*
X110754774Y-90948102D01*
X110715000Y-91148061D01*
X110715000Y-91351939D01*
X110754774Y-91551898D01*
X110832795Y-91740256D01*
X110946063Y-91909774D01*
X111090226Y-92053937D01*
X111259744Y-92167205D01*
X111448102Y-92245226D01*
X111648061Y-92285000D01*
X111851939Y-92285000D01*
X112051898Y-92245226D01*
X112240256Y-92167205D01*
X112409774Y-92053937D01*
X112553937Y-91909774D01*
X112667205Y-91740256D01*
X112745226Y-91551898D01*
X112785000Y-91351939D01*
X112785000Y-91148061D01*
X112745226Y-90948102D01*
X112667205Y-90759744D01*
X112553937Y-90590226D01*
X112510000Y-90546289D01*
X112510000Y-90388072D01*
X112610000Y-90388072D01*
X112734482Y-90375812D01*
X112854180Y-90339502D01*
X112964494Y-90280537D01*
X113061185Y-90201185D01*
X113140537Y-90104494D01*
X113199502Y-89994180D01*
X113235812Y-89874482D01*
X113248072Y-89750000D01*
X113248072Y-89400000D01*
X130761928Y-89400000D01*
X130761928Y-91100000D01*
X130774188Y-91224482D01*
X130810498Y-91344180D01*
X130869463Y-91454494D01*
X130948815Y-91551185D01*
X131045506Y-91630537D01*
X131155820Y-91689502D01*
X131275518Y-91725812D01*
X131400000Y-91738072D01*
X133100000Y-91738072D01*
X133224482Y-91725812D01*
X133344180Y-91689502D01*
X133454494Y-91630537D01*
X133551185Y-91551185D01*
X133630537Y-91454494D01*
X133689502Y-91344180D01*
X133711513Y-91271620D01*
X133843368Y-91403475D01*
X134086589Y-91565990D01*
X134356842Y-91677932D01*
X134643740Y-91735000D01*
X134936260Y-91735000D01*
X135223158Y-91677932D01*
X135493411Y-91565990D01*
X135736632Y-91403475D01*
X135943475Y-91196632D01*
X136105990Y-90953411D01*
X136217932Y-90683158D01*
X136275000Y-90396260D01*
X136275000Y-90103740D01*
X136217932Y-89816842D01*
X136105990Y-89546589D01*
X135943475Y-89303368D01*
X135736632Y-89096525D01*
X135562240Y-88980000D01*
X135736632Y-88863475D01*
X135943475Y-88656632D01*
X136105990Y-88413411D01*
X136217932Y-88143158D01*
X136275000Y-87856260D01*
X136275000Y-87563740D01*
X136217932Y-87276842D01*
X136105990Y-87006589D01*
X135943475Y-86763368D01*
X135736632Y-86556525D01*
X135562240Y-86440000D01*
X135736632Y-86323475D01*
X135943475Y-86116632D01*
X136105990Y-85873411D01*
X136217932Y-85603158D01*
X136275000Y-85316260D01*
X136275000Y-85023740D01*
X136217932Y-84736842D01*
X136105990Y-84466589D01*
X135943475Y-84223368D01*
X135736632Y-84016525D01*
X135562240Y-83900000D01*
X135736632Y-83783475D01*
X135943475Y-83576632D01*
X136105990Y-83333411D01*
X136217932Y-83063158D01*
X136275000Y-82776260D01*
X136275000Y-82483740D01*
X136217932Y-82196842D01*
X136105990Y-81926589D01*
X135943475Y-81683368D01*
X135736632Y-81476525D01*
X135562240Y-81360000D01*
X135736632Y-81243475D01*
X135943475Y-81036632D01*
X136105990Y-80793411D01*
X136217932Y-80523158D01*
X136275000Y-80236260D01*
X136275000Y-79943740D01*
X136217932Y-79656842D01*
X136105990Y-79386589D01*
X135943475Y-79143368D01*
X135736632Y-78936525D01*
X135493411Y-78774010D01*
X135223158Y-78662068D01*
X134936260Y-78605000D01*
X134643740Y-78605000D01*
X134356842Y-78662068D01*
X134086589Y-78774010D01*
X133843368Y-78936525D01*
X133636525Y-79143368D01*
X133520000Y-79317760D01*
X133403475Y-79143368D01*
X133196632Y-78936525D01*
X132953411Y-78774010D01*
X132683158Y-78662068D01*
X132396260Y-78605000D01*
X132103740Y-78605000D01*
X131816842Y-78662068D01*
X131546589Y-78774010D01*
X131303368Y-78936525D01*
X131096525Y-79143368D01*
X130934010Y-79386589D01*
X130822068Y-79656842D01*
X130765000Y-79943740D01*
X130765000Y-80236260D01*
X130822068Y-80523158D01*
X130934010Y-80793411D01*
X131096525Y-81036632D01*
X131303368Y-81243475D01*
X131477760Y-81360000D01*
X131303368Y-81476525D01*
X131096525Y-81683368D01*
X130934010Y-81926589D01*
X130822068Y-82196842D01*
X130765000Y-82483740D01*
X130765000Y-82776260D01*
X130822068Y-83063158D01*
X130934010Y-83333411D01*
X131096525Y-83576632D01*
X131303368Y-83783475D01*
X131485534Y-83905195D01*
X131368645Y-83974822D01*
X131152412Y-84169731D01*
X130978359Y-84403080D01*
X130853175Y-84665901D01*
X130808524Y-84813110D01*
X130929845Y-85043000D01*
X132123000Y-85043000D01*
X132123000Y-85023000D01*
X132377000Y-85023000D01*
X132377000Y-85043000D01*
X132397000Y-85043000D01*
X132397000Y-85297000D01*
X132377000Y-85297000D01*
X132377000Y-87583000D01*
X132397000Y-87583000D01*
X132397000Y-87837000D01*
X132377000Y-87837000D01*
X132377000Y-87857000D01*
X132123000Y-87857000D01*
X132123000Y-87837000D01*
X130929845Y-87837000D01*
X130808524Y-88066890D01*
X130853175Y-88214099D01*
X130978359Y-88476920D01*
X131152412Y-88710269D01*
X131236466Y-88786034D01*
X131155820Y-88810498D01*
X131045506Y-88869463D01*
X130948815Y-88948815D01*
X130869463Y-89045506D01*
X130810498Y-89155820D01*
X130774188Y-89275518D01*
X130761928Y-89400000D01*
X113248072Y-89400000D01*
X113248072Y-88050000D01*
X113235812Y-87925518D01*
X113199502Y-87805820D01*
X113140537Y-87695506D01*
X113061185Y-87598815D01*
X112964494Y-87519463D01*
X112854180Y-87460498D01*
X112734482Y-87424188D01*
X112610000Y-87411928D01*
X110910000Y-87411928D01*
X110785518Y-87424188D01*
X110665820Y-87460498D01*
X110555506Y-87519463D01*
X110490000Y-87573222D01*
X110424494Y-87519463D01*
X110314180Y-87460498D01*
X110194482Y-87424188D01*
X110070000Y-87411928D01*
X108370000Y-87411928D01*
X108245518Y-87424188D01*
X108125820Y-87460498D01*
X108015506Y-87519463D01*
X107918815Y-87598815D01*
X107839463Y-87695506D01*
X107780498Y-87805820D01*
X107744188Y-87925518D01*
X107731928Y-88050000D01*
X107731928Y-89750000D01*
X107744188Y-89874482D01*
X107780498Y-89994180D01*
X107839463Y-90104494D01*
X107918815Y-90201185D01*
X108015506Y-90280537D01*
X108115001Y-90333719D01*
X108115001Y-96717598D01*
X108101939Y-96715000D01*
X107898061Y-96715000D01*
X107698102Y-96754774D01*
X107509744Y-96832795D01*
X107340226Y-96946063D01*
X107196063Y-97090226D01*
X107082795Y-97259744D01*
X107004774Y-97448102D01*
X106965000Y-97648061D01*
X106965000Y-97710198D01*
X105964004Y-98711195D01*
X105935000Y-98734998D01*
X105893965Y-98785000D01*
X105840027Y-98850723D01*
X105794338Y-98936201D01*
X105769455Y-98982753D01*
X105725998Y-99126014D01*
X105715001Y-99237667D01*
X105715001Y-99237677D01*
X105711325Y-99274999D01*
X105715001Y-99312322D01*
X105715002Y-103210195D01*
X104960198Y-103965000D01*
X104898061Y-103965000D01*
X104698102Y-104004774D01*
X104509744Y-104082795D01*
X104340226Y-104196063D01*
X104196063Y-104340226D01*
X104082795Y-104509744D01*
X104004774Y-104698102D01*
X103965000Y-104898061D01*
X99672334Y-104898061D01*
X99777107Y-104793288D01*
X99669274Y-104518662D01*
X99362616Y-104367784D01*
X99032415Y-104279631D01*
X98691361Y-104257591D01*
X98352561Y-104302511D01*
X98029034Y-104412664D01*
X97830726Y-104518662D01*
X97722893Y-104793288D01*
X94996949Y-104793288D01*
X94855998Y-104652337D01*
X94571831Y-104462463D01*
X94256081Y-104331675D01*
X93920883Y-104265000D01*
X93579117Y-104265000D01*
X93243919Y-104331675D01*
X92928169Y-104462463D01*
X92644002Y-104652337D01*
X92402337Y-104894002D01*
X92212463Y-105178169D01*
X92081675Y-105493919D01*
X92015000Y-105829117D01*
X87485000Y-105829117D01*
X87418325Y-105493919D01*
X87287537Y-105178169D01*
X87097663Y-104894002D01*
X86855998Y-104652337D01*
X86571831Y-104462463D01*
X86256081Y-104331675D01*
X85920883Y-104265000D01*
X85579117Y-104265000D01*
X85243919Y-104331675D01*
X84928169Y-104462463D01*
X84644002Y-104652337D01*
X84402337Y-104894002D01*
X84212463Y-105178169D01*
X84081675Y-105493919D01*
X84015000Y-105829117D01*
X82477528Y-105829117D01*
X82447489Y-105602561D01*
X82337336Y-105279034D01*
X82231338Y-105080726D01*
X81956712Y-104972893D01*
X80929605Y-106000000D01*
X80570395Y-106000000D01*
X79543288Y-104972893D01*
X79268662Y-105080726D01*
X79117784Y-105387384D01*
X79029631Y-105717585D01*
X79007591Y-106058639D01*
X78160000Y-106058639D01*
X78160000Y-104793288D01*
X79722893Y-104793288D01*
X80750000Y-105820395D01*
X81777107Y-104793288D01*
X81669274Y-104518662D01*
X81362616Y-104367784D01*
X81032415Y-104279631D01*
X80691361Y-104257591D01*
X80352561Y-104302511D01*
X80029034Y-104412664D01*
X79830726Y-104518662D01*
X79722893Y-104793288D01*
X78160000Y-104793288D01*
X78160000Y-100829117D01*
X79015000Y-100829117D01*
X79015000Y-101170883D01*
X79081675Y-101506081D01*
X79212463Y-101821831D01*
X79402337Y-102105998D01*
X79644002Y-102347663D01*
X79928169Y-102537537D01*
X80243919Y-102668325D01*
X80579117Y-102735000D01*
X80920883Y-102735000D01*
X81256081Y-102668325D01*
X81571831Y-102537537D01*
X81855998Y-102347663D01*
X82097663Y-102105998D01*
X82287537Y-101821831D01*
X82418325Y-101506081D01*
X82485000Y-101170883D01*
X82485000Y-100829117D01*
X84015000Y-100829117D01*
X84015000Y-101170883D01*
X84081675Y-101506081D01*
X84212463Y-101821831D01*
X84402337Y-102105998D01*
X84644002Y-102347663D01*
X84928169Y-102537537D01*
X85243919Y-102668325D01*
X85579117Y-102735000D01*
X85920883Y-102735000D01*
X86256081Y-102668325D01*
X86571831Y-102537537D01*
X86855998Y-102347663D01*
X87097663Y-102105998D01*
X87287537Y-101821831D01*
X87418325Y-101506081D01*
X87485000Y-101170883D01*
X87485000Y-100829117D01*
X92015000Y-100829117D01*
X92015000Y-101170883D01*
X92081675Y-101506081D01*
X92212463Y-101821831D01*
X92402337Y-102105998D01*
X92644002Y-102347663D01*
X92928169Y-102537537D01*
X93243919Y-102668325D01*
X93579117Y-102735000D01*
X93920883Y-102735000D01*
X94256081Y-102668325D01*
X94571831Y-102537537D01*
X94855998Y-102347663D01*
X95097663Y-102105998D01*
X95287537Y-101821831D01*
X95418325Y-101506081D01*
X95485000Y-101170883D01*
X95485000Y-100829117D01*
X97015000Y-100829117D01*
X97015000Y-101170883D01*
X97081675Y-101506081D01*
X97212463Y-101821831D01*
X97402337Y-102105998D01*
X97644002Y-102347663D01*
X97928169Y-102537537D01*
X98243919Y-102668325D01*
X98579117Y-102735000D01*
X98920883Y-102735000D01*
X99256081Y-102668325D01*
X99571831Y-102537537D01*
X99855998Y-102347663D01*
X100097663Y-102105998D01*
X100287537Y-101821831D01*
X100418325Y-101506081D01*
X100485000Y-101170883D01*
X100485000Y-100829117D01*
X100418325Y-100493919D01*
X100287537Y-100178169D01*
X100097663Y-99894002D01*
X99855998Y-99652337D01*
X99571831Y-99462463D01*
X99256081Y-99331675D01*
X98920883Y-99265000D01*
X98579117Y-99265000D01*
X98243919Y-99331675D01*
X97928169Y-99462463D01*
X97644002Y-99652337D01*
X97402337Y-99894002D01*
X97212463Y-100178169D01*
X97081675Y-100493919D01*
X97015000Y-100829117D01*
X95485000Y-100829117D01*
X95418325Y-100493919D01*
X95287537Y-100178169D01*
X95097663Y-99894002D01*
X94855998Y-99652337D01*
X94571831Y-99462463D01*
X94256081Y-99331675D01*
X93920883Y-99265000D01*
X93579117Y-99265000D01*
X93243919Y-99331675D01*
X92928169Y-99462463D01*
X92644002Y-99652337D01*
X92402337Y-99894002D01*
X92212463Y-100178169D01*
X92081675Y-100493919D01*
X92015000Y-100829117D01*
X87485000Y-100829117D01*
X87418325Y-100493919D01*
X87287537Y-100178169D01*
X87097663Y-99894002D01*
X86855998Y-99652337D01*
X86571831Y-99462463D01*
X86256081Y-99331675D01*
X85920883Y-99265000D01*
X85579117Y-99265000D01*
X85243919Y-99331675D01*
X84928169Y-99462463D01*
X84644002Y-99652337D01*
X84402337Y-99894002D01*
X84212463Y-100178169D01*
X84081675Y-100493919D01*
X84015000Y-100829117D01*
X82485000Y-100829117D01*
X82418325Y-100493919D01*
X82287537Y-100178169D01*
X82097663Y-99894002D01*
X81855998Y-99652337D01*
X81571831Y-99462463D01*
X81256081Y-99331675D01*
X80920883Y-99265000D01*
X80579117Y-99265000D01*
X80243919Y-99331675D01*
X79928169Y-99462463D01*
X79644002Y-99652337D01*
X79402337Y-99894002D01*
X79212463Y-100178169D01*
X79081675Y-100493919D01*
X79015000Y-100829117D01*
X78160000Y-100829117D01*
X78160000Y-84933740D01*
X78265000Y-84933740D01*
X78265000Y-85226260D01*
X78322068Y-85513158D01*
X78434010Y-85783411D01*
X78596525Y-86026632D01*
X78803368Y-86233475D01*
X78977760Y-86350000D01*
X78803368Y-86466525D01*
X78596525Y-86673368D01*
X78434010Y-86916589D01*
X78322068Y-87186842D01*
X78265000Y-87473740D01*
X78265000Y-87766260D01*
X78322068Y-88053158D01*
X78434010Y-88323411D01*
X78596525Y-88566632D01*
X78803368Y-88773475D01*
X78977760Y-88890000D01*
X78803368Y-89006525D01*
X78596525Y-89213368D01*
X78434010Y-89456589D01*
X78322068Y-89726842D01*
X78265000Y-90013740D01*
X78265000Y-90306260D01*
X78322068Y-90593158D01*
X78434010Y-90863411D01*
X78596525Y-91106632D01*
X78803368Y-91313475D01*
X78977760Y-91430000D01*
X78803368Y-91546525D01*
X78596525Y-91753368D01*
X78434010Y-91996589D01*
X78322068Y-92266842D01*
X78265000Y-92553740D01*
X78265000Y-92846260D01*
X78322068Y-93133158D01*
X78434010Y-93403411D01*
X78596525Y-93646632D01*
X78803368Y-93853475D01*
X79046589Y-94015990D01*
X79316842Y-94127932D01*
X79603740Y-94185000D01*
X79896260Y-94185000D01*
X80183158Y-94127932D01*
X80453411Y-94015990D01*
X80696632Y-93853475D01*
X80903475Y-93646632D01*
X81065990Y-93403411D01*
X81177932Y-93133158D01*
X81235000Y-92846260D01*
X81235000Y-92553740D01*
X81177932Y-92266842D01*
X81065990Y-91996589D01*
X80903475Y-91753368D01*
X80696632Y-91546525D01*
X80522240Y-91430000D01*
X80696632Y-91313475D01*
X80903475Y-91106632D01*
X81065990Y-90863411D01*
X81177932Y-90593158D01*
X81235000Y-90306260D01*
X81235000Y-90013740D01*
X81177932Y-89726842D01*
X81065990Y-89456589D01*
X80903475Y-89213368D01*
X80696632Y-89006525D01*
X80522240Y-88890000D01*
X80696632Y-88773475D01*
X80903475Y-88566632D01*
X81065990Y-88323411D01*
X81177932Y-88053158D01*
X81235000Y-87766260D01*
X81235000Y-87473740D01*
X81177932Y-87186842D01*
X81065990Y-86916589D01*
X80903475Y-86673368D01*
X80696632Y-86466525D01*
X80522240Y-86350000D01*
X80696632Y-86233475D01*
X80903475Y-86026632D01*
X81065990Y-85783411D01*
X81177932Y-85513158D01*
X81235000Y-85226260D01*
X81235000Y-84938665D01*
X86815000Y-84938665D01*
X86815000Y-85221335D01*
X86870147Y-85498574D01*
X86978320Y-85759727D01*
X87135363Y-85994759D01*
X87335241Y-86194637D01*
X87567759Y-86350000D01*
X87335241Y-86505363D01*
X87135363Y-86705241D01*
X86978320Y-86940273D01*
X86870147Y-87201426D01*
X86815000Y-87478665D01*
X86815000Y-87761335D01*
X86870147Y-88038574D01*
X86978320Y-88299727D01*
X87135363Y-88534759D01*
X87335241Y-88734637D01*
X87567759Y-88890000D01*
X87335241Y-89045363D01*
X87135363Y-89245241D01*
X86978320Y-89480273D01*
X86870147Y-89741426D01*
X86815000Y-90018665D01*
X86815000Y-90301335D01*
X86870147Y-90578574D01*
X86978320Y-90839727D01*
X87135363Y-91074759D01*
X87335241Y-91274637D01*
X87567759Y-91430000D01*
X87335241Y-91585363D01*
X87135363Y-91785241D01*
X86978320Y-92020273D01*
X86870147Y-92281426D01*
X86815000Y-92558665D01*
X86815000Y-92841335D01*
X86870147Y-93118574D01*
X86978320Y-93379727D01*
X87135363Y-93614759D01*
X87335241Y-93814637D01*
X87570273Y-93971680D01*
X87831426Y-94079853D01*
X88108665Y-94135000D01*
X88391335Y-94135000D01*
X88668574Y-94079853D01*
X88929727Y-93971680D01*
X89164759Y-93814637D01*
X89364637Y-93614759D01*
X89521680Y-93379727D01*
X89629853Y-93118574D01*
X89685000Y-92841335D01*
X89685000Y-92558665D01*
X89629853Y-92281426D01*
X89521680Y-92020273D01*
X89364637Y-91785241D01*
X89164759Y-91585363D01*
X88932241Y-91430000D01*
X89164759Y-91274637D01*
X89364637Y-91074759D01*
X89521680Y-90839727D01*
X89629853Y-90578574D01*
X89685000Y-90301335D01*
X89685000Y-90018665D01*
X89629853Y-89741426D01*
X89521680Y-89480273D01*
X89364637Y-89245241D01*
X89164759Y-89045363D01*
X88932241Y-88890000D01*
X89164759Y-88734637D01*
X89364637Y-88534759D01*
X89521680Y-88299727D01*
X89629853Y-88038574D01*
X89685000Y-87761335D01*
X89685000Y-87478665D01*
X89629853Y-87201426D01*
X89521680Y-86940273D01*
X89364637Y-86705241D01*
X89164759Y-86505363D01*
X88932241Y-86350000D01*
X89164759Y-86194637D01*
X89364637Y-85994759D01*
X89521680Y-85759727D01*
X89629853Y-85498574D01*
X89685000Y-85221335D01*
X89685000Y-84938665D01*
X99515000Y-84938665D01*
X99515000Y-85221335D01*
X99570147Y-85498574D01*
X99678320Y-85759727D01*
X99835363Y-85994759D01*
X100035241Y-86194637D01*
X100267759Y-86350000D01*
X100035241Y-86505363D01*
X99835363Y-86705241D01*
X99678320Y-86940273D01*
X99570147Y-87201426D01*
X99515000Y-87478665D01*
X99515000Y-87761335D01*
X99570147Y-88038574D01*
X99678320Y-88299727D01*
X99835363Y-88534759D01*
X100035241Y-88734637D01*
X100267759Y-88890000D01*
X100035241Y-89045363D01*
X99835363Y-89245241D01*
X99678320Y-89480273D01*
X99570147Y-89741426D01*
X99515000Y-90018665D01*
X99515000Y-90301335D01*
X99570147Y-90578574D01*
X99678320Y-90839727D01*
X99835363Y-91074759D01*
X100035241Y-91274637D01*
X100267759Y-91430000D01*
X100035241Y-91585363D01*
X99835363Y-91785241D01*
X99678320Y-92020273D01*
X99570147Y-92281426D01*
X99515000Y-92558665D01*
X99515000Y-92841335D01*
X99570147Y-93118574D01*
X99678320Y-93379727D01*
X99835363Y-93614759D01*
X100035241Y-93814637D01*
X100270273Y-93971680D01*
X100531426Y-94079853D01*
X100808665Y-94135000D01*
X101091335Y-94135000D01*
X101368574Y-94079853D01*
X101629727Y-93971680D01*
X101864759Y-93814637D01*
X102064637Y-93614759D01*
X102221680Y-93379727D01*
X102329853Y-93118574D01*
X102385000Y-92841335D01*
X102385000Y-92558665D01*
X102329853Y-92281426D01*
X102221680Y-92020273D01*
X102064637Y-91785241D01*
X101864759Y-91585363D01*
X101632241Y-91430000D01*
X101864759Y-91274637D01*
X102064637Y-91074759D01*
X102221680Y-90839727D01*
X102329853Y-90578574D01*
X102385000Y-90301335D01*
X102385000Y-90018665D01*
X102329853Y-89741426D01*
X102221680Y-89480273D01*
X102064637Y-89245241D01*
X101864759Y-89045363D01*
X101632241Y-88890000D01*
X101864759Y-88734637D01*
X102064637Y-88534759D01*
X102221680Y-88299727D01*
X102329853Y-88038574D01*
X102385000Y-87761335D01*
X102385000Y-87478665D01*
X102383782Y-87472542D01*
X102471014Y-87499003D01*
X102582667Y-87510000D01*
X102582675Y-87510000D01*
X102620000Y-87513676D01*
X102657325Y-87510000D01*
X102796289Y-87510000D01*
X102840226Y-87553937D01*
X103009744Y-87667205D01*
X103198102Y-87745226D01*
X103398061Y-87785000D01*
X103601939Y-87785000D01*
X103801898Y-87745226D01*
X103990256Y-87667205D01*
X104159774Y-87553937D01*
X104303937Y-87409774D01*
X104417205Y-87240256D01*
X104495226Y-87051898D01*
X104535000Y-86851939D01*
X104535000Y-86648061D01*
X104495226Y-86448102D01*
X104417205Y-86259744D01*
X104303937Y-86090226D01*
X104159774Y-85946063D01*
X103990256Y-85832795D01*
X103801898Y-85754774D01*
X103601939Y-85715000D01*
X103398061Y-85715000D01*
X103198102Y-85754774D01*
X103009744Y-85832795D01*
X102870582Y-85925780D01*
X102471692Y-85526890D01*
X130808524Y-85526890D01*
X130853175Y-85674099D01*
X130978359Y-85936920D01*
X131152412Y-86170269D01*
X131368645Y-86365178D01*
X131494255Y-86440000D01*
X131368645Y-86514822D01*
X131152412Y-86709731D01*
X130978359Y-86943080D01*
X130853175Y-87205901D01*
X130808524Y-87353110D01*
X130929845Y-87583000D01*
X132123000Y-87583000D01*
X132123000Y-85297000D01*
X130929845Y-85297000D01*
X130808524Y-85526890D01*
X102471692Y-85526890D01*
X102348688Y-85403886D01*
X102385000Y-85221335D01*
X102385000Y-84938665D01*
X102329853Y-84661426D01*
X102221680Y-84400273D01*
X102064637Y-84165241D01*
X101864759Y-83965363D01*
X101629727Y-83808320D01*
X101619135Y-83803933D01*
X101805131Y-83692385D01*
X102013519Y-83503414D01*
X102181037Y-83277420D01*
X102301246Y-83023087D01*
X102341904Y-82889039D01*
X102219915Y-82667000D01*
X101077000Y-82667000D01*
X101077000Y-82687000D01*
X100823000Y-82687000D01*
X100823000Y-82667000D01*
X99680085Y-82667000D01*
X99558096Y-82889039D01*
X99598754Y-83023087D01*
X99718963Y-83277420D01*
X99886481Y-83503414D01*
X100094869Y-83692385D01*
X100280865Y-83803933D01*
X100270273Y-83808320D01*
X100035241Y-83965363D01*
X99835363Y-84165241D01*
X99678320Y-84400273D01*
X99570147Y-84661426D01*
X99515000Y-84938665D01*
X89685000Y-84938665D01*
X89629853Y-84661426D01*
X89521680Y-84400273D01*
X89364637Y-84165241D01*
X89164759Y-83965363D01*
X88929727Y-83808320D01*
X88919135Y-83803933D01*
X89105131Y-83692385D01*
X89313519Y-83503414D01*
X89481037Y-83277420D01*
X89601246Y-83023087D01*
X89641904Y-82889039D01*
X89519915Y-82667000D01*
X88377000Y-82667000D01*
X88377000Y-82687000D01*
X88123000Y-82687000D01*
X88123000Y-82667000D01*
X86980085Y-82667000D01*
X86858096Y-82889039D01*
X86898754Y-83023087D01*
X87018963Y-83277420D01*
X87186481Y-83503414D01*
X87394869Y-83692385D01*
X87580865Y-83803933D01*
X87570273Y-83808320D01*
X87335241Y-83965363D01*
X87135363Y-84165241D01*
X86978320Y-84400273D01*
X86870147Y-84661426D01*
X86815000Y-84938665D01*
X81235000Y-84938665D01*
X81235000Y-84933740D01*
X81177932Y-84646842D01*
X81065990Y-84376589D01*
X80903475Y-84133368D01*
X80696632Y-83926525D01*
X80514466Y-83804805D01*
X80631355Y-83735178D01*
X80847588Y-83540269D01*
X81021641Y-83306920D01*
X81146825Y-83044099D01*
X81191476Y-82896890D01*
X81070155Y-82667000D01*
X79877000Y-82667000D01*
X79877000Y-82687000D01*
X79623000Y-82687000D01*
X79623000Y-82667000D01*
X78429845Y-82667000D01*
X78308524Y-82896890D01*
X78353175Y-83044099D01*
X78478359Y-83306920D01*
X78652412Y-83540269D01*
X78868645Y-83735178D01*
X78985534Y-83804805D01*
X78803368Y-83926525D01*
X78596525Y-84133368D01*
X78434010Y-84376589D01*
X78322068Y-84646842D01*
X78265000Y-84933740D01*
X78160000Y-84933740D01*
X78160000Y-79150000D01*
X78261928Y-79150000D01*
X78261928Y-80850000D01*
X78274188Y-80974482D01*
X78310498Y-81094180D01*
X78369463Y-81204494D01*
X78448815Y-81301185D01*
X78545506Y-81380537D01*
X78655820Y-81439502D01*
X78736466Y-81463966D01*
X78652412Y-81539731D01*
X78478359Y-81773080D01*
X78353175Y-82035901D01*
X78308524Y-82183110D01*
X78429845Y-82413000D01*
X79623000Y-82413000D01*
X79623000Y-82393000D01*
X79877000Y-82393000D01*
X79877000Y-82413000D01*
X81070155Y-82413000D01*
X81191476Y-82183110D01*
X81146825Y-82035901D01*
X81021641Y-81773080D01*
X80847588Y-81539731D01*
X80763534Y-81463966D01*
X80844180Y-81439502D01*
X80954494Y-81380537D01*
X81051185Y-81301185D01*
X81130537Y-81204494D01*
X81189502Y-81094180D01*
X81225812Y-80974482D01*
X81238072Y-80850000D01*
X81238072Y-79200000D01*
X86811928Y-79200000D01*
X86811928Y-80800000D01*
X86824188Y-80924482D01*
X86860498Y-81044180D01*
X86919463Y-81154494D01*
X86998815Y-81251185D01*
X87095506Y-81330537D01*
X87205820Y-81389502D01*
X87325518Y-81425812D01*
X87350080Y-81428231D01*
X87186481Y-81576586D01*
X87018963Y-81802580D01*
X86898754Y-82056913D01*
X86858096Y-82190961D01*
X86980085Y-82413000D01*
X88123000Y-82413000D01*
X88123000Y-82393000D01*
X88377000Y-82393000D01*
X88377000Y-82413000D01*
X89519915Y-82413000D01*
X89641904Y-82190961D01*
X89601246Y-82056913D01*
X89481037Y-81802580D01*
X89313519Y-81576586D01*
X89149920Y-81428231D01*
X89174482Y-81425812D01*
X89294180Y-81389502D01*
X89404494Y-81330537D01*
X89501185Y-81251185D01*
X89580537Y-81154494D01*
X89639502Y-81044180D01*
X89675812Y-80924482D01*
X89688072Y-80800000D01*
X89688072Y-79858665D01*
X99515000Y-79858665D01*
X99515000Y-80141335D01*
X99570147Y-80418574D01*
X99678320Y-80679727D01*
X99835363Y-80914759D01*
X100035241Y-81114637D01*
X100270273Y-81271680D01*
X100280865Y-81276067D01*
X100094869Y-81387615D01*
X99886481Y-81576586D01*
X99718963Y-81802580D01*
X99598754Y-82056913D01*
X99558096Y-82190961D01*
X99680085Y-82413000D01*
X100823000Y-82413000D01*
X100823000Y-82393000D01*
X101077000Y-82393000D01*
X101077000Y-82413000D01*
X102219915Y-82413000D01*
X102341904Y-82190961D01*
X102301246Y-82056913D01*
X102181037Y-81802580D01*
X102013519Y-81576586D01*
X101805131Y-81387615D01*
X101619135Y-81276067D01*
X101629727Y-81271680D01*
X101864759Y-81114637D01*
X102064637Y-80914759D01*
X102221680Y-80679727D01*
X102325120Y-80430000D01*
X117891928Y-80430000D01*
X117891928Y-82130000D01*
X117904188Y-82254482D01*
X117940498Y-82374180D01*
X117999463Y-82484494D01*
X118078815Y-82581185D01*
X118175506Y-82660537D01*
X118285820Y-82719502D01*
X118405518Y-82755812D01*
X118530000Y-82768072D01*
X120230000Y-82768072D01*
X120354482Y-82755812D01*
X120474180Y-82719502D01*
X120584494Y-82660537D01*
X120681185Y-82581185D01*
X120760537Y-82484494D01*
X120819502Y-82374180D01*
X120855812Y-82254482D01*
X120868072Y-82130000D01*
X120868072Y-80430000D01*
X120855812Y-80305518D01*
X120819502Y-80185820D01*
X120760537Y-80075506D01*
X120681185Y-79978815D01*
X120584494Y-79899463D01*
X120474180Y-79840498D01*
X120354482Y-79804188D01*
X120230000Y-79791928D01*
X118530000Y-79791928D01*
X118405518Y-79804188D01*
X118285820Y-79840498D01*
X118175506Y-79899463D01*
X118078815Y-79978815D01*
X117999463Y-80075506D01*
X117940498Y-80185820D01*
X117904188Y-80305518D01*
X117891928Y-80430000D01*
X102325120Y-80430000D01*
X102329853Y-80418574D01*
X102385000Y-80141335D01*
X102385000Y-79858665D01*
X102329853Y-79581426D01*
X102221680Y-79320273D01*
X102064637Y-79085241D01*
X101864759Y-78885363D01*
X101629727Y-78728320D01*
X101368574Y-78620147D01*
X101091335Y-78565000D01*
X100808665Y-78565000D01*
X100531426Y-78620147D01*
X100270273Y-78728320D01*
X100035241Y-78885363D01*
X99835363Y-79085241D01*
X99678320Y-79320273D01*
X99570147Y-79581426D01*
X99515000Y-79858665D01*
X89688072Y-79858665D01*
X89688072Y-79200000D01*
X89675812Y-79075518D01*
X89639502Y-78955820D01*
X89580537Y-78845506D01*
X89501185Y-78748815D01*
X89404494Y-78669463D01*
X89294180Y-78610498D01*
X89174482Y-78574188D01*
X89050000Y-78561928D01*
X87450000Y-78561928D01*
X87325518Y-78574188D01*
X87205820Y-78610498D01*
X87095506Y-78669463D01*
X86998815Y-78748815D01*
X86919463Y-78845506D01*
X86860498Y-78955820D01*
X86824188Y-79075518D01*
X86811928Y-79200000D01*
X81238072Y-79200000D01*
X81238072Y-79150000D01*
X81225812Y-79025518D01*
X81189502Y-78905820D01*
X81130537Y-78795506D01*
X81051185Y-78698815D01*
X80954494Y-78619463D01*
X80844180Y-78560498D01*
X80724482Y-78524188D01*
X80600000Y-78511928D01*
X78900000Y-78511928D01*
X78775518Y-78524188D01*
X78655820Y-78560498D01*
X78545506Y-78619463D01*
X78448815Y-78698815D01*
X78369463Y-78795506D01*
X78310498Y-78905820D01*
X78274188Y-79025518D01*
X78261928Y-79150000D01*
X78160000Y-79150000D01*
X78160000Y-75350000D01*
X110271928Y-75350000D01*
X110271928Y-77050000D01*
X110284188Y-77174482D01*
X110320498Y-77294180D01*
X110379463Y-77404494D01*
X110458815Y-77501185D01*
X110555506Y-77580537D01*
X110665820Y-77639502D01*
X110785518Y-77675812D01*
X110910000Y-77688072D01*
X112610000Y-77688072D01*
X112734482Y-77675812D01*
X112854180Y-77639502D01*
X112964494Y-77580537D01*
X113030000Y-77526778D01*
X113095506Y-77580537D01*
X113205820Y-77639502D01*
X113325518Y-77675812D01*
X113450000Y-77688072D01*
X114014250Y-77685000D01*
X114173000Y-77526250D01*
X114173000Y-76327000D01*
X114427000Y-76327000D01*
X114427000Y-77526250D01*
X114585750Y-77685000D01*
X115150000Y-77688072D01*
X115274482Y-77675812D01*
X115394180Y-77639502D01*
X115504494Y-77580537D01*
X115601185Y-77501185D01*
X115680537Y-77404494D01*
X115739502Y-77294180D01*
X115775812Y-77174482D01*
X115788072Y-77050000D01*
X115785000Y-76485750D01*
X115626250Y-76327000D01*
X114427000Y-76327000D01*
X114173000Y-76327000D01*
X114153000Y-76327000D01*
X114153000Y-76073000D01*
X114173000Y-76073000D01*
X114173000Y-74873750D01*
X114427000Y-74873750D01*
X114427000Y-76073000D01*
X115626250Y-76073000D01*
X115785000Y-75914250D01*
X115788072Y-75350000D01*
X115775812Y-75225518D01*
X115739502Y-75105820D01*
X115680537Y-74995506D01*
X115601185Y-74898815D01*
X115504494Y-74819463D01*
X115394180Y-74760498D01*
X115274482Y-74724188D01*
X115150000Y-74711928D01*
X114585750Y-74715000D01*
X114427000Y-74873750D01*
X114173000Y-74873750D01*
X114014250Y-74715000D01*
X113450000Y-74711928D01*
X113325518Y-74724188D01*
X113205820Y-74760498D01*
X113095506Y-74819463D01*
X113030000Y-74873222D01*
X112964494Y-74819463D01*
X112854180Y-74760498D01*
X112734482Y-74724188D01*
X112610000Y-74711928D01*
X110910000Y-74711928D01*
X110785518Y-74724188D01*
X110665820Y-74760498D01*
X110555506Y-74819463D01*
X110458815Y-74898815D01*
X110379463Y-74995506D01*
X110320498Y-75105820D01*
X110284188Y-75225518D01*
X110271928Y-75350000D01*
X78160000Y-75350000D01*
X78160000Y-73160000D01*
X136840000Y-73160000D01*
X136840001Y-109340000D01*
G37*
X136840001Y-109340000D02*
X78160000Y-109340000D01*
X78160000Y-107206712D01*
X79722893Y-107206712D01*
X79830726Y-107481338D01*
X80137384Y-107632216D01*
X80467585Y-107720369D01*
X80808639Y-107742409D01*
X81147439Y-107697489D01*
X81470966Y-107587336D01*
X81669274Y-107481338D01*
X81777107Y-107206712D01*
X80750000Y-106179605D01*
X79722893Y-107206712D01*
X78160000Y-107206712D01*
X78160000Y-106058639D01*
X79007591Y-106058639D01*
X79052511Y-106397439D01*
X79162664Y-106720966D01*
X79268662Y-106919274D01*
X79543288Y-107027107D01*
X80570395Y-106000000D01*
X80929605Y-106000000D01*
X81956712Y-107027107D01*
X82231338Y-106919274D01*
X82382216Y-106612616D01*
X82470369Y-106282415D01*
X82492409Y-105941361D01*
X82477528Y-105829117D01*
X84015000Y-105829117D01*
X84015000Y-106170883D01*
X84081675Y-106506081D01*
X84212463Y-106821831D01*
X84402337Y-107105998D01*
X84644002Y-107347663D01*
X84928169Y-107537537D01*
X85243919Y-107668325D01*
X85579117Y-107735000D01*
X85920883Y-107735000D01*
X86256081Y-107668325D01*
X86571831Y-107537537D01*
X86855998Y-107347663D01*
X87097663Y-107105998D01*
X87287537Y-106821831D01*
X87418325Y-106506081D01*
X87485000Y-106170883D01*
X87485000Y-105829117D01*
X92015000Y-105829117D01*
X92015000Y-106170883D01*
X92081675Y-106506081D01*
X92212463Y-106821831D01*
X92402337Y-107105998D01*
X92644002Y-107347663D01*
X92928169Y-107537537D01*
X93243919Y-107668325D01*
X93579117Y-107735000D01*
X93920883Y-107735000D01*
X94256081Y-107668325D01*
X94571831Y-107537537D01*
X94855998Y-107347663D01*
X94996949Y-107206712D01*
X97722893Y-107206712D01*
X97830726Y-107481338D01*
X98137384Y-107632216D01*
X98467585Y-107720369D01*
X98808639Y-107742409D01*
X99147439Y-107697489D01*
X99470966Y-107587336D01*
X99669274Y-107481338D01*
X99777107Y-107206712D01*
X98750000Y-106179605D01*
X97722893Y-107206712D01*
X94996949Y-107206712D01*
X95097663Y-107105998D01*
X95287537Y-106821831D01*
X95418325Y-106506081D01*
X95485000Y-106170883D01*
X95485000Y-106058639D01*
X97007591Y-106058639D01*
X97052511Y-106397439D01*
X97162664Y-106720966D01*
X97268662Y-106919274D01*
X97543288Y-107027107D01*
X98570395Y-106000000D01*
X98929605Y-106000000D01*
X99956712Y-107027107D01*
X100231338Y-106919274D01*
X100382216Y-106612616D01*
X100470369Y-106282415D01*
X100492409Y-105941361D01*
X100447489Y-105602561D01*
X100337336Y-105279034D01*
X100231338Y-105080726D01*
X99956712Y-104972893D01*
X98929605Y-106000000D01*
X98570395Y-106000000D01*
X97543288Y-104972893D01*
X97268662Y-105080726D01*
X97117784Y-105387384D01*
X97029631Y-105717585D01*
X97007591Y-106058639D01*
X95485000Y-106058639D01*
X95485000Y-105829117D01*
X95418325Y-105493919D01*
X95287537Y-105178169D01*
X95097663Y-104894002D01*
X94996949Y-104793288D01*
X97722893Y-104793288D01*
X98750000Y-105820395D01*
X99672334Y-104898061D01*
X103965000Y-104898061D01*
X103965000Y-105101939D01*
X104004774Y-105301898D01*
X104082795Y-105490256D01*
X104196063Y-105659774D01*
X104340226Y-105803937D01*
X104509744Y-105917205D01*
X104698102Y-105995226D01*
X104898061Y-106035000D01*
X105101939Y-106035000D01*
X105111430Y-106033112D01*
X105196063Y-106159774D01*
X105340226Y-106303937D01*
X105509744Y-106417205D01*
X105698102Y-106495226D01*
X105898061Y-106535000D01*
X106101939Y-106535000D01*
X106301898Y-106495226D01*
X106490256Y-106417205D01*
X106659774Y-106303937D01*
X106803937Y-106159774D01*
X106917205Y-105990256D01*
X106995226Y-105801898D01*
X107004276Y-105756400D01*
X107148061Y-105785000D01*
X107351939Y-105785000D01*
X107551898Y-105745226D01*
X107740256Y-105667205D01*
X107879572Y-105574117D01*
X107840000Y-105773061D01*
X107840000Y-105976939D01*
X107879774Y-106176898D01*
X107957795Y-106365256D01*
X108071063Y-106534774D01*
X108215226Y-106678937D01*
X108384744Y-106792205D01*
X108573102Y-106870226D01*
X108773061Y-106910000D01*
X108976939Y-106910000D01*
X109176898Y-106870226D01*
X109365256Y-106792205D01*
X109534774Y-106678937D01*
X109678937Y-106534774D01*
X109792205Y-106365256D01*
X109870226Y-106176898D01*
X109873852Y-106158665D01*
X117815000Y-106158665D01*
X117815000Y-106441335D01*
X117870147Y-106718574D01*
X117978320Y-106979727D01*
X118135363Y-107214759D01*
X118335241Y-107414637D01*
X118570273Y-107571680D01*
X118831426Y-107679853D01*
X119108665Y-107735000D01*
X119391335Y-107735000D01*
X119668574Y-107679853D01*
X119929727Y-107571680D01*
X120164759Y-107414637D01*
X120364637Y-107214759D01*
X120521680Y-106979727D01*
X120629853Y-106718574D01*
X120643684Y-106649039D01*
X125478096Y-106649039D01*
X125518754Y-106783087D01*
X125638963Y-107037420D01*
X125806481Y-107263414D01*
X126014869Y-107452385D01*
X126256119Y-107597070D01*
X126520960Y-107691909D01*
X126743000Y-107570624D01*
X126743000Y-106427000D01*
X126997000Y-106427000D01*
X126997000Y-107570624D01*
X127219040Y-107691909D01*
X127483881Y-107597070D01*
X127725131Y-107452385D01*
X127933519Y-107263414D01*
X128101037Y-107037420D01*
X128221246Y-106783087D01*
X128261904Y-106649039D01*
X128139915Y-106427000D01*
X126997000Y-106427000D01*
X126743000Y-106427000D01*
X125600085Y-106427000D01*
X125478096Y-106649039D01*
X120643684Y-106649039D01*
X120685000Y-106441335D01*
X120685000Y-106158665D01*
X120643685Y-105950961D01*
X125478096Y-105950961D01*
X125600085Y-106173000D01*
X126743000Y-106173000D01*
X126743000Y-105029376D01*
X126997000Y-105029376D01*
X126997000Y-106173000D01*
X128139915Y-106173000D01*
X128261904Y-105950961D01*
X128221246Y-105816913D01*
X128101037Y-105562580D01*
X127933519Y-105336586D01*
X127725131Y-105147615D01*
X127483881Y-105002930D01*
X127219040Y-104908091D01*
X126997000Y-105029376D01*
X126743000Y-105029376D01*
X126520960Y-104908091D01*
X126256119Y-105002930D01*
X126014869Y-105147615D01*
X125806481Y-105336586D01*
X125638963Y-105562580D01*
X125518754Y-105816913D01*
X125478096Y-105950961D01*
X120643685Y-105950961D01*
X120629853Y-105881426D01*
X120521680Y-105620273D01*
X120364637Y-105385241D01*
X120164759Y-105185363D01*
X119929727Y-105028320D01*
X119668574Y-104920147D01*
X119391335Y-104865000D01*
X119108665Y-104865000D01*
X118831426Y-104920147D01*
X118570273Y-105028320D01*
X118335241Y-105185363D01*
X118135363Y-105385241D01*
X117978320Y-105620273D01*
X117870147Y-105881426D01*
X117815000Y-106158665D01*
X109873852Y-106158665D01*
X109910000Y-105976939D01*
X109910000Y-105773061D01*
X109870226Y-105573102D01*
X109792205Y-105384744D01*
X109678937Y-105215226D01*
X109635000Y-105171289D01*
X109635000Y-103898061D01*
X111965000Y-103898061D01*
X111965000Y-104101939D01*
X112004774Y-104301898D01*
X112082795Y-104490256D01*
X112196063Y-104659774D01*
X112340226Y-104803937D01*
X112509744Y-104917205D01*
X112698102Y-104995226D01*
X112898061Y-105035000D01*
X113101939Y-105035000D01*
X113301898Y-104995226D01*
X113490256Y-104917205D01*
X113659774Y-104803937D01*
X113803937Y-104659774D01*
X113917205Y-104490256D01*
X113995226Y-104301898D01*
X114035000Y-104101939D01*
X114035000Y-103898061D01*
X113995226Y-103698102D01*
X113917205Y-103509744D01*
X113803937Y-103340226D01*
X113760000Y-103296289D01*
X113760000Y-102108665D01*
X117815000Y-102108665D01*
X117815000Y-102391335D01*
X117870147Y-102668574D01*
X117978320Y-102929727D01*
X118135363Y-103164759D01*
X118335241Y-103364637D01*
X118570273Y-103521680D01*
X118831426Y-103629853D01*
X119108665Y-103685000D01*
X119391335Y-103685000D01*
X119668574Y-103629853D01*
X119929727Y-103521680D01*
X120164759Y-103364637D01*
X120364637Y-103164759D01*
X120521680Y-102929727D01*
X120629853Y-102668574D01*
X120685000Y-102391335D01*
X120685000Y-102108665D01*
X125435000Y-102108665D01*
X125435000Y-102391335D01*
X125490147Y-102668574D01*
X125598320Y-102929727D01*
X125755363Y-103164759D01*
X125955241Y-103364637D01*
X126190273Y-103521680D01*
X126451426Y-103629853D01*
X126728665Y-103685000D01*
X127011335Y-103685000D01*
X127288574Y-103629853D01*
X127549727Y-103521680D01*
X127784759Y-103364637D01*
X127984637Y-103164759D01*
X128141680Y-102929727D01*
X128249853Y-102668574D01*
X128305000Y-102391335D01*
X128305000Y-102108665D01*
X128249853Y-101831426D01*
X128141680Y-101570273D01*
X127984637Y-101335241D01*
X127784759Y-101135363D01*
X127549727Y-100978320D01*
X127288574Y-100870147D01*
X127011335Y-100815000D01*
X126728665Y-100815000D01*
X126451426Y-100870147D01*
X126190273Y-100978320D01*
X125955241Y-101135363D01*
X125755363Y-101335241D01*
X125598320Y-101570273D01*
X125490147Y-101831426D01*
X125435000Y-102108665D01*
X120685000Y-102108665D01*
X120648688Y-101926113D01*
X121539802Y-101035000D01*
X121601939Y-101035000D01*
X121801898Y-100995226D01*
X121990256Y-100917205D01*
X122159774Y-100803937D01*
X122303937Y-100659774D01*
X122417205Y-100490256D01*
X122495226Y-100301898D01*
X122535000Y-100101939D01*
X122535000Y-99898061D01*
X122495226Y-99698102D01*
X122417205Y-99509744D01*
X122303937Y-99340226D01*
X122159774Y-99196063D01*
X121990256Y-99082795D01*
X121801898Y-99004774D01*
X121601939Y-98965000D01*
X121398061Y-98965000D01*
X121198102Y-99004774D01*
X121009744Y-99082795D01*
X120840226Y-99196063D01*
X120696063Y-99340226D01*
X120582795Y-99509744D01*
X120504774Y-99698102D01*
X120465000Y-99898061D01*
X120465000Y-99960198D01*
X119573887Y-100851312D01*
X119391335Y-100815000D01*
X119108665Y-100815000D01*
X118831426Y-100870147D01*
X118570273Y-100978320D01*
X118335241Y-101135363D01*
X118135363Y-101335241D01*
X117978320Y-101570273D01*
X117870147Y-101831426D01*
X117815000Y-102108665D01*
X113760000Y-102108665D01*
X113760000Y-97034801D01*
X117976689Y-92818113D01*
X117940498Y-92885820D01*
X117904188Y-93005518D01*
X117891928Y-93130000D01*
X117891928Y-94830000D01*
X117904188Y-94954482D01*
X117940498Y-95074180D01*
X117999463Y-95184494D01*
X118078815Y-95281185D01*
X118175506Y-95360537D01*
X118285820Y-95419502D01*
X118405518Y-95455812D01*
X118530000Y-95468072D01*
X120230000Y-95468072D01*
X120354482Y-95455812D01*
X120474180Y-95419502D01*
X120584494Y-95360537D01*
X120681185Y-95281185D01*
X120760537Y-95184494D01*
X120819502Y-95074180D01*
X120855812Y-94954482D01*
X120868072Y-94830000D01*
X120868072Y-93130000D01*
X120855812Y-93005518D01*
X120819502Y-92885820D01*
X120760537Y-92775506D01*
X120706778Y-92710000D01*
X120760537Y-92644494D01*
X120819502Y-92534180D01*
X120855812Y-92414482D01*
X120868072Y-92290000D01*
X120868072Y-90590000D01*
X120855812Y-90465518D01*
X120819502Y-90345820D01*
X120760537Y-90235506D01*
X120681185Y-90138815D01*
X120584494Y-90059463D01*
X120474180Y-90000498D01*
X120354482Y-89964188D01*
X120230000Y-89951928D01*
X118530000Y-89951928D01*
X118405518Y-89964188D01*
X118285820Y-90000498D01*
X118175506Y-90059463D01*
X118078815Y-90138815D01*
X117999463Y-90235506D01*
X117940498Y-90345820D01*
X117904188Y-90465518D01*
X117891928Y-90590000D01*
X117891928Y-90785674D01*
X117855724Y-90805026D01*
X117739999Y-90899999D01*
X117716201Y-90928997D01*
X112488998Y-96156201D01*
X112460000Y-96179999D01*
X112436202Y-96208997D01*
X112436201Y-96208998D01*
X112365026Y-96295724D01*
X112294454Y-96427754D01*
X112250998Y-96571015D01*
X112236324Y-96720000D01*
X112240001Y-96757332D01*
X112240000Y-103296289D01*
X112196063Y-103340226D01*
X112082795Y-103509744D01*
X112004774Y-103698102D01*
X111965000Y-103898061D01*
X109635000Y-103898061D01*
X109635000Y-93130000D01*
X110271928Y-93130000D01*
X110271928Y-94830000D01*
X110284188Y-94954482D01*
X110320498Y-95074180D01*
X110379463Y-95184494D01*
X110458815Y-95281185D01*
X110555506Y-95360537D01*
X110665820Y-95419502D01*
X110785518Y-95455812D01*
X110910000Y-95468072D01*
X112610000Y-95468072D01*
X112734482Y-95455812D01*
X112854180Y-95419502D01*
X112964494Y-95360537D01*
X113061185Y-95281185D01*
X113140537Y-95184494D01*
X113199502Y-95074180D01*
X113235812Y-94954482D01*
X113248072Y-94830000D01*
X113248072Y-93130000D01*
X113235812Y-93005518D01*
X113199502Y-92885820D01*
X113140537Y-92775506D01*
X113061185Y-92678815D01*
X112964494Y-92599463D01*
X112854180Y-92540498D01*
X112734482Y-92504188D01*
X112610000Y-92491928D01*
X110910000Y-92491928D01*
X110785518Y-92504188D01*
X110665820Y-92540498D01*
X110555506Y-92599463D01*
X110458815Y-92678815D01*
X110379463Y-92775506D01*
X110320498Y-92885820D01*
X110284188Y-93005518D01*
X110271928Y-93130000D01*
X109635000Y-93130000D01*
X109635000Y-90388072D01*
X110070000Y-90388072D01*
X110194482Y-90375812D01*
X110314180Y-90339502D01*
X110424494Y-90280537D01*
X110490000Y-90226778D01*
X110555506Y-90280537D01*
X110665820Y-90339502D01*
X110785518Y-90375812D01*
X110910000Y-90388072D01*
X110990001Y-90388072D01*
X110990001Y-90546288D01*
X110946063Y-90590226D01*
X110832795Y-90759744D01*
X110754774Y-90948102D01*
X110715000Y-91148061D01*
X110715000Y-91351939D01*
X110754774Y-91551898D01*
X110832795Y-91740256D01*
X110946063Y-91909774D01*
X111090226Y-92053937D01*
X111259744Y-92167205D01*
X111448102Y-92245226D01*
X111648061Y-92285000D01*
X111851939Y-92285000D01*
X112051898Y-92245226D01*
X112240256Y-92167205D01*
X112409774Y-92053937D01*
X112553937Y-91909774D01*
X112667205Y-91740256D01*
X112745226Y-91551898D01*
X112785000Y-91351939D01*
X112785000Y-91148061D01*
X112745226Y-90948102D01*
X112667205Y-90759744D01*
X112553937Y-90590226D01*
X112510000Y-90546289D01*
X112510000Y-90388072D01*
X112610000Y-90388072D01*
X112734482Y-90375812D01*
X112854180Y-90339502D01*
X112964494Y-90280537D01*
X113061185Y-90201185D01*
X113140537Y-90104494D01*
X113199502Y-89994180D01*
X113235812Y-89874482D01*
X113248072Y-89750000D01*
X113248072Y-89400000D01*
X130761928Y-89400000D01*
X130761928Y-91100000D01*
X130774188Y-91224482D01*
X130810498Y-91344180D01*
X130869463Y-91454494D01*
X130948815Y-91551185D01*
X131045506Y-91630537D01*
X131155820Y-91689502D01*
X131275518Y-91725812D01*
X131400000Y-91738072D01*
X133100000Y-91738072D01*
X133224482Y-91725812D01*
X133344180Y-91689502D01*
X133454494Y-91630537D01*
X133551185Y-91551185D01*
X133630537Y-91454494D01*
X133689502Y-91344180D01*
X133711513Y-91271620D01*
X133843368Y-91403475D01*
X134086589Y-91565990D01*
X134356842Y-91677932D01*
X134643740Y-91735000D01*
X134936260Y-91735000D01*
X135223158Y-91677932D01*
X135493411Y-91565990D01*
X135736632Y-91403475D01*
X135943475Y-91196632D01*
X136105990Y-90953411D01*
X136217932Y-90683158D01*
X136275000Y-90396260D01*
X136275000Y-90103740D01*
X136217932Y-89816842D01*
X136105990Y-89546589D01*
X135943475Y-89303368D01*
X135736632Y-89096525D01*
X135562240Y-88980000D01*
X135736632Y-88863475D01*
X135943475Y-88656632D01*
X136105990Y-88413411D01*
X136217932Y-88143158D01*
X136275000Y-87856260D01*
X136275000Y-87563740D01*
X136217932Y-87276842D01*
X136105990Y-87006589D01*
X135943475Y-86763368D01*
X135736632Y-86556525D01*
X135562240Y-86440000D01*
X135736632Y-86323475D01*
X135943475Y-86116632D01*
X136105990Y-85873411D01*
X136217932Y-85603158D01*
X136275000Y-85316260D01*
X136275000Y-85023740D01*
X136217932Y-84736842D01*
X136105990Y-84466589D01*
X135943475Y-84223368D01*
X135736632Y-84016525D01*
X135562240Y-83900000D01*
X135736632Y-83783475D01*
X135943475Y-83576632D01*
X136105990Y-83333411D01*
X136217932Y-83063158D01*
X136275000Y-82776260D01*
X136275000Y-82483740D01*
X136217932Y-82196842D01*
X136105990Y-81926589D01*
X135943475Y-81683368D01*
X135736632Y-81476525D01*
X135562240Y-81360000D01*
X135736632Y-81243475D01*
X135943475Y-81036632D01*
X136105990Y-80793411D01*
X136217932Y-80523158D01*
X136275000Y-80236260D01*
X136275000Y-79943740D01*
X136217932Y-79656842D01*
X136105990Y-79386589D01*
X135943475Y-79143368D01*
X135736632Y-78936525D01*
X135493411Y-78774010D01*
X135223158Y-78662068D01*
X134936260Y-78605000D01*
X134643740Y-78605000D01*
X134356842Y-78662068D01*
X134086589Y-78774010D01*
X133843368Y-78936525D01*
X133636525Y-79143368D01*
X133520000Y-79317760D01*
X133403475Y-79143368D01*
X133196632Y-78936525D01*
X132953411Y-78774010D01*
X132683158Y-78662068D01*
X132396260Y-78605000D01*
X132103740Y-78605000D01*
X131816842Y-78662068D01*
X131546589Y-78774010D01*
X131303368Y-78936525D01*
X131096525Y-79143368D01*
X130934010Y-79386589D01*
X130822068Y-79656842D01*
X130765000Y-79943740D01*
X130765000Y-80236260D01*
X130822068Y-80523158D01*
X130934010Y-80793411D01*
X131096525Y-81036632D01*
X131303368Y-81243475D01*
X131477760Y-81360000D01*
X131303368Y-81476525D01*
X131096525Y-81683368D01*
X130934010Y-81926589D01*
X130822068Y-82196842D01*
X130765000Y-82483740D01*
X130765000Y-82776260D01*
X130822068Y-83063158D01*
X130934010Y-83333411D01*
X131096525Y-83576632D01*
X131303368Y-83783475D01*
X131485534Y-83905195D01*
X131368645Y-83974822D01*
X131152412Y-84169731D01*
X130978359Y-84403080D01*
X130853175Y-84665901D01*
X130808524Y-84813110D01*
X130929845Y-85043000D01*
X132123000Y-85043000D01*
X132123000Y-85023000D01*
X132377000Y-85023000D01*
X132377000Y-85043000D01*
X132397000Y-85043000D01*
X132397000Y-85297000D01*
X132377000Y-85297000D01*
X132377000Y-87583000D01*
X132397000Y-87583000D01*
X132397000Y-87837000D01*
X132377000Y-87837000D01*
X132377000Y-87857000D01*
X132123000Y-87857000D01*
X132123000Y-87837000D01*
X130929845Y-87837000D01*
X130808524Y-88066890D01*
X130853175Y-88214099D01*
X130978359Y-88476920D01*
X131152412Y-88710269D01*
X131236466Y-88786034D01*
X131155820Y-88810498D01*
X131045506Y-88869463D01*
X130948815Y-88948815D01*
X130869463Y-89045506D01*
X130810498Y-89155820D01*
X130774188Y-89275518D01*
X130761928Y-89400000D01*
X113248072Y-89400000D01*
X113248072Y-88050000D01*
X113235812Y-87925518D01*
X113199502Y-87805820D01*
X113140537Y-87695506D01*
X113061185Y-87598815D01*
X112964494Y-87519463D01*
X112854180Y-87460498D01*
X112734482Y-87424188D01*
X112610000Y-87411928D01*
X110910000Y-87411928D01*
X110785518Y-87424188D01*
X110665820Y-87460498D01*
X110555506Y-87519463D01*
X110490000Y-87573222D01*
X110424494Y-87519463D01*
X110314180Y-87460498D01*
X110194482Y-87424188D01*
X110070000Y-87411928D01*
X108370000Y-87411928D01*
X108245518Y-87424188D01*
X108125820Y-87460498D01*
X108015506Y-87519463D01*
X107918815Y-87598815D01*
X107839463Y-87695506D01*
X107780498Y-87805820D01*
X107744188Y-87925518D01*
X107731928Y-88050000D01*
X107731928Y-89750000D01*
X107744188Y-89874482D01*
X107780498Y-89994180D01*
X107839463Y-90104494D01*
X107918815Y-90201185D01*
X108015506Y-90280537D01*
X108115001Y-90333719D01*
X108115001Y-96717598D01*
X108101939Y-96715000D01*
X107898061Y-96715000D01*
X107698102Y-96754774D01*
X107509744Y-96832795D01*
X107340226Y-96946063D01*
X107196063Y-97090226D01*
X107082795Y-97259744D01*
X107004774Y-97448102D01*
X106965000Y-97648061D01*
X106965000Y-97710198D01*
X105964004Y-98711195D01*
X105935000Y-98734998D01*
X105893965Y-98785000D01*
X105840027Y-98850723D01*
X105794338Y-98936201D01*
X105769455Y-98982753D01*
X105725998Y-99126014D01*
X105715001Y-99237667D01*
X105715001Y-99237677D01*
X105711325Y-99274999D01*
X105715001Y-99312322D01*
X105715002Y-103210195D01*
X104960198Y-103965000D01*
X104898061Y-103965000D01*
X104698102Y-104004774D01*
X104509744Y-104082795D01*
X104340226Y-104196063D01*
X104196063Y-104340226D01*
X104082795Y-104509744D01*
X104004774Y-104698102D01*
X103965000Y-104898061D01*
X99672334Y-104898061D01*
X99777107Y-104793288D01*
X99669274Y-104518662D01*
X99362616Y-104367784D01*
X99032415Y-104279631D01*
X98691361Y-104257591D01*
X98352561Y-104302511D01*
X98029034Y-104412664D01*
X97830726Y-104518662D01*
X97722893Y-104793288D01*
X94996949Y-104793288D01*
X94855998Y-104652337D01*
X94571831Y-104462463D01*
X94256081Y-104331675D01*
X93920883Y-104265000D01*
X93579117Y-104265000D01*
X93243919Y-104331675D01*
X92928169Y-104462463D01*
X92644002Y-104652337D01*
X92402337Y-104894002D01*
X92212463Y-105178169D01*
X92081675Y-105493919D01*
X92015000Y-105829117D01*
X87485000Y-105829117D01*
X87418325Y-105493919D01*
X87287537Y-105178169D01*
X87097663Y-104894002D01*
X86855998Y-104652337D01*
X86571831Y-104462463D01*
X86256081Y-104331675D01*
X85920883Y-104265000D01*
X85579117Y-104265000D01*
X85243919Y-104331675D01*
X84928169Y-104462463D01*
X84644002Y-104652337D01*
X84402337Y-104894002D01*
X84212463Y-105178169D01*
X84081675Y-105493919D01*
X84015000Y-105829117D01*
X82477528Y-105829117D01*
X82447489Y-105602561D01*
X82337336Y-105279034D01*
X82231338Y-105080726D01*
X81956712Y-104972893D01*
X80929605Y-106000000D01*
X80570395Y-106000000D01*
X79543288Y-104972893D01*
X79268662Y-105080726D01*
X79117784Y-105387384D01*
X79029631Y-105717585D01*
X79007591Y-106058639D01*
X78160000Y-106058639D01*
X78160000Y-104793288D01*
X79722893Y-104793288D01*
X80750000Y-105820395D01*
X81777107Y-104793288D01*
X81669274Y-104518662D01*
X81362616Y-104367784D01*
X81032415Y-104279631D01*
X80691361Y-104257591D01*
X80352561Y-104302511D01*
X80029034Y-104412664D01*
X79830726Y-104518662D01*
X79722893Y-104793288D01*
X78160000Y-104793288D01*
X78160000Y-100829117D01*
X79015000Y-100829117D01*
X79015000Y-101170883D01*
X79081675Y-101506081D01*
X79212463Y-101821831D01*
X79402337Y-102105998D01*
X79644002Y-102347663D01*
X79928169Y-102537537D01*
X80243919Y-102668325D01*
X80579117Y-102735000D01*
X80920883Y-102735000D01*
X81256081Y-102668325D01*
X81571831Y-102537537D01*
X81855998Y-102347663D01*
X82097663Y-102105998D01*
X82287537Y-101821831D01*
X82418325Y-101506081D01*
X82485000Y-101170883D01*
X82485000Y-100829117D01*
X84015000Y-100829117D01*
X84015000Y-101170883D01*
X84081675Y-101506081D01*
X84212463Y-101821831D01*
X84402337Y-102105998D01*
X84644002Y-102347663D01*
X84928169Y-102537537D01*
X85243919Y-102668325D01*
X85579117Y-102735000D01*
X85920883Y-102735000D01*
X86256081Y-102668325D01*
X86571831Y-102537537D01*
X86855998Y-102347663D01*
X87097663Y-102105998D01*
X87287537Y-101821831D01*
X87418325Y-101506081D01*
X87485000Y-101170883D01*
X87485000Y-100829117D01*
X92015000Y-100829117D01*
X92015000Y-101170883D01*
X92081675Y-101506081D01*
X92212463Y-101821831D01*
X92402337Y-102105998D01*
X92644002Y-102347663D01*
X92928169Y-102537537D01*
X93243919Y-102668325D01*
X93579117Y-102735000D01*
X93920883Y-102735000D01*
X94256081Y-102668325D01*
X94571831Y-102537537D01*
X94855998Y-102347663D01*
X95097663Y-102105998D01*
X95287537Y-101821831D01*
X95418325Y-101506081D01*
X95485000Y-101170883D01*
X95485000Y-100829117D01*
X97015000Y-100829117D01*
X97015000Y-101170883D01*
X97081675Y-101506081D01*
X97212463Y-101821831D01*
X97402337Y-102105998D01*
X97644002Y-102347663D01*
X97928169Y-102537537D01*
X98243919Y-102668325D01*
X98579117Y-102735000D01*
X98920883Y-102735000D01*
X99256081Y-102668325D01*
X99571831Y-102537537D01*
X99855998Y-102347663D01*
X100097663Y-102105998D01*
X100287537Y-101821831D01*
X100418325Y-101506081D01*
X100485000Y-101170883D01*
X100485000Y-100829117D01*
X100418325Y-100493919D01*
X100287537Y-100178169D01*
X100097663Y-99894002D01*
X99855998Y-99652337D01*
X99571831Y-99462463D01*
X99256081Y-99331675D01*
X98920883Y-99265000D01*
X98579117Y-99265000D01*
X98243919Y-99331675D01*
X97928169Y-99462463D01*
X97644002Y-99652337D01*
X97402337Y-99894002D01*
X97212463Y-100178169D01*
X97081675Y-100493919D01*
X97015000Y-100829117D01*
X95485000Y-100829117D01*
X95418325Y-100493919D01*
X95287537Y-100178169D01*
X95097663Y-99894002D01*
X94855998Y-99652337D01*
X94571831Y-99462463D01*
X94256081Y-99331675D01*
X93920883Y-99265000D01*
X93579117Y-99265000D01*
X93243919Y-99331675D01*
X92928169Y-99462463D01*
X92644002Y-99652337D01*
X92402337Y-99894002D01*
X92212463Y-100178169D01*
X92081675Y-100493919D01*
X92015000Y-100829117D01*
X87485000Y-100829117D01*
X87418325Y-100493919D01*
X87287537Y-100178169D01*
X87097663Y-99894002D01*
X86855998Y-99652337D01*
X86571831Y-99462463D01*
X86256081Y-99331675D01*
X85920883Y-99265000D01*
X85579117Y-99265000D01*
X85243919Y-99331675D01*
X84928169Y-99462463D01*
X84644002Y-99652337D01*
X84402337Y-99894002D01*
X84212463Y-100178169D01*
X84081675Y-100493919D01*
X84015000Y-100829117D01*
X82485000Y-100829117D01*
X82418325Y-100493919D01*
X82287537Y-100178169D01*
X82097663Y-99894002D01*
X81855998Y-99652337D01*
X81571831Y-99462463D01*
X81256081Y-99331675D01*
X80920883Y-99265000D01*
X80579117Y-99265000D01*
X80243919Y-99331675D01*
X79928169Y-99462463D01*
X79644002Y-99652337D01*
X79402337Y-99894002D01*
X79212463Y-100178169D01*
X79081675Y-100493919D01*
X79015000Y-100829117D01*
X78160000Y-100829117D01*
X78160000Y-84933740D01*
X78265000Y-84933740D01*
X78265000Y-85226260D01*
X78322068Y-85513158D01*
X78434010Y-85783411D01*
X78596525Y-86026632D01*
X78803368Y-86233475D01*
X78977760Y-86350000D01*
X78803368Y-86466525D01*
X78596525Y-86673368D01*
X78434010Y-86916589D01*
X78322068Y-87186842D01*
X78265000Y-87473740D01*
X78265000Y-87766260D01*
X78322068Y-88053158D01*
X78434010Y-88323411D01*
X78596525Y-88566632D01*
X78803368Y-88773475D01*
X78977760Y-88890000D01*
X78803368Y-89006525D01*
X78596525Y-89213368D01*
X78434010Y-89456589D01*
X78322068Y-89726842D01*
X78265000Y-90013740D01*
X78265000Y-90306260D01*
X78322068Y-90593158D01*
X78434010Y-90863411D01*
X78596525Y-91106632D01*
X78803368Y-91313475D01*
X78977760Y-91430000D01*
X78803368Y-91546525D01*
X78596525Y-91753368D01*
X78434010Y-91996589D01*
X78322068Y-92266842D01*
X78265000Y-92553740D01*
X78265000Y-92846260D01*
X78322068Y-93133158D01*
X78434010Y-93403411D01*
X78596525Y-93646632D01*
X78803368Y-93853475D01*
X79046589Y-94015990D01*
X79316842Y-94127932D01*
X79603740Y-94185000D01*
X79896260Y-94185000D01*
X80183158Y-94127932D01*
X80453411Y-94015990D01*
X80696632Y-93853475D01*
X80903475Y-93646632D01*
X81065990Y-93403411D01*
X81177932Y-93133158D01*
X81235000Y-92846260D01*
X81235000Y-92553740D01*
X81177932Y-92266842D01*
X81065990Y-91996589D01*
X80903475Y-91753368D01*
X80696632Y-91546525D01*
X80522240Y-91430000D01*
X80696632Y-91313475D01*
X80903475Y-91106632D01*
X81065990Y-90863411D01*
X81177932Y-90593158D01*
X81235000Y-90306260D01*
X81235000Y-90013740D01*
X81177932Y-89726842D01*
X81065990Y-89456589D01*
X80903475Y-89213368D01*
X80696632Y-89006525D01*
X80522240Y-88890000D01*
X80696632Y-88773475D01*
X80903475Y-88566632D01*
X81065990Y-88323411D01*
X81177932Y-88053158D01*
X81235000Y-87766260D01*
X81235000Y-87473740D01*
X81177932Y-87186842D01*
X81065990Y-86916589D01*
X80903475Y-86673368D01*
X80696632Y-86466525D01*
X80522240Y-86350000D01*
X80696632Y-86233475D01*
X80903475Y-86026632D01*
X81065990Y-85783411D01*
X81177932Y-85513158D01*
X81235000Y-85226260D01*
X81235000Y-84938665D01*
X86815000Y-84938665D01*
X86815000Y-85221335D01*
X86870147Y-85498574D01*
X86978320Y-85759727D01*
X87135363Y-85994759D01*
X87335241Y-86194637D01*
X87567759Y-86350000D01*
X87335241Y-86505363D01*
X87135363Y-86705241D01*
X86978320Y-86940273D01*
X86870147Y-87201426D01*
X86815000Y-87478665D01*
X86815000Y-87761335D01*
X86870147Y-88038574D01*
X86978320Y-88299727D01*
X87135363Y-88534759D01*
X87335241Y-88734637D01*
X87567759Y-88890000D01*
X87335241Y-89045363D01*
X87135363Y-89245241D01*
X86978320Y-89480273D01*
X86870147Y-89741426D01*
X86815000Y-90018665D01*
X86815000Y-90301335D01*
X86870147Y-90578574D01*
X86978320Y-90839727D01*
X87135363Y-91074759D01*
X87335241Y-91274637D01*
X87567759Y-91430000D01*
X87335241Y-91585363D01*
X87135363Y-91785241D01*
X86978320Y-92020273D01*
X86870147Y-92281426D01*
X86815000Y-92558665D01*
X86815000Y-92841335D01*
X86870147Y-93118574D01*
X86978320Y-93379727D01*
X87135363Y-93614759D01*
X87335241Y-93814637D01*
X87570273Y-93971680D01*
X87831426Y-94079853D01*
X88108665Y-94135000D01*
X88391335Y-94135000D01*
X88668574Y-94079853D01*
X88929727Y-93971680D01*
X89164759Y-93814637D01*
X89364637Y-93614759D01*
X89521680Y-93379727D01*
X89629853Y-93118574D01*
X89685000Y-92841335D01*
X89685000Y-92558665D01*
X89629853Y-92281426D01*
X89521680Y-92020273D01*
X89364637Y-91785241D01*
X89164759Y-91585363D01*
X88932241Y-91430000D01*
X89164759Y-91274637D01*
X89364637Y-91074759D01*
X89521680Y-90839727D01*
X89629853Y-90578574D01*
X89685000Y-90301335D01*
X89685000Y-90018665D01*
X89629853Y-89741426D01*
X89521680Y-89480273D01*
X89364637Y-89245241D01*
X89164759Y-89045363D01*
X88932241Y-88890000D01*
X89164759Y-88734637D01*
X89364637Y-88534759D01*
X89521680Y-88299727D01*
X89629853Y-88038574D01*
X89685000Y-87761335D01*
X89685000Y-87478665D01*
X89629853Y-87201426D01*
X89521680Y-86940273D01*
X89364637Y-86705241D01*
X89164759Y-86505363D01*
X88932241Y-86350000D01*
X89164759Y-86194637D01*
X89364637Y-85994759D01*
X89521680Y-85759727D01*
X89629853Y-85498574D01*
X89685000Y-85221335D01*
X89685000Y-84938665D01*
X99515000Y-84938665D01*
X99515000Y-85221335D01*
X99570147Y-85498574D01*
X99678320Y-85759727D01*
X99835363Y-85994759D01*
X100035241Y-86194637D01*
X100267759Y-86350000D01*
X100035241Y-86505363D01*
X99835363Y-86705241D01*
X99678320Y-86940273D01*
X99570147Y-87201426D01*
X99515000Y-87478665D01*
X99515000Y-87761335D01*
X99570147Y-88038574D01*
X99678320Y-88299727D01*
X99835363Y-88534759D01*
X100035241Y-88734637D01*
X100267759Y-88890000D01*
X100035241Y-89045363D01*
X99835363Y-89245241D01*
X99678320Y-89480273D01*
X99570147Y-89741426D01*
X99515000Y-90018665D01*
X99515000Y-90301335D01*
X99570147Y-90578574D01*
X99678320Y-90839727D01*
X99835363Y-91074759D01*
X100035241Y-91274637D01*
X100267759Y-91430000D01*
X100035241Y-91585363D01*
X99835363Y-91785241D01*
X99678320Y-92020273D01*
X99570147Y-92281426D01*
X99515000Y-92558665D01*
X99515000Y-92841335D01*
X99570147Y-93118574D01*
X99678320Y-93379727D01*
X99835363Y-93614759D01*
X100035241Y-93814637D01*
X100270273Y-93971680D01*
X100531426Y-94079853D01*
X100808665Y-94135000D01*
X101091335Y-94135000D01*
X101368574Y-94079853D01*
X101629727Y-93971680D01*
X101864759Y-93814637D01*
X102064637Y-93614759D01*
X102221680Y-93379727D01*
X102329853Y-93118574D01*
X102385000Y-92841335D01*
X102385000Y-92558665D01*
X102329853Y-92281426D01*
X102221680Y-92020273D01*
X102064637Y-91785241D01*
X101864759Y-91585363D01*
X101632241Y-91430000D01*
X101864759Y-91274637D01*
X102064637Y-91074759D01*
X102221680Y-90839727D01*
X102329853Y-90578574D01*
X102385000Y-90301335D01*
X102385000Y-90018665D01*
X102329853Y-89741426D01*
X102221680Y-89480273D01*
X102064637Y-89245241D01*
X101864759Y-89045363D01*
X101632241Y-88890000D01*
X101864759Y-88734637D01*
X102064637Y-88534759D01*
X102221680Y-88299727D01*
X102329853Y-88038574D01*
X102385000Y-87761335D01*
X102385000Y-87478665D01*
X102383782Y-87472542D01*
X102471014Y-87499003D01*
X102582667Y-87510000D01*
X102582675Y-87510000D01*
X102620000Y-87513676D01*
X102657325Y-87510000D01*
X102796289Y-87510000D01*
X102840226Y-87553937D01*
X103009744Y-87667205D01*
X103198102Y-87745226D01*
X103398061Y-87785000D01*
X103601939Y-87785000D01*
X103801898Y-87745226D01*
X103990256Y-87667205D01*
X104159774Y-87553937D01*
X104303937Y-87409774D01*
X104417205Y-87240256D01*
X104495226Y-87051898D01*
X104535000Y-86851939D01*
X104535000Y-86648061D01*
X104495226Y-86448102D01*
X104417205Y-86259744D01*
X104303937Y-86090226D01*
X104159774Y-85946063D01*
X103990256Y-85832795D01*
X103801898Y-85754774D01*
X103601939Y-85715000D01*
X103398061Y-85715000D01*
X103198102Y-85754774D01*
X103009744Y-85832795D01*
X102870582Y-85925780D01*
X102471692Y-85526890D01*
X130808524Y-85526890D01*
X130853175Y-85674099D01*
X130978359Y-85936920D01*
X131152412Y-86170269D01*
X131368645Y-86365178D01*
X131494255Y-86440000D01*
X131368645Y-86514822D01*
X131152412Y-86709731D01*
X130978359Y-86943080D01*
X130853175Y-87205901D01*
X130808524Y-87353110D01*
X130929845Y-87583000D01*
X132123000Y-87583000D01*
X132123000Y-85297000D01*
X130929845Y-85297000D01*
X130808524Y-85526890D01*
X102471692Y-85526890D01*
X102348688Y-85403886D01*
X102385000Y-85221335D01*
X102385000Y-84938665D01*
X102329853Y-84661426D01*
X102221680Y-84400273D01*
X102064637Y-84165241D01*
X101864759Y-83965363D01*
X101629727Y-83808320D01*
X101619135Y-83803933D01*
X101805131Y-83692385D01*
X102013519Y-83503414D01*
X102181037Y-83277420D01*
X102301246Y-83023087D01*
X102341904Y-82889039D01*
X102219915Y-82667000D01*
X101077000Y-82667000D01*
X101077000Y-82687000D01*
X100823000Y-82687000D01*
X100823000Y-82667000D01*
X99680085Y-82667000D01*
X99558096Y-82889039D01*
X99598754Y-83023087D01*
X99718963Y-83277420D01*
X99886481Y-83503414D01*
X100094869Y-83692385D01*
X100280865Y-83803933D01*
X100270273Y-83808320D01*
X100035241Y-83965363D01*
X99835363Y-84165241D01*
X99678320Y-84400273D01*
X99570147Y-84661426D01*
X99515000Y-84938665D01*
X89685000Y-84938665D01*
X89629853Y-84661426D01*
X89521680Y-84400273D01*
X89364637Y-84165241D01*
X89164759Y-83965363D01*
X88929727Y-83808320D01*
X88919135Y-83803933D01*
X89105131Y-83692385D01*
X89313519Y-83503414D01*
X89481037Y-83277420D01*
X89601246Y-83023087D01*
X89641904Y-82889039D01*
X89519915Y-82667000D01*
X88377000Y-82667000D01*
X88377000Y-82687000D01*
X88123000Y-82687000D01*
X88123000Y-82667000D01*
X86980085Y-82667000D01*
X86858096Y-82889039D01*
X86898754Y-83023087D01*
X87018963Y-83277420D01*
X87186481Y-83503414D01*
X87394869Y-83692385D01*
X87580865Y-83803933D01*
X87570273Y-83808320D01*
X87335241Y-83965363D01*
X87135363Y-84165241D01*
X86978320Y-84400273D01*
X86870147Y-84661426D01*
X86815000Y-84938665D01*
X81235000Y-84938665D01*
X81235000Y-84933740D01*
X81177932Y-84646842D01*
X81065990Y-84376589D01*
X80903475Y-84133368D01*
X80696632Y-83926525D01*
X80514466Y-83804805D01*
X80631355Y-83735178D01*
X80847588Y-83540269D01*
X81021641Y-83306920D01*
X81146825Y-83044099D01*
X81191476Y-82896890D01*
X81070155Y-82667000D01*
X79877000Y-82667000D01*
X79877000Y-82687000D01*
X79623000Y-82687000D01*
X79623000Y-82667000D01*
X78429845Y-82667000D01*
X78308524Y-82896890D01*
X78353175Y-83044099D01*
X78478359Y-83306920D01*
X78652412Y-83540269D01*
X78868645Y-83735178D01*
X78985534Y-83804805D01*
X78803368Y-83926525D01*
X78596525Y-84133368D01*
X78434010Y-84376589D01*
X78322068Y-84646842D01*
X78265000Y-84933740D01*
X78160000Y-84933740D01*
X78160000Y-79150000D01*
X78261928Y-79150000D01*
X78261928Y-80850000D01*
X78274188Y-80974482D01*
X78310498Y-81094180D01*
X78369463Y-81204494D01*
X78448815Y-81301185D01*
X78545506Y-81380537D01*
X78655820Y-81439502D01*
X78736466Y-81463966D01*
X78652412Y-81539731D01*
X78478359Y-81773080D01*
X78353175Y-82035901D01*
X78308524Y-82183110D01*
X78429845Y-82413000D01*
X79623000Y-82413000D01*
X79623000Y-82393000D01*
X79877000Y-82393000D01*
X79877000Y-82413000D01*
X81070155Y-82413000D01*
X81191476Y-82183110D01*
X81146825Y-82035901D01*
X81021641Y-81773080D01*
X80847588Y-81539731D01*
X80763534Y-81463966D01*
X80844180Y-81439502D01*
X80954494Y-81380537D01*
X81051185Y-81301185D01*
X81130537Y-81204494D01*
X81189502Y-81094180D01*
X81225812Y-80974482D01*
X81238072Y-80850000D01*
X81238072Y-79200000D01*
X86811928Y-79200000D01*
X86811928Y-80800000D01*
X86824188Y-80924482D01*
X86860498Y-81044180D01*
X86919463Y-81154494D01*
X86998815Y-81251185D01*
X87095506Y-81330537D01*
X87205820Y-81389502D01*
X87325518Y-81425812D01*
X87350080Y-81428231D01*
X87186481Y-81576586D01*
X87018963Y-81802580D01*
X86898754Y-82056913D01*
X86858096Y-82190961D01*
X86980085Y-82413000D01*
X88123000Y-82413000D01*
X88123000Y-82393000D01*
X88377000Y-82393000D01*
X88377000Y-82413000D01*
X89519915Y-82413000D01*
X89641904Y-82190961D01*
X89601246Y-82056913D01*
X89481037Y-81802580D01*
X89313519Y-81576586D01*
X89149920Y-81428231D01*
X89174482Y-81425812D01*
X89294180Y-81389502D01*
X89404494Y-81330537D01*
X89501185Y-81251185D01*
X89580537Y-81154494D01*
X89639502Y-81044180D01*
X89675812Y-80924482D01*
X89688072Y-80800000D01*
X89688072Y-79858665D01*
X99515000Y-79858665D01*
X99515000Y-80141335D01*
X99570147Y-80418574D01*
X99678320Y-80679727D01*
X99835363Y-80914759D01*
X100035241Y-81114637D01*
X100270273Y-81271680D01*
X100280865Y-81276067D01*
X100094869Y-81387615D01*
X99886481Y-81576586D01*
X99718963Y-81802580D01*
X99598754Y-82056913D01*
X99558096Y-82190961D01*
X99680085Y-82413000D01*
X100823000Y-82413000D01*
X100823000Y-82393000D01*
X101077000Y-82393000D01*
X101077000Y-82413000D01*
X102219915Y-82413000D01*
X102341904Y-82190961D01*
X102301246Y-82056913D01*
X102181037Y-81802580D01*
X102013519Y-81576586D01*
X101805131Y-81387615D01*
X101619135Y-81276067D01*
X101629727Y-81271680D01*
X101864759Y-81114637D01*
X102064637Y-80914759D01*
X102221680Y-80679727D01*
X102325120Y-80430000D01*
X117891928Y-80430000D01*
X117891928Y-82130000D01*
X117904188Y-82254482D01*
X117940498Y-82374180D01*
X117999463Y-82484494D01*
X118078815Y-82581185D01*
X118175506Y-82660537D01*
X118285820Y-82719502D01*
X118405518Y-82755812D01*
X118530000Y-82768072D01*
X120230000Y-82768072D01*
X120354482Y-82755812D01*
X120474180Y-82719502D01*
X120584494Y-82660537D01*
X120681185Y-82581185D01*
X120760537Y-82484494D01*
X120819502Y-82374180D01*
X120855812Y-82254482D01*
X120868072Y-82130000D01*
X120868072Y-80430000D01*
X120855812Y-80305518D01*
X120819502Y-80185820D01*
X120760537Y-80075506D01*
X120681185Y-79978815D01*
X120584494Y-79899463D01*
X120474180Y-79840498D01*
X120354482Y-79804188D01*
X120230000Y-79791928D01*
X118530000Y-79791928D01*
X118405518Y-79804188D01*
X118285820Y-79840498D01*
X118175506Y-79899463D01*
X118078815Y-79978815D01*
X117999463Y-80075506D01*
X117940498Y-80185820D01*
X117904188Y-80305518D01*
X117891928Y-80430000D01*
X102325120Y-80430000D01*
X102329853Y-80418574D01*
X102385000Y-80141335D01*
X102385000Y-79858665D01*
X102329853Y-79581426D01*
X102221680Y-79320273D01*
X102064637Y-79085241D01*
X101864759Y-78885363D01*
X101629727Y-78728320D01*
X101368574Y-78620147D01*
X101091335Y-78565000D01*
X100808665Y-78565000D01*
X100531426Y-78620147D01*
X100270273Y-78728320D01*
X100035241Y-78885363D01*
X99835363Y-79085241D01*
X99678320Y-79320273D01*
X99570147Y-79581426D01*
X99515000Y-79858665D01*
X89688072Y-79858665D01*
X89688072Y-79200000D01*
X89675812Y-79075518D01*
X89639502Y-78955820D01*
X89580537Y-78845506D01*
X89501185Y-78748815D01*
X89404494Y-78669463D01*
X89294180Y-78610498D01*
X89174482Y-78574188D01*
X89050000Y-78561928D01*
X87450000Y-78561928D01*
X87325518Y-78574188D01*
X87205820Y-78610498D01*
X87095506Y-78669463D01*
X86998815Y-78748815D01*
X86919463Y-78845506D01*
X86860498Y-78955820D01*
X86824188Y-79075518D01*
X86811928Y-79200000D01*
X81238072Y-79200000D01*
X81238072Y-79150000D01*
X81225812Y-79025518D01*
X81189502Y-78905820D01*
X81130537Y-78795506D01*
X81051185Y-78698815D01*
X80954494Y-78619463D01*
X80844180Y-78560498D01*
X80724482Y-78524188D01*
X80600000Y-78511928D01*
X78900000Y-78511928D01*
X78775518Y-78524188D01*
X78655820Y-78560498D01*
X78545506Y-78619463D01*
X78448815Y-78698815D01*
X78369463Y-78795506D01*
X78310498Y-78905820D01*
X78274188Y-79025518D01*
X78261928Y-79150000D01*
X78160000Y-79150000D01*
X78160000Y-75350000D01*
X110271928Y-75350000D01*
X110271928Y-77050000D01*
X110284188Y-77174482D01*
X110320498Y-77294180D01*
X110379463Y-77404494D01*
X110458815Y-77501185D01*
X110555506Y-77580537D01*
X110665820Y-77639502D01*
X110785518Y-77675812D01*
X110910000Y-77688072D01*
X112610000Y-77688072D01*
X112734482Y-77675812D01*
X112854180Y-77639502D01*
X112964494Y-77580537D01*
X113030000Y-77526778D01*
X113095506Y-77580537D01*
X113205820Y-77639502D01*
X113325518Y-77675812D01*
X113450000Y-77688072D01*
X114014250Y-77685000D01*
X114173000Y-77526250D01*
X114173000Y-76327000D01*
X114427000Y-76327000D01*
X114427000Y-77526250D01*
X114585750Y-77685000D01*
X115150000Y-77688072D01*
X115274482Y-77675812D01*
X115394180Y-77639502D01*
X115504494Y-77580537D01*
X115601185Y-77501185D01*
X115680537Y-77404494D01*
X115739502Y-77294180D01*
X115775812Y-77174482D01*
X115788072Y-77050000D01*
X115785000Y-76485750D01*
X115626250Y-76327000D01*
X114427000Y-76327000D01*
X114173000Y-76327000D01*
X114153000Y-76327000D01*
X114153000Y-76073000D01*
X114173000Y-76073000D01*
X114173000Y-74873750D01*
X114427000Y-74873750D01*
X114427000Y-76073000D01*
X115626250Y-76073000D01*
X115785000Y-75914250D01*
X115788072Y-75350000D01*
X115775812Y-75225518D01*
X115739502Y-75105820D01*
X115680537Y-74995506D01*
X115601185Y-74898815D01*
X115504494Y-74819463D01*
X115394180Y-74760498D01*
X115274482Y-74724188D01*
X115150000Y-74711928D01*
X114585750Y-74715000D01*
X114427000Y-74873750D01*
X114173000Y-74873750D01*
X114014250Y-74715000D01*
X113450000Y-74711928D01*
X113325518Y-74724188D01*
X113205820Y-74760498D01*
X113095506Y-74819463D01*
X113030000Y-74873222D01*
X112964494Y-74819463D01*
X112854180Y-74760498D01*
X112734482Y-74724188D01*
X112610000Y-74711928D01*
X110910000Y-74711928D01*
X110785518Y-74724188D01*
X110665820Y-74760498D01*
X110555506Y-74819463D01*
X110458815Y-74898815D01*
X110379463Y-74995506D01*
X110320498Y-75105820D01*
X110284188Y-75225518D01*
X110271928Y-75350000D01*
X78160000Y-75350000D01*
X78160000Y-73160000D01*
X136840000Y-73160000D01*
X136840001Y-109340000D01*
M02*
