G04 #@! TF.GenerationSoftware,KiCad,Pcbnew,(5.1.5)-3*
G04 #@! TF.CreationDate,2020-02-17T19:36:34-06:00*
G04 #@! TF.ProjectId,ledgrid_programmer,6c656467-7269-4645-9f70-726f6772616d,rev?*
G04 #@! TF.SameCoordinates,Original*
G04 #@! TF.FileFunction,Paste,Top*
G04 #@! TF.FilePolarity,Positive*
%FSLAX46Y46*%
G04 Gerber Fmt 4.6, Leading zero omitted, Abs format (unit mm)*
G04 Created by KiCad (PCBNEW (5.1.5)-3) date 2020-02-17 19:36:34*
%MOMM*%
%LPD*%
G04 APERTURE LIST*
%ADD10C,0.100000*%
%ADD11R,0.450000X1.475000*%
G04 APERTURE END LIST*
D10*
G36*
X104074505Y-96551204D02*
G01*
X104098773Y-96554804D01*
X104122572Y-96560765D01*
X104145671Y-96569030D01*
X104167850Y-96579520D01*
X104188893Y-96592132D01*
X104208599Y-96606747D01*
X104226777Y-96623223D01*
X104243253Y-96641401D01*
X104257868Y-96661107D01*
X104270480Y-96682150D01*
X104280970Y-96704329D01*
X104289235Y-96727428D01*
X104295196Y-96751227D01*
X104298796Y-96775495D01*
X104300000Y-96799999D01*
X104300000Y-97700001D01*
X104298796Y-97724505D01*
X104295196Y-97748773D01*
X104289235Y-97772572D01*
X104280970Y-97795671D01*
X104270480Y-97817850D01*
X104257868Y-97838893D01*
X104243253Y-97858599D01*
X104226777Y-97876777D01*
X104208599Y-97893253D01*
X104188893Y-97907868D01*
X104167850Y-97920480D01*
X104145671Y-97930970D01*
X104122572Y-97939235D01*
X104098773Y-97945196D01*
X104074505Y-97948796D01*
X104050001Y-97950000D01*
X103399999Y-97950000D01*
X103375495Y-97948796D01*
X103351227Y-97945196D01*
X103327428Y-97939235D01*
X103304329Y-97930970D01*
X103282150Y-97920480D01*
X103261107Y-97907868D01*
X103241401Y-97893253D01*
X103223223Y-97876777D01*
X103206747Y-97858599D01*
X103192132Y-97838893D01*
X103179520Y-97817850D01*
X103169030Y-97795671D01*
X103160765Y-97772572D01*
X103154804Y-97748773D01*
X103151204Y-97724505D01*
X103150000Y-97700001D01*
X103150000Y-96799999D01*
X103151204Y-96775495D01*
X103154804Y-96751227D01*
X103160765Y-96727428D01*
X103169030Y-96704329D01*
X103179520Y-96682150D01*
X103192132Y-96661107D01*
X103206747Y-96641401D01*
X103223223Y-96623223D01*
X103241401Y-96606747D01*
X103261107Y-96592132D01*
X103282150Y-96579520D01*
X103304329Y-96569030D01*
X103327428Y-96560765D01*
X103351227Y-96554804D01*
X103375495Y-96551204D01*
X103399999Y-96550000D01*
X104050001Y-96550000D01*
X104074505Y-96551204D01*
G37*
G36*
X106124505Y-96551204D02*
G01*
X106148773Y-96554804D01*
X106172572Y-96560765D01*
X106195671Y-96569030D01*
X106217850Y-96579520D01*
X106238893Y-96592132D01*
X106258599Y-96606747D01*
X106276777Y-96623223D01*
X106293253Y-96641401D01*
X106307868Y-96661107D01*
X106320480Y-96682150D01*
X106330970Y-96704329D01*
X106339235Y-96727428D01*
X106345196Y-96751227D01*
X106348796Y-96775495D01*
X106350000Y-96799999D01*
X106350000Y-97700001D01*
X106348796Y-97724505D01*
X106345196Y-97748773D01*
X106339235Y-97772572D01*
X106330970Y-97795671D01*
X106320480Y-97817850D01*
X106307868Y-97838893D01*
X106293253Y-97858599D01*
X106276777Y-97876777D01*
X106258599Y-97893253D01*
X106238893Y-97907868D01*
X106217850Y-97920480D01*
X106195671Y-97930970D01*
X106172572Y-97939235D01*
X106148773Y-97945196D01*
X106124505Y-97948796D01*
X106100001Y-97950000D01*
X105449999Y-97950000D01*
X105425495Y-97948796D01*
X105401227Y-97945196D01*
X105377428Y-97939235D01*
X105354329Y-97930970D01*
X105332150Y-97920480D01*
X105311107Y-97907868D01*
X105291401Y-97893253D01*
X105273223Y-97876777D01*
X105256747Y-97858599D01*
X105242132Y-97838893D01*
X105229520Y-97817850D01*
X105219030Y-97795671D01*
X105210765Y-97772572D01*
X105204804Y-97748773D01*
X105201204Y-97724505D01*
X105200000Y-97700001D01*
X105200000Y-96799999D01*
X105201204Y-96775495D01*
X105204804Y-96751227D01*
X105210765Y-96727428D01*
X105219030Y-96704329D01*
X105229520Y-96682150D01*
X105242132Y-96661107D01*
X105256747Y-96641401D01*
X105273223Y-96623223D01*
X105291401Y-96606747D01*
X105311107Y-96592132D01*
X105332150Y-96579520D01*
X105354329Y-96569030D01*
X105377428Y-96560765D01*
X105401227Y-96554804D01*
X105425495Y-96551204D01*
X105449999Y-96550000D01*
X106100001Y-96550000D01*
X106124505Y-96551204D01*
G37*
D11*
X103675000Y-101562000D03*
X104325000Y-101562000D03*
X104975000Y-101562000D03*
X105625000Y-101562000D03*
X106275000Y-101562000D03*
X106925000Y-101562000D03*
X107575000Y-101562000D03*
X108225000Y-101562000D03*
X108875000Y-101562000D03*
X109525000Y-101562000D03*
X110175000Y-101562000D03*
X110825000Y-101562000D03*
X110825000Y-107438000D03*
X110175000Y-107438000D03*
X109525000Y-107438000D03*
X108875000Y-107438000D03*
X108225000Y-107438000D03*
X107575000Y-107438000D03*
X106925000Y-107438000D03*
X106275000Y-107438000D03*
X105625000Y-107438000D03*
X104975000Y-107438000D03*
X104325000Y-107438000D03*
X103675000Y-107438000D03*
M02*
