G04 #@! TF.GenerationSoftware,KiCad,Pcbnew,(5.1.5)-3*
G04 #@! TF.CreationDate,2020-02-17T19:36:34-06:00*
G04 #@! TF.ProjectId,ledgrid_programmer,6c656467-7269-4645-9f70-726f6772616d,rev?*
G04 #@! TF.SameCoordinates,Original*
G04 #@! TF.FileFunction,Legend,Top*
G04 #@! TF.FilePolarity,Positive*
%FSLAX46Y46*%
G04 Gerber Fmt 4.6, Leading zero omitted, Abs format (unit mm)*
G04 Created by KiCad (PCBNEW (5.1.5)-3) date 2020-02-17 19:36:34*
%MOMM*%
%LPD*%
G04 APERTURE LIST*
%ADD10C,0.150000*%
%ADD11C,0.100000*%
%ADD12C,0.120000*%
%ADD13C,0.200000*%
%ADD14C,0.254000*%
G04 APERTURE END LIST*
D10*
X93916666Y-96702380D02*
X93916666Y-95702380D01*
X94345238Y-96654761D02*
X94488095Y-96702380D01*
X94726190Y-96702380D01*
X94821428Y-96654761D01*
X94869047Y-96607142D01*
X94916666Y-96511904D01*
X94916666Y-96416666D01*
X94869047Y-96321428D01*
X94821428Y-96273809D01*
X94726190Y-96226190D01*
X94535714Y-96178571D01*
X94440476Y-96130952D01*
X94392857Y-96083333D01*
X94345238Y-95988095D01*
X94345238Y-95892857D01*
X94392857Y-95797619D01*
X94440476Y-95750000D01*
X94535714Y-95702380D01*
X94773809Y-95702380D01*
X94916666Y-95750000D01*
X95345238Y-96702380D02*
X95345238Y-95702380D01*
X95726190Y-95702380D01*
X95821428Y-95750000D01*
X95869047Y-95797619D01*
X95916666Y-95892857D01*
X95916666Y-96035714D01*
X95869047Y-96130952D01*
X95821428Y-96178571D01*
X95726190Y-96226190D01*
X95345238Y-96226190D01*
X97107142Y-96178571D02*
X97440476Y-96178571D01*
X97583333Y-96702380D02*
X97107142Y-96702380D01*
X97107142Y-95702380D01*
X97583333Y-95702380D01*
X98011904Y-96702380D02*
X98011904Y-95702380D01*
X98583333Y-96702380D01*
X98583333Y-95702380D01*
X81797619Y-96702380D02*
X81464285Y-96226190D01*
X81226190Y-96702380D02*
X81226190Y-95702380D01*
X81607142Y-95702380D01*
X81702380Y-95750000D01*
X81750000Y-95797619D01*
X81797619Y-95892857D01*
X81797619Y-96035714D01*
X81750000Y-96130952D01*
X81702380Y-96178571D01*
X81607142Y-96226190D01*
X81226190Y-96226190D01*
X82226190Y-96178571D02*
X82559523Y-96178571D01*
X82702380Y-96702380D02*
X82226190Y-96702380D01*
X82226190Y-95702380D01*
X82702380Y-95702380D01*
X83083333Y-96654761D02*
X83226190Y-96702380D01*
X83464285Y-96702380D01*
X83559523Y-96654761D01*
X83607142Y-96607142D01*
X83654761Y-96511904D01*
X83654761Y-96416666D01*
X83607142Y-96321428D01*
X83559523Y-96273809D01*
X83464285Y-96226190D01*
X83273809Y-96178571D01*
X83178571Y-96130952D01*
X83130952Y-96083333D01*
X83083333Y-95988095D01*
X83083333Y-95892857D01*
X83130952Y-95797619D01*
X83178571Y-95750000D01*
X83273809Y-95702380D01*
X83511904Y-95702380D01*
X83654761Y-95750000D01*
X84083333Y-96178571D02*
X84416666Y-96178571D01*
X84559523Y-96702380D02*
X84083333Y-96702380D01*
X84083333Y-95702380D01*
X84559523Y-95702380D01*
X84845238Y-95702380D02*
X85416666Y-95702380D01*
X85130952Y-96702380D02*
X85130952Y-95702380D01*
D11*
X90250000Y-103500000D02*
G75*
G02X102250000Y-103500000I6000000J0D01*
G01*
X102250000Y-103500000D02*
G75*
G02X90250000Y-103500000I-6000000J0D01*
G01*
X102250000Y-103500000D02*
X102250000Y-103500000D01*
X90250000Y-103500000D02*
X90250000Y-103500000D01*
X77250000Y-103500000D02*
G75*
G02X89250000Y-103500000I6000000J0D01*
G01*
X89250000Y-103500000D02*
G75*
G02X77250000Y-103500000I-6000000J0D01*
G01*
X89250000Y-103500000D02*
X89250000Y-103500000D01*
X77250000Y-103500000D02*
X77250000Y-103500000D01*
D12*
X105011252Y-96540000D02*
X104488748Y-96540000D01*
X105011252Y-97960000D02*
X104488748Y-97960000D01*
X126330000Y-107670000D02*
X126330000Y-107340000D01*
X119790000Y-107670000D02*
X126330000Y-107670000D01*
X119790000Y-107340000D02*
X119790000Y-107670000D01*
X126330000Y-104930000D02*
X126330000Y-105260000D01*
X119790000Y-104930000D02*
X126330000Y-104930000D01*
X119790000Y-105260000D02*
X119790000Y-104930000D01*
X126330000Y-103620000D02*
X126330000Y-103290000D01*
X119790000Y-103620000D02*
X126330000Y-103620000D01*
X119790000Y-103290000D02*
X119790000Y-103620000D01*
X126330000Y-100880000D02*
X126330000Y-101210000D01*
X119790000Y-100880000D02*
X126330000Y-100880000D01*
X119790000Y-101210000D02*
X119790000Y-100880000D01*
X78420000Y-78670000D02*
X79750000Y-78670000D01*
X78420000Y-80000000D02*
X78420000Y-78670000D01*
X78420000Y-81270000D02*
X81080000Y-81270000D01*
X81080000Y-81270000D02*
X81080000Y-94030000D01*
X78420000Y-81270000D02*
X78420000Y-94030000D01*
X78420000Y-94030000D02*
X81080000Y-94030000D01*
X99680000Y-78670000D02*
X95870000Y-78670000D01*
X99680000Y-94030000D02*
X99680000Y-78670000D01*
X90095000Y-94030000D02*
X99680000Y-94030000D01*
X90095000Y-78670000D02*
X90095000Y-94030000D01*
X93870000Y-78670000D02*
X90095000Y-78670000D01*
X95870000Y-78670000D02*
G75*
G02X93870000Y-78670000I-1000000J0D01*
G01*
X118050000Y-79950000D02*
X119380000Y-79950000D01*
X118050000Y-81280000D02*
X118050000Y-79950000D01*
X118050000Y-82550000D02*
X120710000Y-82550000D01*
X120710000Y-82550000D02*
X120710000Y-82610000D01*
X118050000Y-82550000D02*
X118050000Y-82610000D01*
X118050000Y-82610000D02*
X120710000Y-82610000D01*
X112970000Y-74870000D02*
X114300000Y-74870000D01*
X112970000Y-76200000D02*
X112970000Y-74870000D01*
X112970000Y-77470000D02*
X115630000Y-77470000D01*
X115630000Y-77470000D02*
X115630000Y-77530000D01*
X112970000Y-77470000D02*
X112970000Y-77530000D01*
X112970000Y-77530000D02*
X115630000Y-77530000D01*
X110430000Y-74870000D02*
X111760000Y-74870000D01*
X110430000Y-76200000D02*
X110430000Y-74870000D01*
X110430000Y-77470000D02*
X113090000Y-77470000D01*
X113090000Y-77470000D02*
X113090000Y-77530000D01*
X110430000Y-77470000D02*
X110430000Y-77530000D01*
X110430000Y-77530000D02*
X113090000Y-77530000D01*
X110430000Y-87570000D02*
X111760000Y-87570000D01*
X110430000Y-88900000D02*
X110430000Y-87570000D01*
X110430000Y-90170000D02*
X113090000Y-90170000D01*
X113090000Y-90170000D02*
X113090000Y-90230000D01*
X110430000Y-90170000D02*
X110430000Y-90230000D01*
X110430000Y-90230000D02*
X113090000Y-90230000D01*
X118050000Y-90110000D02*
X119380000Y-90110000D01*
X118050000Y-91440000D02*
X118050000Y-90110000D01*
X118050000Y-92710000D02*
X120710000Y-92710000D01*
X120710000Y-92710000D02*
X120710000Y-92770000D01*
X118050000Y-92710000D02*
X118050000Y-92770000D01*
X118050000Y-92770000D02*
X120710000Y-92770000D01*
X118050000Y-92650000D02*
X119380000Y-92650000D01*
X118050000Y-93980000D02*
X118050000Y-92650000D01*
X118050000Y-95250000D02*
X120710000Y-95250000D01*
X120710000Y-95250000D02*
X120710000Y-95310000D01*
X118050000Y-95250000D02*
X118050000Y-95310000D01*
X118050000Y-95310000D02*
X120710000Y-95310000D01*
X110430000Y-92650000D02*
X111760000Y-92650000D01*
X110430000Y-93980000D02*
X110430000Y-92650000D01*
X110430000Y-95250000D02*
X113090000Y-95250000D01*
X113090000Y-95250000D02*
X113090000Y-95310000D01*
X110430000Y-95250000D02*
X110430000Y-95310000D01*
X110430000Y-95310000D02*
X113090000Y-95310000D01*
X107890000Y-87570000D02*
X109220000Y-87570000D01*
X107890000Y-88900000D02*
X107890000Y-87570000D01*
X107890000Y-90170000D02*
X110550000Y-90170000D01*
X110550000Y-90170000D02*
X110550000Y-90230000D01*
X107890000Y-90170000D02*
X107890000Y-90230000D01*
X107890000Y-90230000D02*
X110550000Y-90230000D01*
D13*
X103100000Y-108175000D02*
X103100000Y-106700000D01*
X111150000Y-106350000D02*
X103350000Y-106350000D01*
X111150000Y-102650000D02*
X111150000Y-106350000D01*
X103350000Y-102650000D02*
X111150000Y-102650000D01*
X103350000Y-106350000D02*
X103350000Y-102650000D01*
D14*
X95282380Y-104014047D02*
X95463809Y-104074523D01*
X95766190Y-104074523D01*
X95887142Y-104014047D01*
X95947619Y-103953571D01*
X96008095Y-103832619D01*
X96008095Y-103711666D01*
X95947619Y-103590714D01*
X95887142Y-103530238D01*
X95766190Y-103469761D01*
X95524285Y-103409285D01*
X95403333Y-103348809D01*
X95342857Y-103288333D01*
X95282380Y-103167380D01*
X95282380Y-103046428D01*
X95342857Y-102925476D01*
X95403333Y-102865000D01*
X95524285Y-102804523D01*
X95826666Y-102804523D01*
X96008095Y-102865000D01*
X96491904Y-102925476D02*
X96552380Y-102865000D01*
X96673333Y-102804523D01*
X96975714Y-102804523D01*
X97096666Y-102865000D01*
X97157142Y-102925476D01*
X97217619Y-103046428D01*
X97217619Y-103167380D01*
X97157142Y-103348809D01*
X96431428Y-104074523D01*
X97217619Y-104074523D01*
X82282380Y-104014047D02*
X82463809Y-104074523D01*
X82766190Y-104074523D01*
X82887142Y-104014047D01*
X82947619Y-103953571D01*
X83008095Y-103832619D01*
X83008095Y-103711666D01*
X82947619Y-103590714D01*
X82887142Y-103530238D01*
X82766190Y-103469761D01*
X82524285Y-103409285D01*
X82403333Y-103348809D01*
X82342857Y-103288333D01*
X82282380Y-103167380D01*
X82282380Y-103046428D01*
X82342857Y-102925476D01*
X82403333Y-102865000D01*
X82524285Y-102804523D01*
X82826666Y-102804523D01*
X83008095Y-102865000D01*
X84217619Y-104074523D02*
X83491904Y-104074523D01*
X83854761Y-104074523D02*
X83854761Y-102804523D01*
X83733809Y-102985952D01*
X83612857Y-103106904D01*
X83491904Y-103167380D01*
D10*
X104583333Y-99257142D02*
X104535714Y-99304761D01*
X104392857Y-99352380D01*
X104297619Y-99352380D01*
X104154761Y-99304761D01*
X104059523Y-99209523D01*
X104011904Y-99114285D01*
X103964285Y-98923809D01*
X103964285Y-98780952D01*
X104011904Y-98590476D01*
X104059523Y-98495238D01*
X104154761Y-98400000D01*
X104297619Y-98352380D01*
X104392857Y-98352380D01*
X104535714Y-98400000D01*
X104583333Y-98447619D01*
X105535714Y-99352380D02*
X104964285Y-99352380D01*
X105250000Y-99352380D02*
X105250000Y-98352380D01*
X105154761Y-98495238D01*
X105059523Y-98590476D01*
X104964285Y-98638095D01*
X122893333Y-104382380D02*
X122560000Y-103906190D01*
X122321904Y-104382380D02*
X122321904Y-103382380D01*
X122702857Y-103382380D01*
X122798095Y-103430000D01*
X122845714Y-103477619D01*
X122893333Y-103572857D01*
X122893333Y-103715714D01*
X122845714Y-103810952D01*
X122798095Y-103858571D01*
X122702857Y-103906190D01*
X122321904Y-103906190D01*
X123274285Y-103477619D02*
X123321904Y-103430000D01*
X123417142Y-103382380D01*
X123655238Y-103382380D01*
X123750476Y-103430000D01*
X123798095Y-103477619D01*
X123845714Y-103572857D01*
X123845714Y-103668095D01*
X123798095Y-103810952D01*
X123226666Y-104382380D01*
X123845714Y-104382380D01*
X122893333Y-100332380D02*
X122560000Y-99856190D01*
X122321904Y-100332380D02*
X122321904Y-99332380D01*
X122702857Y-99332380D01*
X122798095Y-99380000D01*
X122845714Y-99427619D01*
X122893333Y-99522857D01*
X122893333Y-99665714D01*
X122845714Y-99760952D01*
X122798095Y-99808571D01*
X122702857Y-99856190D01*
X122321904Y-99856190D01*
X123845714Y-100332380D02*
X123274285Y-100332380D01*
X123560000Y-100332380D02*
X123560000Y-99332380D01*
X123464761Y-99475238D01*
X123369523Y-99570476D01*
X123274285Y-99618095D01*
X79416666Y-77122380D02*
X79416666Y-77836666D01*
X79369047Y-77979523D01*
X79273809Y-78074761D01*
X79130952Y-78122380D01*
X79035714Y-78122380D01*
X79845238Y-77217619D02*
X79892857Y-77170000D01*
X79988095Y-77122380D01*
X80226190Y-77122380D01*
X80321428Y-77170000D01*
X80369047Y-77217619D01*
X80416666Y-77312857D01*
X80416666Y-77408095D01*
X80369047Y-77550952D01*
X79797619Y-78122380D01*
X80416666Y-78122380D01*
X93790476Y-76912380D02*
X93790476Y-77626666D01*
X93742857Y-77769523D01*
X93647619Y-77864761D01*
X93504761Y-77912380D01*
X93409523Y-77912380D01*
X94790476Y-77912380D02*
X94219047Y-77912380D01*
X94504761Y-77912380D02*
X94504761Y-76912380D01*
X94409523Y-77055238D01*
X94314285Y-77150476D01*
X94219047Y-77198095D01*
X95742857Y-77912380D02*
X95171428Y-77912380D01*
X95457142Y-77912380D02*
X95457142Y-76912380D01*
X95361904Y-77055238D01*
X95266666Y-77150476D01*
X95171428Y-77198095D01*
X118570476Y-78402380D02*
X118570476Y-79116666D01*
X118522857Y-79259523D01*
X118427619Y-79354761D01*
X118284761Y-79402380D01*
X118189523Y-79402380D01*
X119570476Y-79402380D02*
X118999047Y-79402380D01*
X119284761Y-79402380D02*
X119284761Y-78402380D01*
X119189523Y-78545238D01*
X119094285Y-78640476D01*
X118999047Y-78688095D01*
X120189523Y-78402380D02*
X120284761Y-78402380D01*
X120380000Y-78450000D01*
X120427619Y-78497619D01*
X120475238Y-78592857D01*
X120522857Y-78783333D01*
X120522857Y-79021428D01*
X120475238Y-79211904D01*
X120427619Y-79307142D01*
X120380000Y-79354761D01*
X120284761Y-79402380D01*
X120189523Y-79402380D01*
X120094285Y-79354761D01*
X120046666Y-79307142D01*
X119999047Y-79211904D01*
X119951428Y-79021428D01*
X119951428Y-78783333D01*
X119999047Y-78592857D01*
X120046666Y-78497619D01*
X120094285Y-78450000D01*
X120189523Y-78402380D01*
X113966666Y-73322380D02*
X113966666Y-74036666D01*
X113919047Y-74179523D01*
X113823809Y-74274761D01*
X113680952Y-74322380D01*
X113585714Y-74322380D01*
X114490476Y-74322380D02*
X114680952Y-74322380D01*
X114776190Y-74274761D01*
X114823809Y-74227142D01*
X114919047Y-74084285D01*
X114966666Y-73893809D01*
X114966666Y-73512857D01*
X114919047Y-73417619D01*
X114871428Y-73370000D01*
X114776190Y-73322380D01*
X114585714Y-73322380D01*
X114490476Y-73370000D01*
X114442857Y-73417619D01*
X114395238Y-73512857D01*
X114395238Y-73750952D01*
X114442857Y-73846190D01*
X114490476Y-73893809D01*
X114585714Y-73941428D01*
X114776190Y-73941428D01*
X114871428Y-73893809D01*
X114919047Y-73846190D01*
X114966666Y-73750952D01*
X111426666Y-73322380D02*
X111426666Y-74036666D01*
X111379047Y-74179523D01*
X111283809Y-74274761D01*
X111140952Y-74322380D01*
X111045714Y-74322380D01*
X112045714Y-73750952D02*
X111950476Y-73703333D01*
X111902857Y-73655714D01*
X111855238Y-73560476D01*
X111855238Y-73512857D01*
X111902857Y-73417619D01*
X111950476Y-73370000D01*
X112045714Y-73322380D01*
X112236190Y-73322380D01*
X112331428Y-73370000D01*
X112379047Y-73417619D01*
X112426666Y-73512857D01*
X112426666Y-73560476D01*
X112379047Y-73655714D01*
X112331428Y-73703333D01*
X112236190Y-73750952D01*
X112045714Y-73750952D01*
X111950476Y-73798571D01*
X111902857Y-73846190D01*
X111855238Y-73941428D01*
X111855238Y-74131904D01*
X111902857Y-74227142D01*
X111950476Y-74274761D01*
X112045714Y-74322380D01*
X112236190Y-74322380D01*
X112331428Y-74274761D01*
X112379047Y-74227142D01*
X112426666Y-74131904D01*
X112426666Y-73941428D01*
X112379047Y-73846190D01*
X112331428Y-73798571D01*
X112236190Y-73750952D01*
X111426666Y-86022380D02*
X111426666Y-86736666D01*
X111379047Y-86879523D01*
X111283809Y-86974761D01*
X111140952Y-87022380D01*
X111045714Y-87022380D01*
X111807619Y-86022380D02*
X112474285Y-86022380D01*
X112045714Y-87022380D01*
X119046666Y-88562380D02*
X119046666Y-89276666D01*
X118999047Y-89419523D01*
X118903809Y-89514761D01*
X118760952Y-89562380D01*
X118665714Y-89562380D01*
X119951428Y-88562380D02*
X119760952Y-88562380D01*
X119665714Y-88610000D01*
X119618095Y-88657619D01*
X119522857Y-88800476D01*
X119475238Y-88990952D01*
X119475238Y-89371904D01*
X119522857Y-89467142D01*
X119570476Y-89514761D01*
X119665714Y-89562380D01*
X119856190Y-89562380D01*
X119951428Y-89514761D01*
X119999047Y-89467142D01*
X120046666Y-89371904D01*
X120046666Y-89133809D01*
X119999047Y-89038571D01*
X119951428Y-88990952D01*
X119856190Y-88943333D01*
X119665714Y-88943333D01*
X119570476Y-88990952D01*
X119522857Y-89038571D01*
X119475238Y-89133809D01*
X119046666Y-91102380D02*
X119046666Y-91816666D01*
X118999047Y-91959523D01*
X118903809Y-92054761D01*
X118760952Y-92102380D01*
X118665714Y-92102380D01*
X119951428Y-91435714D02*
X119951428Y-92102380D01*
X119713333Y-91054761D02*
X119475238Y-91769047D01*
X120094285Y-91769047D01*
X111426666Y-91102380D02*
X111426666Y-91816666D01*
X111379047Y-91959523D01*
X111283809Y-92054761D01*
X111140952Y-92102380D01*
X111045714Y-92102380D01*
X111807619Y-91102380D02*
X112426666Y-91102380D01*
X112093333Y-91483333D01*
X112236190Y-91483333D01*
X112331428Y-91530952D01*
X112379047Y-91578571D01*
X112426666Y-91673809D01*
X112426666Y-91911904D01*
X112379047Y-92007142D01*
X112331428Y-92054761D01*
X112236190Y-92102380D01*
X111950476Y-92102380D01*
X111855238Y-92054761D01*
X111807619Y-92007142D01*
X108886666Y-86022380D02*
X108886666Y-86736666D01*
X108839047Y-86879523D01*
X108743809Y-86974761D01*
X108600952Y-87022380D01*
X108505714Y-87022380D01*
X109886666Y-87022380D02*
X109315238Y-87022380D01*
X109600952Y-87022380D02*
X109600952Y-86022380D01*
X109505714Y-86165238D01*
X109410476Y-86260476D01*
X109315238Y-86308095D01*
D14*
X107824523Y-105739761D02*
X106554523Y-105739761D01*
X107703571Y-104409285D02*
X107764047Y-104469761D01*
X107824523Y-104651190D01*
X107824523Y-104772142D01*
X107764047Y-104953571D01*
X107643095Y-105074523D01*
X107522142Y-105135000D01*
X107280238Y-105195476D01*
X107098809Y-105195476D01*
X106856904Y-105135000D01*
X106735952Y-105074523D01*
X106615000Y-104953571D01*
X106554523Y-104772142D01*
X106554523Y-104651190D01*
X106615000Y-104469761D01*
X106675476Y-104409285D01*
X107824523Y-103199761D02*
X107824523Y-103925476D01*
X107824523Y-103562619D02*
X106554523Y-103562619D01*
X106735952Y-103683571D01*
X106856904Y-103804523D01*
X106917380Y-103925476D01*
M02*
