G04 #@! TF.GenerationSoftware,KiCad,Pcbnew,(5.1.5)-3*
G04 #@! TF.CreationDate,2020-01-18T10:24:30-06:00*
G04 #@! TF.ProjectId,ledgrid,6c656467-7269-4642-9e6b-696361645f70,rev?*
G04 #@! TF.SameCoordinates,Original*
G04 #@! TF.FileFunction,Soldermask,Bot*
G04 #@! TF.FilePolarity,Negative*
%FSLAX46Y46*%
G04 Gerber Fmt 4.6, Leading zero omitted, Abs format (unit mm)*
G04 Created by KiCad (PCBNEW (5.1.5)-3) date 2020-01-18 10:24:30*
%MOMM*%
%LPD*%
G04 APERTURE LIST*
%ADD10C,0.100000*%
G04 APERTURE END LIST*
D10*
G36*
X167613512Y-137143927D02*
G01*
X167762812Y-137173624D01*
X167926784Y-137241544D01*
X168074354Y-137340147D01*
X168199853Y-137465646D01*
X168298456Y-137613216D01*
X168366376Y-137777188D01*
X168401000Y-137951259D01*
X168401000Y-138128741D01*
X168366376Y-138302812D01*
X168298456Y-138466784D01*
X168199853Y-138614354D01*
X168074354Y-138739853D01*
X167926784Y-138838456D01*
X167762812Y-138906376D01*
X167613512Y-138936073D01*
X167588742Y-138941000D01*
X167411258Y-138941000D01*
X167386488Y-138936073D01*
X167237188Y-138906376D01*
X167073216Y-138838456D01*
X166925646Y-138739853D01*
X166800147Y-138614354D01*
X166701544Y-138466784D01*
X166633624Y-138302812D01*
X166599000Y-138128741D01*
X166599000Y-137951259D01*
X166633624Y-137777188D01*
X166701544Y-137613216D01*
X166800147Y-137465646D01*
X166925646Y-137340147D01*
X167073216Y-137241544D01*
X167237188Y-137173624D01*
X167386488Y-137143927D01*
X167411258Y-137139000D01*
X167588742Y-137139000D01*
X167613512Y-137143927D01*
G37*
G36*
X152073512Y-137143927D02*
G01*
X152222812Y-137173624D01*
X152386784Y-137241544D01*
X152534354Y-137340147D01*
X152659853Y-137465646D01*
X152758456Y-137613216D01*
X152826376Y-137777188D01*
X152861000Y-137951259D01*
X152861000Y-138128741D01*
X152826376Y-138302812D01*
X152758456Y-138466784D01*
X152659853Y-138614354D01*
X152534354Y-138739853D01*
X152386784Y-138838456D01*
X152222812Y-138906376D01*
X152073512Y-138936073D01*
X152048742Y-138941000D01*
X151871258Y-138941000D01*
X151846488Y-138936073D01*
X151697188Y-138906376D01*
X151533216Y-138838456D01*
X151385646Y-138739853D01*
X151260147Y-138614354D01*
X151161544Y-138466784D01*
X151093624Y-138302812D01*
X151059000Y-138128741D01*
X151059000Y-137951259D01*
X151093624Y-137777188D01*
X151161544Y-137613216D01*
X151260147Y-137465646D01*
X151385646Y-137340147D01*
X151533216Y-137241544D01*
X151697188Y-137173624D01*
X151846488Y-137143927D01*
X151871258Y-137139000D01*
X152048742Y-137139000D01*
X152073512Y-137143927D01*
G37*
G36*
X154613512Y-137143927D02*
G01*
X154762812Y-137173624D01*
X154926784Y-137241544D01*
X155074354Y-137340147D01*
X155199853Y-137465646D01*
X155298456Y-137613216D01*
X155366376Y-137777188D01*
X155401000Y-137951259D01*
X155401000Y-138128741D01*
X155366376Y-138302812D01*
X155298456Y-138466784D01*
X155199853Y-138614354D01*
X155074354Y-138739853D01*
X154926784Y-138838456D01*
X154762812Y-138906376D01*
X154613512Y-138936073D01*
X154588742Y-138941000D01*
X154411258Y-138941000D01*
X154386488Y-138936073D01*
X154237188Y-138906376D01*
X154073216Y-138838456D01*
X153925646Y-138739853D01*
X153800147Y-138614354D01*
X153701544Y-138466784D01*
X153633624Y-138302812D01*
X153599000Y-138128741D01*
X153599000Y-137951259D01*
X153633624Y-137777188D01*
X153701544Y-137613216D01*
X153800147Y-137465646D01*
X153925646Y-137340147D01*
X154073216Y-137241544D01*
X154237188Y-137173624D01*
X154386488Y-137143927D01*
X154411258Y-137139000D01*
X154588742Y-137139000D01*
X154613512Y-137143927D01*
G37*
G36*
X165073512Y-137143927D02*
G01*
X165222812Y-137173624D01*
X165386784Y-137241544D01*
X165534354Y-137340147D01*
X165659853Y-137465646D01*
X165758456Y-137613216D01*
X165826376Y-137777188D01*
X165861000Y-137951259D01*
X165861000Y-138128741D01*
X165826376Y-138302812D01*
X165758456Y-138466784D01*
X165659853Y-138614354D01*
X165534354Y-138739853D01*
X165386784Y-138838456D01*
X165222812Y-138906376D01*
X165073512Y-138936073D01*
X165048742Y-138941000D01*
X164871258Y-138941000D01*
X164846488Y-138936073D01*
X164697188Y-138906376D01*
X164533216Y-138838456D01*
X164385646Y-138739853D01*
X164260147Y-138614354D01*
X164161544Y-138466784D01*
X164093624Y-138302812D01*
X164059000Y-138128741D01*
X164059000Y-137951259D01*
X164093624Y-137777188D01*
X164161544Y-137613216D01*
X164260147Y-137465646D01*
X164385646Y-137340147D01*
X164533216Y-137241544D01*
X164697188Y-137173624D01*
X164846488Y-137143927D01*
X164871258Y-137139000D01*
X165048742Y-137139000D01*
X165073512Y-137143927D01*
G37*
G36*
X165073512Y-134603927D02*
G01*
X165222812Y-134633624D01*
X165386784Y-134701544D01*
X165534354Y-134800147D01*
X165659853Y-134925646D01*
X165758456Y-135073216D01*
X165826376Y-135237188D01*
X165861000Y-135411259D01*
X165861000Y-135588741D01*
X165826376Y-135762812D01*
X165758456Y-135926784D01*
X165659853Y-136074354D01*
X165534354Y-136199853D01*
X165386784Y-136298456D01*
X165222812Y-136366376D01*
X165073512Y-136396073D01*
X165048742Y-136401000D01*
X164871258Y-136401000D01*
X164846488Y-136396073D01*
X164697188Y-136366376D01*
X164533216Y-136298456D01*
X164385646Y-136199853D01*
X164260147Y-136074354D01*
X164161544Y-135926784D01*
X164093624Y-135762812D01*
X164059000Y-135588741D01*
X164059000Y-135411259D01*
X164093624Y-135237188D01*
X164161544Y-135073216D01*
X164260147Y-134925646D01*
X164385646Y-134800147D01*
X164533216Y-134701544D01*
X164697188Y-134633624D01*
X164846488Y-134603927D01*
X164871258Y-134599000D01*
X165048742Y-134599000D01*
X165073512Y-134603927D01*
G37*
G36*
X155401000Y-136401000D02*
G01*
X153599000Y-136401000D01*
X153599000Y-134599000D01*
X155401000Y-134599000D01*
X155401000Y-136401000D01*
G37*
G36*
X152073512Y-134603927D02*
G01*
X152222812Y-134633624D01*
X152386784Y-134701544D01*
X152534354Y-134800147D01*
X152659853Y-134925646D01*
X152758456Y-135073216D01*
X152826376Y-135237188D01*
X152861000Y-135411259D01*
X152861000Y-135588741D01*
X152826376Y-135762812D01*
X152758456Y-135926784D01*
X152659853Y-136074354D01*
X152534354Y-136199853D01*
X152386784Y-136298456D01*
X152222812Y-136366376D01*
X152073512Y-136396073D01*
X152048742Y-136401000D01*
X151871258Y-136401000D01*
X151846488Y-136396073D01*
X151697188Y-136366376D01*
X151533216Y-136298456D01*
X151385646Y-136199853D01*
X151260147Y-136074354D01*
X151161544Y-135926784D01*
X151093624Y-135762812D01*
X151059000Y-135588741D01*
X151059000Y-135411259D01*
X151093624Y-135237188D01*
X151161544Y-135073216D01*
X151260147Y-134925646D01*
X151385646Y-134800147D01*
X151533216Y-134701544D01*
X151697188Y-134633624D01*
X151846488Y-134603927D01*
X151871258Y-134599000D01*
X152048742Y-134599000D01*
X152073512Y-134603927D01*
G37*
G36*
X168401000Y-136401000D02*
G01*
X166599000Y-136401000D01*
X166599000Y-134599000D01*
X168401000Y-134599000D01*
X168401000Y-136401000D01*
G37*
G36*
X115134239Y-125811467D02*
G01*
X115448282Y-125873934D01*
X116039926Y-126119001D01*
X116572392Y-126474784D01*
X117025216Y-126927608D01*
X117380999Y-127460074D01*
X117626066Y-128051718D01*
X117751000Y-128679804D01*
X117751000Y-129320196D01*
X117626066Y-129948282D01*
X117380999Y-130539926D01*
X117025216Y-131072392D01*
X116572392Y-131525216D01*
X116039926Y-131880999D01*
X115448282Y-132126066D01*
X115134239Y-132188533D01*
X114820197Y-132251000D01*
X114179803Y-132251000D01*
X113865761Y-132188533D01*
X113551718Y-132126066D01*
X112960074Y-131880999D01*
X112427608Y-131525216D01*
X111974784Y-131072392D01*
X111619001Y-130539926D01*
X111373934Y-129948282D01*
X111249000Y-129320196D01*
X111249000Y-128679804D01*
X111373934Y-128051718D01*
X111619001Y-127460074D01*
X111974784Y-126927608D01*
X112427608Y-126474784D01*
X112960074Y-126119001D01*
X113551718Y-125873934D01*
X113865761Y-125811467D01*
X114179803Y-125749000D01*
X114820197Y-125749000D01*
X115134239Y-125811467D01*
G37*
G36*
X150020721Y-95990174D02*
G01*
X150120995Y-96031709D01*
X150120996Y-96031710D01*
X150211242Y-96092010D01*
X150287990Y-96168758D01*
X150287991Y-96168760D01*
X150348291Y-96259005D01*
X150389826Y-96359279D01*
X150411000Y-96465730D01*
X150411000Y-96574270D01*
X150389826Y-96680721D01*
X150348291Y-96780995D01*
X150348290Y-96780996D01*
X150287990Y-96871242D01*
X150211242Y-96947990D01*
X150165812Y-96978345D01*
X150120995Y-97008291D01*
X150020721Y-97049826D01*
X149914270Y-97071000D01*
X149805730Y-97071000D01*
X149699279Y-97049826D01*
X149599005Y-97008291D01*
X149554188Y-96978345D01*
X149508758Y-96947990D01*
X149432010Y-96871242D01*
X149371710Y-96780996D01*
X149371709Y-96780995D01*
X149330174Y-96680721D01*
X149309000Y-96574270D01*
X149309000Y-96465730D01*
X149330174Y-96359279D01*
X149371709Y-96259005D01*
X149432009Y-96168760D01*
X149432010Y-96168758D01*
X149508758Y-96092010D01*
X149599004Y-96031710D01*
X149599005Y-96031709D01*
X149699279Y-95990174D01*
X149805730Y-95969000D01*
X149914270Y-95969000D01*
X150020721Y-95990174D01*
G37*
G36*
X157640721Y-95990174D02*
G01*
X157740995Y-96031709D01*
X157740996Y-96031710D01*
X157831242Y-96092010D01*
X157907990Y-96168758D01*
X157907991Y-96168760D01*
X157968291Y-96259005D01*
X158009826Y-96359279D01*
X158031000Y-96465730D01*
X158031000Y-96574270D01*
X158009826Y-96680721D01*
X157968291Y-96780995D01*
X157968290Y-96780996D01*
X157907990Y-96871242D01*
X157831242Y-96947990D01*
X157785812Y-96978345D01*
X157740995Y-97008291D01*
X157640721Y-97049826D01*
X157534270Y-97071000D01*
X157425730Y-97071000D01*
X157319279Y-97049826D01*
X157219005Y-97008291D01*
X157174188Y-96978345D01*
X157128758Y-96947990D01*
X157052010Y-96871242D01*
X156991710Y-96780996D01*
X156991709Y-96780995D01*
X156950174Y-96680721D01*
X156929000Y-96574270D01*
X156929000Y-96465730D01*
X156950174Y-96359279D01*
X156991709Y-96259005D01*
X157052009Y-96168760D01*
X157052010Y-96168758D01*
X157128758Y-96092010D01*
X157219004Y-96031710D01*
X157219005Y-96031709D01*
X157319279Y-95990174D01*
X157425730Y-95969000D01*
X157534270Y-95969000D01*
X157640721Y-95990174D01*
G37*
G36*
X157640721Y-93450174D02*
G01*
X157740995Y-93491709D01*
X157740996Y-93491710D01*
X157831242Y-93552010D01*
X157907990Y-93628758D01*
X157907991Y-93628760D01*
X157968291Y-93719005D01*
X158009826Y-93819279D01*
X158031000Y-93925730D01*
X158031000Y-94034270D01*
X158009826Y-94140721D01*
X157968291Y-94240995D01*
X157968290Y-94240996D01*
X157907990Y-94331242D01*
X157831242Y-94407990D01*
X157785812Y-94438345D01*
X157740995Y-94468291D01*
X157640721Y-94509826D01*
X157534270Y-94531000D01*
X157425730Y-94531000D01*
X157319279Y-94509826D01*
X157219005Y-94468291D01*
X157174188Y-94438345D01*
X157128758Y-94407990D01*
X157052010Y-94331242D01*
X156991710Y-94240996D01*
X156991709Y-94240995D01*
X156950174Y-94140721D01*
X156929000Y-94034270D01*
X156929000Y-93925730D01*
X156950174Y-93819279D01*
X156991709Y-93719005D01*
X157052009Y-93628760D01*
X157052010Y-93628758D01*
X157128758Y-93552010D01*
X157219004Y-93491710D01*
X157219005Y-93491709D01*
X157319279Y-93450174D01*
X157425730Y-93429000D01*
X157534270Y-93429000D01*
X157640721Y-93450174D01*
G37*
G36*
X147480721Y-90910174D02*
G01*
X147580995Y-90951709D01*
X147580996Y-90951710D01*
X147671242Y-91012010D01*
X147747990Y-91088758D01*
X147747991Y-91088760D01*
X147808291Y-91179005D01*
X147849826Y-91279279D01*
X147871000Y-91385730D01*
X147871000Y-91494270D01*
X147849826Y-91600721D01*
X147808291Y-91700995D01*
X147808290Y-91700996D01*
X147747990Y-91791242D01*
X147671242Y-91867990D01*
X147625812Y-91898345D01*
X147580995Y-91928291D01*
X147480721Y-91969826D01*
X147374270Y-91991000D01*
X147265730Y-91991000D01*
X147159279Y-91969826D01*
X147059005Y-91928291D01*
X147014188Y-91898345D01*
X146968758Y-91867990D01*
X146892010Y-91791242D01*
X146831710Y-91700996D01*
X146831709Y-91700995D01*
X146790174Y-91600721D01*
X146769000Y-91494270D01*
X146769000Y-91385730D01*
X146790174Y-91279279D01*
X146831709Y-91179005D01*
X146892009Y-91088760D01*
X146892010Y-91088758D01*
X146968758Y-91012010D01*
X147059004Y-90951710D01*
X147059005Y-90951709D01*
X147159279Y-90910174D01*
X147265730Y-90889000D01*
X147374270Y-90889000D01*
X147480721Y-90910174D01*
G37*
G36*
X150020721Y-90910174D02*
G01*
X150120995Y-90951709D01*
X150120996Y-90951710D01*
X150211242Y-91012010D01*
X150287990Y-91088758D01*
X150287991Y-91088760D01*
X150348291Y-91179005D01*
X150389826Y-91279279D01*
X150411000Y-91385730D01*
X150411000Y-91494270D01*
X150389826Y-91600721D01*
X150348291Y-91700995D01*
X150348290Y-91700996D01*
X150287990Y-91791242D01*
X150211242Y-91867990D01*
X150165812Y-91898345D01*
X150120995Y-91928291D01*
X150020721Y-91969826D01*
X149914270Y-91991000D01*
X149805730Y-91991000D01*
X149699279Y-91969826D01*
X149599005Y-91928291D01*
X149554188Y-91898345D01*
X149508758Y-91867990D01*
X149432010Y-91791242D01*
X149371710Y-91700996D01*
X149371709Y-91700995D01*
X149330174Y-91600721D01*
X149309000Y-91494270D01*
X149309000Y-91385730D01*
X149330174Y-91279279D01*
X149371709Y-91179005D01*
X149432009Y-91088760D01*
X149432010Y-91088758D01*
X149508758Y-91012010D01*
X149599004Y-90951710D01*
X149599005Y-90951709D01*
X149699279Y-90910174D01*
X149805730Y-90889000D01*
X149914270Y-90889000D01*
X150020721Y-90910174D01*
G37*
G36*
X197363512Y-89893927D02*
G01*
X197512812Y-89923624D01*
X197676784Y-89991544D01*
X197824354Y-90090147D01*
X197949853Y-90215646D01*
X198048456Y-90363216D01*
X198116376Y-90527188D01*
X198143044Y-90661259D01*
X198151000Y-90701258D01*
X198151000Y-90878742D01*
X198146073Y-90903512D01*
X198116376Y-91052812D01*
X198048456Y-91216784D01*
X197949853Y-91364354D01*
X197824354Y-91489853D01*
X197676784Y-91588456D01*
X197512812Y-91656376D01*
X197363512Y-91686073D01*
X197338742Y-91691000D01*
X197161258Y-91691000D01*
X197136488Y-91686073D01*
X196987188Y-91656376D01*
X196823216Y-91588456D01*
X196675646Y-91489853D01*
X196550147Y-91364354D01*
X196451544Y-91216784D01*
X196383624Y-91052812D01*
X196353927Y-90903512D01*
X196349000Y-90878742D01*
X196349000Y-90701258D01*
X196356956Y-90661259D01*
X196383624Y-90527188D01*
X196451544Y-90363216D01*
X196550147Y-90215646D01*
X196675646Y-90090147D01*
X196823216Y-89991544D01*
X196987188Y-89923624D01*
X197136488Y-89893927D01*
X197161258Y-89889000D01*
X197338742Y-89889000D01*
X197363512Y-89893927D01*
G37*
G36*
X199903512Y-89893927D02*
G01*
X200052812Y-89923624D01*
X200216784Y-89991544D01*
X200364354Y-90090147D01*
X200489853Y-90215646D01*
X200588456Y-90363216D01*
X200656376Y-90527188D01*
X200683044Y-90661259D01*
X200691000Y-90701258D01*
X200691000Y-90878742D01*
X200686073Y-90903512D01*
X200656376Y-91052812D01*
X200588456Y-91216784D01*
X200489853Y-91364354D01*
X200364354Y-91489853D01*
X200216784Y-91588456D01*
X200052812Y-91656376D01*
X199903512Y-91686073D01*
X199878742Y-91691000D01*
X199701258Y-91691000D01*
X199676488Y-91686073D01*
X199527188Y-91656376D01*
X199363216Y-91588456D01*
X199215646Y-91489853D01*
X199090147Y-91364354D01*
X198991544Y-91216784D01*
X198923624Y-91052812D01*
X198893927Y-90903512D01*
X198889000Y-90878742D01*
X198889000Y-90701258D01*
X198896956Y-90661259D01*
X198923624Y-90527188D01*
X198991544Y-90363216D01*
X199090147Y-90215646D01*
X199215646Y-90090147D01*
X199363216Y-89991544D01*
X199527188Y-89923624D01*
X199676488Y-89893927D01*
X199701258Y-89889000D01*
X199878742Y-89889000D01*
X199903512Y-89893927D01*
G37*
G36*
X106823512Y-89853927D02*
G01*
X106972812Y-89883624D01*
X107136784Y-89951544D01*
X107284354Y-90050147D01*
X107409853Y-90175646D01*
X107508456Y-90323216D01*
X107576376Y-90487188D01*
X107611000Y-90661259D01*
X107611000Y-90838741D01*
X107576376Y-91012812D01*
X107508456Y-91176784D01*
X107409853Y-91324354D01*
X107284354Y-91449853D01*
X107136784Y-91548456D01*
X106972812Y-91616376D01*
X106823512Y-91646073D01*
X106798742Y-91651000D01*
X106621258Y-91651000D01*
X106596488Y-91646073D01*
X106447188Y-91616376D01*
X106283216Y-91548456D01*
X106135646Y-91449853D01*
X106010147Y-91324354D01*
X105911544Y-91176784D01*
X105843624Y-91012812D01*
X105809000Y-90838741D01*
X105809000Y-90661259D01*
X105843624Y-90487188D01*
X105911544Y-90323216D01*
X106010147Y-90175646D01*
X106135646Y-90050147D01*
X106283216Y-89951544D01*
X106447188Y-89883624D01*
X106596488Y-89853927D01*
X106621258Y-89849000D01*
X106798742Y-89849000D01*
X106823512Y-89853927D01*
G37*
G36*
X110151000Y-91651000D02*
G01*
X108349000Y-91651000D01*
X108349000Y-89849000D01*
X110151000Y-89849000D01*
X110151000Y-91651000D01*
G37*
G36*
X199903512Y-87353927D02*
G01*
X200052812Y-87383624D01*
X200216784Y-87451544D01*
X200364354Y-87550147D01*
X200489853Y-87675646D01*
X200588456Y-87823216D01*
X200656376Y-87987188D01*
X200691000Y-88161259D01*
X200691000Y-88338741D01*
X200656376Y-88512812D01*
X200588456Y-88676784D01*
X200489853Y-88824354D01*
X200364354Y-88949853D01*
X200216784Y-89048456D01*
X200052812Y-89116376D01*
X199903512Y-89146073D01*
X199878742Y-89151000D01*
X199701258Y-89151000D01*
X199676488Y-89146073D01*
X199527188Y-89116376D01*
X199363216Y-89048456D01*
X199215646Y-88949853D01*
X199090147Y-88824354D01*
X198991544Y-88676784D01*
X198923624Y-88512812D01*
X198889000Y-88338741D01*
X198889000Y-88161259D01*
X198923624Y-87987188D01*
X198991544Y-87823216D01*
X199090147Y-87675646D01*
X199215646Y-87550147D01*
X199363216Y-87451544D01*
X199527188Y-87383624D01*
X199676488Y-87353927D01*
X199701258Y-87349000D01*
X199878742Y-87349000D01*
X199903512Y-87353927D01*
G37*
G36*
X198151000Y-89151000D02*
G01*
X196349000Y-89151000D01*
X196349000Y-87349000D01*
X198151000Y-87349000D01*
X198151000Y-89151000D01*
G37*
G36*
X106823512Y-87313927D02*
G01*
X106972812Y-87343624D01*
X107136784Y-87411544D01*
X107284354Y-87510147D01*
X107409853Y-87635646D01*
X107508456Y-87783216D01*
X107576376Y-87947188D01*
X107611000Y-88121259D01*
X107611000Y-88298741D01*
X107576376Y-88472812D01*
X107508456Y-88636784D01*
X107409853Y-88784354D01*
X107284354Y-88909853D01*
X107136784Y-89008456D01*
X106972812Y-89076376D01*
X106823512Y-89106073D01*
X106798742Y-89111000D01*
X106621258Y-89111000D01*
X106596488Y-89106073D01*
X106447188Y-89076376D01*
X106283216Y-89008456D01*
X106135646Y-88909853D01*
X106010147Y-88784354D01*
X105911544Y-88636784D01*
X105843624Y-88472812D01*
X105809000Y-88298741D01*
X105809000Y-88121259D01*
X105843624Y-87947188D01*
X105911544Y-87783216D01*
X106010147Y-87635646D01*
X106135646Y-87510147D01*
X106283216Y-87411544D01*
X106447188Y-87343624D01*
X106596488Y-87313927D01*
X106621258Y-87309000D01*
X106798742Y-87309000D01*
X106823512Y-87313927D01*
G37*
G36*
X109363512Y-87313927D02*
G01*
X109512812Y-87343624D01*
X109676784Y-87411544D01*
X109824354Y-87510147D01*
X109949853Y-87635646D01*
X110048456Y-87783216D01*
X110116376Y-87947188D01*
X110151000Y-88121259D01*
X110151000Y-88298741D01*
X110116376Y-88472812D01*
X110048456Y-88636784D01*
X109949853Y-88784354D01*
X109824354Y-88909853D01*
X109676784Y-89008456D01*
X109512812Y-89076376D01*
X109363512Y-89106073D01*
X109338742Y-89111000D01*
X109161258Y-89111000D01*
X109136488Y-89106073D01*
X108987188Y-89076376D01*
X108823216Y-89008456D01*
X108675646Y-88909853D01*
X108550147Y-88784354D01*
X108451544Y-88636784D01*
X108383624Y-88472812D01*
X108349000Y-88298741D01*
X108349000Y-88121259D01*
X108383624Y-87947188D01*
X108451544Y-87783216D01*
X108550147Y-87635646D01*
X108675646Y-87510147D01*
X108823216Y-87411544D01*
X108987188Y-87343624D01*
X109136488Y-87313927D01*
X109161258Y-87309000D01*
X109338742Y-87309000D01*
X109363512Y-87313927D01*
G37*
G36*
X157640721Y-83220174D02*
G01*
X157740995Y-83261709D01*
X157740996Y-83261710D01*
X157831242Y-83322010D01*
X157907990Y-83398758D01*
X157907991Y-83398760D01*
X157968291Y-83489005D01*
X158009826Y-83589279D01*
X158031000Y-83695730D01*
X158031000Y-83804270D01*
X158009826Y-83910721D01*
X157968291Y-84010995D01*
X157968290Y-84010996D01*
X157907990Y-84101242D01*
X157831242Y-84177990D01*
X157785812Y-84208345D01*
X157740995Y-84238291D01*
X157640721Y-84279826D01*
X157534270Y-84301000D01*
X157425730Y-84301000D01*
X157319279Y-84279826D01*
X157219005Y-84238291D01*
X157174188Y-84208345D01*
X157128758Y-84177990D01*
X157052010Y-84101242D01*
X156991710Y-84010996D01*
X156991709Y-84010995D01*
X156950174Y-83910721D01*
X156929000Y-83804270D01*
X156929000Y-83695730D01*
X156950174Y-83589279D01*
X156991709Y-83489005D01*
X157052009Y-83398760D01*
X157052010Y-83398758D01*
X157128758Y-83322010D01*
X157219004Y-83261710D01*
X157219005Y-83261709D01*
X157319279Y-83220174D01*
X157425730Y-83199000D01*
X157534270Y-83199000D01*
X157640721Y-83220174D01*
G37*
G36*
X150020721Y-78210174D02*
G01*
X150120995Y-78251709D01*
X150165812Y-78281655D01*
X150211242Y-78312010D01*
X150287990Y-78388758D01*
X150287991Y-78388760D01*
X150348291Y-78479005D01*
X150389826Y-78579279D01*
X150411000Y-78685730D01*
X150411000Y-78794270D01*
X150389826Y-78900721D01*
X150348291Y-79000995D01*
X150348290Y-79000996D01*
X150287990Y-79091242D01*
X150211242Y-79167990D01*
X150165812Y-79198345D01*
X150120995Y-79228291D01*
X150020721Y-79269826D01*
X149914270Y-79291000D01*
X149805730Y-79291000D01*
X149699279Y-79269826D01*
X149599005Y-79228291D01*
X149554188Y-79198345D01*
X149508758Y-79167990D01*
X149432010Y-79091242D01*
X149371710Y-79000996D01*
X149371709Y-79000995D01*
X149330174Y-78900721D01*
X149309000Y-78794270D01*
X149309000Y-78685730D01*
X149330174Y-78579279D01*
X149371709Y-78479005D01*
X149432009Y-78388760D01*
X149432010Y-78388758D01*
X149508758Y-78312010D01*
X149554188Y-78281655D01*
X149599005Y-78251709D01*
X149699279Y-78210174D01*
X149805730Y-78189000D01*
X149914270Y-78189000D01*
X150020721Y-78210174D01*
G37*
G36*
X152560721Y-78210174D02*
G01*
X152660995Y-78251709D01*
X152705812Y-78281655D01*
X152751242Y-78312010D01*
X152827990Y-78388758D01*
X152827991Y-78388760D01*
X152888291Y-78479005D01*
X152929826Y-78579279D01*
X152951000Y-78685730D01*
X152951000Y-78794270D01*
X152929826Y-78900721D01*
X152888291Y-79000995D01*
X152888290Y-79000996D01*
X152827990Y-79091242D01*
X152751242Y-79167990D01*
X152705812Y-79198345D01*
X152660995Y-79228291D01*
X152560721Y-79269826D01*
X152454270Y-79291000D01*
X152345730Y-79291000D01*
X152239279Y-79269826D01*
X152139005Y-79228291D01*
X152094188Y-79198345D01*
X152048758Y-79167990D01*
X151972010Y-79091242D01*
X151911710Y-79000996D01*
X151911709Y-79000995D01*
X151870174Y-78900721D01*
X151849000Y-78794270D01*
X151849000Y-78685730D01*
X151870174Y-78579279D01*
X151911709Y-78479005D01*
X151972009Y-78388760D01*
X151972010Y-78388758D01*
X152048758Y-78312010D01*
X152094188Y-78281655D01*
X152139005Y-78251709D01*
X152239279Y-78210174D01*
X152345730Y-78189000D01*
X152454270Y-78189000D01*
X152560721Y-78210174D01*
G37*
G36*
X199903512Y-77143927D02*
G01*
X200052812Y-77173624D01*
X200216784Y-77241544D01*
X200364354Y-77340147D01*
X200489853Y-77465646D01*
X200588456Y-77613216D01*
X200656376Y-77777188D01*
X200691000Y-77951259D01*
X200691000Y-78128741D01*
X200656376Y-78302812D01*
X200588456Y-78466784D01*
X200489853Y-78614354D01*
X200364354Y-78739853D01*
X200216784Y-78838456D01*
X200052812Y-78906376D01*
X199903512Y-78936073D01*
X199878742Y-78941000D01*
X199701258Y-78941000D01*
X199676488Y-78936073D01*
X199527188Y-78906376D01*
X199363216Y-78838456D01*
X199215646Y-78739853D01*
X199090147Y-78614354D01*
X198991544Y-78466784D01*
X198923624Y-78302812D01*
X198889000Y-78128741D01*
X198889000Y-77951259D01*
X198923624Y-77777188D01*
X198991544Y-77613216D01*
X199090147Y-77465646D01*
X199215646Y-77340147D01*
X199363216Y-77241544D01*
X199527188Y-77173624D01*
X199676488Y-77143927D01*
X199701258Y-77139000D01*
X199878742Y-77139000D01*
X199903512Y-77143927D01*
G37*
G36*
X197363512Y-77143927D02*
G01*
X197512812Y-77173624D01*
X197676784Y-77241544D01*
X197824354Y-77340147D01*
X197949853Y-77465646D01*
X198048456Y-77613216D01*
X198116376Y-77777188D01*
X198151000Y-77951259D01*
X198151000Y-78128741D01*
X198116376Y-78302812D01*
X198048456Y-78466784D01*
X197949853Y-78614354D01*
X197824354Y-78739853D01*
X197676784Y-78838456D01*
X197512812Y-78906376D01*
X197363512Y-78936073D01*
X197338742Y-78941000D01*
X197161258Y-78941000D01*
X197136488Y-78936073D01*
X196987188Y-78906376D01*
X196823216Y-78838456D01*
X196675646Y-78739853D01*
X196550147Y-78614354D01*
X196451544Y-78466784D01*
X196383624Y-78302812D01*
X196349000Y-78128741D01*
X196349000Y-77951259D01*
X196383624Y-77777188D01*
X196451544Y-77613216D01*
X196550147Y-77465646D01*
X196675646Y-77340147D01*
X196823216Y-77241544D01*
X196987188Y-77173624D01*
X197136488Y-77143927D01*
X197161258Y-77139000D01*
X197338742Y-77139000D01*
X197363512Y-77143927D01*
G37*
G36*
X110151000Y-78901000D02*
G01*
X108349000Y-78901000D01*
X108349000Y-77099000D01*
X110151000Y-77099000D01*
X110151000Y-78901000D01*
G37*
G36*
X106823512Y-77103927D02*
G01*
X106972812Y-77133624D01*
X107136784Y-77201544D01*
X107284354Y-77300147D01*
X107409853Y-77425646D01*
X107508456Y-77573216D01*
X107576376Y-77737188D01*
X107611000Y-77911259D01*
X107611000Y-78088741D01*
X107576376Y-78262812D01*
X107508456Y-78426784D01*
X107409853Y-78574354D01*
X107284354Y-78699853D01*
X107136784Y-78798456D01*
X106972812Y-78866376D01*
X106823512Y-78896073D01*
X106798742Y-78901000D01*
X106621258Y-78901000D01*
X106596488Y-78896073D01*
X106447188Y-78866376D01*
X106283216Y-78798456D01*
X106135646Y-78699853D01*
X106010147Y-78574354D01*
X105911544Y-78426784D01*
X105843624Y-78262812D01*
X105809000Y-78088741D01*
X105809000Y-77911259D01*
X105843624Y-77737188D01*
X105911544Y-77573216D01*
X106010147Y-77425646D01*
X106135646Y-77300147D01*
X106283216Y-77201544D01*
X106447188Y-77133624D01*
X106596488Y-77103927D01*
X106621258Y-77099000D01*
X106798742Y-77099000D01*
X106823512Y-77103927D01*
G37*
G36*
X198151000Y-76401000D02*
G01*
X196349000Y-76401000D01*
X196349000Y-74599000D01*
X198151000Y-74599000D01*
X198151000Y-76401000D01*
G37*
G36*
X199903512Y-74603927D02*
G01*
X200052812Y-74633624D01*
X200216784Y-74701544D01*
X200364354Y-74800147D01*
X200489853Y-74925646D01*
X200588456Y-75073216D01*
X200656376Y-75237188D01*
X200691000Y-75411259D01*
X200691000Y-75588741D01*
X200656376Y-75762812D01*
X200588456Y-75926784D01*
X200489853Y-76074354D01*
X200364354Y-76199853D01*
X200216784Y-76298456D01*
X200052812Y-76366376D01*
X199903512Y-76396073D01*
X199878742Y-76401000D01*
X199701258Y-76401000D01*
X199676488Y-76396073D01*
X199527188Y-76366376D01*
X199363216Y-76298456D01*
X199215646Y-76199853D01*
X199090147Y-76074354D01*
X198991544Y-75926784D01*
X198923624Y-75762812D01*
X198889000Y-75588741D01*
X198889000Y-75411259D01*
X198923624Y-75237188D01*
X198991544Y-75073216D01*
X199090147Y-74925646D01*
X199215646Y-74800147D01*
X199363216Y-74701544D01*
X199527188Y-74633624D01*
X199676488Y-74603927D01*
X199701258Y-74599000D01*
X199878742Y-74599000D01*
X199903512Y-74603927D01*
G37*
G36*
X109363512Y-74563927D02*
G01*
X109512812Y-74593624D01*
X109676784Y-74661544D01*
X109824354Y-74760147D01*
X109949853Y-74885646D01*
X110048456Y-75033216D01*
X110116376Y-75197188D01*
X110151000Y-75371259D01*
X110151000Y-75548741D01*
X110116376Y-75722812D01*
X110048456Y-75886784D01*
X109949853Y-76034354D01*
X109824354Y-76159853D01*
X109676784Y-76258456D01*
X109512812Y-76326376D01*
X109363512Y-76356073D01*
X109338742Y-76361000D01*
X109161258Y-76361000D01*
X109136488Y-76356073D01*
X108987188Y-76326376D01*
X108823216Y-76258456D01*
X108675646Y-76159853D01*
X108550147Y-76034354D01*
X108451544Y-75886784D01*
X108383624Y-75722812D01*
X108349000Y-75548741D01*
X108349000Y-75371259D01*
X108383624Y-75197188D01*
X108451544Y-75033216D01*
X108550147Y-74885646D01*
X108675646Y-74760147D01*
X108823216Y-74661544D01*
X108987188Y-74593624D01*
X109136488Y-74563927D01*
X109161258Y-74559000D01*
X109338742Y-74559000D01*
X109363512Y-74563927D01*
G37*
G36*
X106823512Y-74563927D02*
G01*
X106972812Y-74593624D01*
X107136784Y-74661544D01*
X107284354Y-74760147D01*
X107409853Y-74885646D01*
X107508456Y-75033216D01*
X107576376Y-75197188D01*
X107611000Y-75371259D01*
X107611000Y-75548741D01*
X107576376Y-75722812D01*
X107508456Y-75886784D01*
X107409853Y-76034354D01*
X107284354Y-76159853D01*
X107136784Y-76258456D01*
X106972812Y-76326376D01*
X106823512Y-76356073D01*
X106798742Y-76361000D01*
X106621258Y-76361000D01*
X106596488Y-76356073D01*
X106447188Y-76326376D01*
X106283216Y-76258456D01*
X106135646Y-76159853D01*
X106010147Y-76034354D01*
X105911544Y-75886784D01*
X105843624Y-75722812D01*
X105809000Y-75548741D01*
X105809000Y-75371259D01*
X105843624Y-75197188D01*
X105911544Y-75033216D01*
X106010147Y-74885646D01*
X106135646Y-74760147D01*
X106283216Y-74661544D01*
X106447188Y-74593624D01*
X106596488Y-74563927D01*
X106621258Y-74559000D01*
X106798742Y-74559000D01*
X106823512Y-74563927D01*
G37*
G36*
X130884239Y-46311467D02*
G01*
X131198282Y-46373934D01*
X131789926Y-46619001D01*
X132216477Y-46904014D01*
X132322391Y-46974783D01*
X132775217Y-47427609D01*
X132845986Y-47533523D01*
X133130999Y-47960074D01*
X133376066Y-48551718D01*
X133501000Y-49179804D01*
X133501000Y-49820196D01*
X133376066Y-50448282D01*
X133130999Y-51039926D01*
X132845986Y-51466477D01*
X132806738Y-51525217D01*
X132775216Y-51572392D01*
X132322392Y-52025216D01*
X131789926Y-52380999D01*
X131198282Y-52626066D01*
X130884239Y-52688533D01*
X130570197Y-52751000D01*
X129929803Y-52751000D01*
X129615761Y-52688533D01*
X129301718Y-52626066D01*
X128710074Y-52380999D01*
X128177608Y-52025216D01*
X127724784Y-51572392D01*
X127693263Y-51525217D01*
X127654014Y-51466477D01*
X127369001Y-51039926D01*
X127123934Y-50448282D01*
X126999000Y-49820196D01*
X126999000Y-49179804D01*
X127123934Y-48551718D01*
X127369001Y-47960074D01*
X127654014Y-47533523D01*
X127724783Y-47427609D01*
X128177609Y-46974783D01*
X128283523Y-46904014D01*
X128710074Y-46619001D01*
X129301718Y-46373934D01*
X129615761Y-46311467D01*
X129929803Y-46249000D01*
X130570197Y-46249000D01*
X130884239Y-46311467D01*
G37*
G36*
X199884239Y-45811467D02*
G01*
X200198282Y-45873934D01*
X200789926Y-46119001D01*
X201216477Y-46404014D01*
X201322391Y-46474783D01*
X201775217Y-46927609D01*
X201806738Y-46974784D01*
X202130999Y-47460074D01*
X202376066Y-48051718D01*
X202501000Y-48679804D01*
X202501000Y-49320196D01*
X202376066Y-49948282D01*
X202130999Y-50539926D01*
X201845986Y-50966477D01*
X201796911Y-51039924D01*
X201775216Y-51072392D01*
X201322392Y-51525216D01*
X200789926Y-51880999D01*
X200198282Y-52126066D01*
X199884239Y-52188533D01*
X199570197Y-52251000D01*
X198929803Y-52251000D01*
X198615761Y-52188533D01*
X198301718Y-52126066D01*
X197710074Y-51880999D01*
X197177608Y-51525216D01*
X196724784Y-51072392D01*
X196703090Y-51039924D01*
X196654014Y-50966477D01*
X196369001Y-50539926D01*
X196123934Y-49948282D01*
X195999000Y-49320196D01*
X195999000Y-48679804D01*
X196123934Y-48051718D01*
X196369001Y-47460074D01*
X196693262Y-46974784D01*
X196724783Y-46927609D01*
X197177609Y-46474783D01*
X197283523Y-46404014D01*
X197710074Y-46119001D01*
X198301718Y-45873934D01*
X198615761Y-45811467D01*
X198929803Y-45749000D01*
X199570197Y-45749000D01*
X199884239Y-45811467D01*
G37*
G36*
X167653512Y-43353927D02*
G01*
X167802812Y-43383624D01*
X167966784Y-43451544D01*
X168114354Y-43550147D01*
X168239853Y-43675646D01*
X168338456Y-43823216D01*
X168406376Y-43987188D01*
X168441000Y-44161259D01*
X168441000Y-44338741D01*
X168406376Y-44512812D01*
X168338456Y-44676784D01*
X168239853Y-44824354D01*
X168114354Y-44949853D01*
X167966784Y-45048456D01*
X167802812Y-45116376D01*
X167653512Y-45146073D01*
X167628742Y-45151000D01*
X167451258Y-45151000D01*
X167426488Y-45146073D01*
X167277188Y-45116376D01*
X167113216Y-45048456D01*
X166965646Y-44949853D01*
X166840147Y-44824354D01*
X166741544Y-44676784D01*
X166673624Y-44512812D01*
X166639000Y-44338741D01*
X166639000Y-44161259D01*
X166673624Y-43987188D01*
X166741544Y-43823216D01*
X166840147Y-43675646D01*
X166965646Y-43550147D01*
X167113216Y-43451544D01*
X167277188Y-43383624D01*
X167426488Y-43353927D01*
X167451258Y-43349000D01*
X167628742Y-43349000D01*
X167653512Y-43353927D01*
G37*
G36*
X165901000Y-45151000D02*
G01*
X164099000Y-45151000D01*
X164099000Y-43349000D01*
X165901000Y-43349000D01*
X165901000Y-45151000D01*
G37*
G36*
X152901000Y-45151000D02*
G01*
X151099000Y-45151000D01*
X151099000Y-43349000D01*
X152901000Y-43349000D01*
X152901000Y-45151000D01*
G37*
G36*
X154653512Y-43353927D02*
G01*
X154802812Y-43383624D01*
X154966784Y-43451544D01*
X155114354Y-43550147D01*
X155239853Y-43675646D01*
X155338456Y-43823216D01*
X155406376Y-43987188D01*
X155441000Y-44161259D01*
X155441000Y-44338741D01*
X155406376Y-44512812D01*
X155338456Y-44676784D01*
X155239853Y-44824354D01*
X155114354Y-44949853D01*
X154966784Y-45048456D01*
X154802812Y-45116376D01*
X154653512Y-45146073D01*
X154628742Y-45151000D01*
X154451258Y-45151000D01*
X154426488Y-45146073D01*
X154277188Y-45116376D01*
X154113216Y-45048456D01*
X153965646Y-44949853D01*
X153840147Y-44824354D01*
X153741544Y-44676784D01*
X153673624Y-44512812D01*
X153639000Y-44338741D01*
X153639000Y-44161259D01*
X153673624Y-43987188D01*
X153741544Y-43823216D01*
X153840147Y-43675646D01*
X153965646Y-43550147D01*
X154113216Y-43451544D01*
X154277188Y-43383624D01*
X154426488Y-43353927D01*
X154451258Y-43349000D01*
X154628742Y-43349000D01*
X154653512Y-43353927D01*
G37*
G36*
X165113512Y-40813927D02*
G01*
X165262812Y-40843624D01*
X165426784Y-40911544D01*
X165574354Y-41010147D01*
X165699853Y-41135646D01*
X165798456Y-41283216D01*
X165866376Y-41447188D01*
X165901000Y-41621259D01*
X165901000Y-41798741D01*
X165866376Y-41972812D01*
X165798456Y-42136784D01*
X165699853Y-42284354D01*
X165574354Y-42409853D01*
X165426784Y-42508456D01*
X165262812Y-42576376D01*
X165113512Y-42606073D01*
X165088742Y-42611000D01*
X164911258Y-42611000D01*
X164886488Y-42606073D01*
X164737188Y-42576376D01*
X164573216Y-42508456D01*
X164425646Y-42409853D01*
X164300147Y-42284354D01*
X164201544Y-42136784D01*
X164133624Y-41972812D01*
X164099000Y-41798741D01*
X164099000Y-41621259D01*
X164133624Y-41447188D01*
X164201544Y-41283216D01*
X164300147Y-41135646D01*
X164425646Y-41010147D01*
X164573216Y-40911544D01*
X164737188Y-40843624D01*
X164886488Y-40813927D01*
X164911258Y-40809000D01*
X165088742Y-40809000D01*
X165113512Y-40813927D01*
G37*
G36*
X167653512Y-40813927D02*
G01*
X167802812Y-40843624D01*
X167966784Y-40911544D01*
X168114354Y-41010147D01*
X168239853Y-41135646D01*
X168338456Y-41283216D01*
X168406376Y-41447188D01*
X168441000Y-41621259D01*
X168441000Y-41798741D01*
X168406376Y-41972812D01*
X168338456Y-42136784D01*
X168239853Y-42284354D01*
X168114354Y-42409853D01*
X167966784Y-42508456D01*
X167802812Y-42576376D01*
X167653512Y-42606073D01*
X167628742Y-42611000D01*
X167451258Y-42611000D01*
X167426488Y-42606073D01*
X167277188Y-42576376D01*
X167113216Y-42508456D01*
X166965646Y-42409853D01*
X166840147Y-42284354D01*
X166741544Y-42136784D01*
X166673624Y-41972812D01*
X166639000Y-41798741D01*
X166639000Y-41621259D01*
X166673624Y-41447188D01*
X166741544Y-41283216D01*
X166840147Y-41135646D01*
X166965646Y-41010147D01*
X167113216Y-40911544D01*
X167277188Y-40843624D01*
X167426488Y-40813927D01*
X167451258Y-40809000D01*
X167628742Y-40809000D01*
X167653512Y-40813927D01*
G37*
G36*
X152113512Y-40813927D02*
G01*
X152262812Y-40843624D01*
X152426784Y-40911544D01*
X152574354Y-41010147D01*
X152699853Y-41135646D01*
X152798456Y-41283216D01*
X152866376Y-41447188D01*
X152901000Y-41621259D01*
X152901000Y-41798741D01*
X152866376Y-41972812D01*
X152798456Y-42136784D01*
X152699853Y-42284354D01*
X152574354Y-42409853D01*
X152426784Y-42508456D01*
X152262812Y-42576376D01*
X152113512Y-42606073D01*
X152088742Y-42611000D01*
X151911258Y-42611000D01*
X151886488Y-42606073D01*
X151737188Y-42576376D01*
X151573216Y-42508456D01*
X151425646Y-42409853D01*
X151300147Y-42284354D01*
X151201544Y-42136784D01*
X151133624Y-41972812D01*
X151099000Y-41798741D01*
X151099000Y-41621259D01*
X151133624Y-41447188D01*
X151201544Y-41283216D01*
X151300147Y-41135646D01*
X151425646Y-41010147D01*
X151573216Y-40911544D01*
X151737188Y-40843624D01*
X151886488Y-40813927D01*
X151911258Y-40809000D01*
X152088742Y-40809000D01*
X152113512Y-40813927D01*
G37*
G36*
X154653512Y-40813927D02*
G01*
X154802812Y-40843624D01*
X154966784Y-40911544D01*
X155114354Y-41010147D01*
X155239853Y-41135646D01*
X155338456Y-41283216D01*
X155406376Y-41447188D01*
X155441000Y-41621259D01*
X155441000Y-41798741D01*
X155406376Y-41972812D01*
X155338456Y-42136784D01*
X155239853Y-42284354D01*
X155114354Y-42409853D01*
X154966784Y-42508456D01*
X154802812Y-42576376D01*
X154653512Y-42606073D01*
X154628742Y-42611000D01*
X154451258Y-42611000D01*
X154426488Y-42606073D01*
X154277188Y-42576376D01*
X154113216Y-42508456D01*
X153965646Y-42409853D01*
X153840147Y-42284354D01*
X153741544Y-42136784D01*
X153673624Y-41972812D01*
X153639000Y-41798741D01*
X153639000Y-41621259D01*
X153673624Y-41447188D01*
X153741544Y-41283216D01*
X153840147Y-41135646D01*
X153965646Y-41010147D01*
X154113216Y-40911544D01*
X154277188Y-40843624D01*
X154426488Y-40813927D01*
X154451258Y-40809000D01*
X154628742Y-40809000D01*
X154653512Y-40813927D01*
G37*
M02*
