M48
; DRILL file {KiCad (5.1.5)-3} date 1/18/2020 10:24:52 AM
; FORMAT={-:-/ absolute / inch / decimal}
; #@! TF.CreationDate,2020-01-18T10:24:52-06:00
; #@! TF.GenerationSoftware,Kicad,Pcbnew,(5.1.5)-3
FMAT,2
INCH
T1C0.0157
T2C0.0394
T3C0.1260
%
G90
G05
T1
X4.1929Y-1.9882
X4.2028Y-2.4016
X4.3898Y-2.4409
X4.4094Y-1.8504
X4.4094Y-2.2638
X4.4094Y-2.7461
X4.4193Y-3.2677
X4.4193Y-3.7992
X4.4193Y-4.3307
X4.4193Y-4.8622
X4.4193Y-5.3937
X4.4252Y-2.5236
X4.4685Y-2.0669
X4.4685Y-2.0669
X4.5768Y-4.1142
X4.5866Y-2.9724
X4.781Y-4.0281
X4.7933Y-4.1732
X4.8622Y-3.4843
X4.872Y-3.4154
X4.8819Y-4.626
X4.9114Y-1.8406
X4.9311Y-2.1457
X4.9311Y-2.7067
X4.9311Y-3.2677
X4.9311Y-3.7992
X4.9311Y-4.3307
X4.9311Y-4.8622
X4.9311Y-5.3937
X4.9508Y-1.9291
X4.9636Y-5.1545
X4.9705Y-4.0551
X4.9951Y-5.3297
X5.0236Y-5.2913
X5.0492Y-4.0354
X5.0492Y-4.2618
X5.0591Y-2.5689
X5.0591Y-3.878
X5.0591Y-4.0945
X5.0591Y-4.4094
X5.062Y-4.997
X5.0748Y-4.9075
X5.0787Y-3.5236
X5.0984Y-3.7303
X5.0994Y-4.3593
X5.1378Y-4.5374
X5.1476Y-4.1043
X5.1575Y-3.5728
X5.1673Y-4.4783
X5.1713Y-4.7382
X5.1772Y-4.1831
X5.2461Y-3.7992
X5.2461Y-4.3209
X5.2559Y-2.4803
X5.2559Y-3.878
X5.2756Y-3.4547
X5.3051Y-3.5728
X5.3346Y-3.622
X5.3445Y-1.8406
X5.3445Y-3.4252
X5.374Y-3.5728
X5.4331Y-1.8307
X5.4331Y-2.1457
X5.4331Y-2.6772
X5.4331Y-3.2087
X5.4331Y-3.7992
X5.4501Y-4.3334
X5.4515Y-4.8733
X5.4528Y-5.3937
X5.5512Y-3.3169
X5.6004Y-1.8701
X5.6102Y-3.0906
X5.6201Y-3.376
X5.7382Y-3.4055
X5.7579Y-2.9035
X5.7618Y-3.2776
X5.7677Y-2.3425
X5.7677Y-3.3465
X5.7874Y-3.4252
X5.7874Y-3.7303
X5.7972Y-3.1004
X5.8366Y-1.8701
X5.8391Y-3.4178
X5.876Y-2.3524
X5.8858Y-5.2165
X5.935Y-3.3071
X5.9508Y-3.8386
X5.9547Y-2.6772
X5.9547Y-2.7264
X5.9547Y-3.7205
X5.9547Y-4.3406
X5.9547Y-4.8622
X5.9941Y-3.189
X5.9941Y-3.7106
X6.0011Y-2.8543
X6.0039Y-3.7992
X6.0043Y-3.5732
X6.0138Y-3.248
X6.0335Y-3.7598
X6.0364Y-1.9262
X6.0433Y-3.5827
X6.0684Y-3.2677
X6.0728Y-1.936
X6.0827Y-3.7402
X6.0827Y-4.0059
X6.0827Y-5.0886
X6.0915Y-2.688
X6.1122Y-3.0906
X6.1388Y-3.4774
X6.1713Y-3.5827
X6.1811Y-3.4744
X6.1811Y-3.9764
X6.1909Y-2.4409
X6.218Y-3.4178
X6.2254Y-2.0226
X6.2303Y-3.937
X6.2598Y-2.628
X6.2697Y-2.0768
X6.2795Y-1.7323
X6.2795Y-2.7756
X6.2972Y-3.3386
X6.2992Y-2.2835
X6.3091Y-2.7067
X6.3091Y-2.8051
X6.3091Y-2.9626
X6.3091Y-3.574
X6.3091Y-3.8681
X6.3091Y-5.4528
X6.3189Y-4.7343
X6.3484Y-2.6181
X6.3553Y-4.9872
X6.3878Y-4.2028
X6.4075Y-2.5295
X6.4075Y-2.9528
X6.4075Y-3.002
X6.4567Y-2.4311
X6.4567Y-2.7264
X6.4567Y-3.2382
X6.4567Y-3.7992
X6.4764Y-2.1555
X6.4862Y-4.8228
X6.4961Y-1.9488
X6.4961Y-2.0374
X6.4961Y-2.8543
X6.4961Y-4.439
X6.4961Y-5.0886
X6.5059Y-2.7165
X6.5551Y-2.1063
X6.5551Y-4.439
X6.5551Y-4.8031
X6.6043Y-2.4508
X6.6043Y-3.3366
X6.6142Y-2.5197
X6.6142Y-2.6575
X6.6142Y-4.4291
X6.6142Y-4.7638
X6.624Y-2.126
X6.624Y-2.7165
X6.624Y-3.2579
X6.624Y-3.2579
X6.6339Y-2.3031
X6.6535Y-3.4449
X6.6594Y-2.5138
X6.6634Y-2.4508
X6.6831Y-3.5039
X6.6831Y-4.1437
X6.6929Y-5.1772
X6.7323Y-5.2067
X6.7421Y-3.9862
X6.7618Y-3.0709
X6.7717Y-1.7126
X6.7825Y-5.2352
X6.8898Y-2.5492
X6.9193Y-1.9783
X6.9291Y-1.9291
X6.9665Y-4.8602
X6.9685Y-1.8898
X6.9685Y-2.3228
X6.9685Y-2.6772
X6.9685Y-3.2776
X6.9685Y-3.7992
X6.9685Y-4.3307
X6.9685Y-5.3937
X6.9882Y-2.1457
X7.0276Y-1.8307
X7.0276Y-4.0059
X7.0276Y-4.3504
X7.0276Y-4.8031
X7.0276Y-5.0689
X7.2638Y-5.0
X7.4075Y-1.8366
X7.4114Y-2.372
X7.4803Y-2.7559
X7.4803Y-3.2677
X7.4803Y-3.7992
X7.4803Y-4.3307
X7.4803Y-4.8622
X7.4803Y-5.3937
X7.5591Y-3.9961
X7.5689Y-2.9921
X7.5689Y-2.4508
X7.5689Y-2.9528
X7.5689Y-3.4744
X7.6575Y-3.435
X7.6673Y-2.3622
X7.7756Y-3.3957
X7.9429Y-3.4154
X7.9429Y-3.6614
X7.9528Y-2.874
T2
X6.4961Y-1.6421
X6.4961Y-1.7421
X6.5961Y-1.6421
X6.5961Y-1.7421
X5.9827Y-5.3346
X5.9827Y-5.4346
X6.0827Y-5.3346
X6.0827Y-5.4346
X7.7657Y-3.4744
X7.7657Y-3.5744
X7.8657Y-3.4744
X7.8657Y-3.5744
X6.4945Y-5.3346
X6.4945Y-5.4346
X6.5945Y-5.3346
X6.5945Y-5.4346
X5.9843Y-1.6421
X5.9843Y-1.7421
X6.0843Y-1.6421
X6.0843Y-1.7421
X7.7657Y-2.9724
X7.7657Y-3.0724
X7.8657Y-2.9724
X7.8657Y-3.0724
X4.2012Y-2.9709
X4.2012Y-3.0709
X4.3012Y-2.9709
X4.3012Y-3.0709
X4.2012Y-3.4728
X4.2012Y-3.5728
X4.3012Y-3.4728
X4.3012Y-3.5728
T3
X5.128Y-1.9488
X7.8445Y-1.9291
X4.5079Y-5.0787
T0
M30
