G04 #@! TF.GenerationSoftware,KiCad,Pcbnew,(5.1.5)-3*
G04 #@! TF.CreationDate,2020-01-18T10:24:29-06:00*
G04 #@! TF.ProjectId,ledgrid,6c656467-7269-4642-9e6b-696361645f70,rev?*
G04 #@! TF.SameCoordinates,Original*
G04 #@! TF.FileFunction,Paste,Top*
G04 #@! TF.FilePolarity,Positive*
%FSLAX46Y46*%
G04 Gerber Fmt 4.6, Leading zero omitted, Abs format (unit mm)*
G04 Created by KiCad (PCBNEW (5.1.5)-3) date 2020-01-18 10:24:29*
%MOMM*%
%LPD*%
G04 APERTURE LIST*
%ADD10C,0.100000*%
%ADD11R,0.450000X1.475000*%
%ADD12R,0.440000X1.550000*%
%ADD13R,1.200000X1.200000*%
%ADD14R,1.500000X1.600000*%
%ADD15R,1.600000X1.500000*%
%ADD16R,0.900000X0.800000*%
%ADD17R,0.650000X1.350000*%
%ADD18R,1.350000X0.650000*%
%ADD19R,0.800000X0.900000*%
%ADD20R,0.900000X0.600000*%
%ADD21R,2.000000X1.100000*%
G04 APERTURE END LIST*
D10*
G36*
X155205142Y-83801174D02*
G01*
X155228803Y-83804684D01*
X155252007Y-83810496D01*
X155274529Y-83818554D01*
X155296153Y-83828782D01*
X155316670Y-83841079D01*
X155335883Y-83855329D01*
X155353607Y-83871393D01*
X155369671Y-83889117D01*
X155383921Y-83908330D01*
X155396218Y-83928847D01*
X155406446Y-83950471D01*
X155414504Y-83972993D01*
X155420316Y-83996197D01*
X155423826Y-84019858D01*
X155425000Y-84043750D01*
X155425000Y-84956250D01*
X155423826Y-84980142D01*
X155420316Y-85003803D01*
X155414504Y-85027007D01*
X155406446Y-85049529D01*
X155396218Y-85071153D01*
X155383921Y-85091670D01*
X155369671Y-85110883D01*
X155353607Y-85128607D01*
X155335883Y-85144671D01*
X155316670Y-85158921D01*
X155296153Y-85171218D01*
X155274529Y-85181446D01*
X155252007Y-85189504D01*
X155228803Y-85195316D01*
X155205142Y-85198826D01*
X155181250Y-85200000D01*
X154693750Y-85200000D01*
X154669858Y-85198826D01*
X154646197Y-85195316D01*
X154622993Y-85189504D01*
X154600471Y-85181446D01*
X154578847Y-85171218D01*
X154558330Y-85158921D01*
X154539117Y-85144671D01*
X154521393Y-85128607D01*
X154505329Y-85110883D01*
X154491079Y-85091670D01*
X154478782Y-85071153D01*
X154468554Y-85049529D01*
X154460496Y-85027007D01*
X154454684Y-85003803D01*
X154451174Y-84980142D01*
X154450000Y-84956250D01*
X154450000Y-84043750D01*
X154451174Y-84019858D01*
X154454684Y-83996197D01*
X154460496Y-83972993D01*
X154468554Y-83950471D01*
X154478782Y-83928847D01*
X154491079Y-83908330D01*
X154505329Y-83889117D01*
X154521393Y-83871393D01*
X154539117Y-83855329D01*
X154558330Y-83841079D01*
X154578847Y-83828782D01*
X154600471Y-83818554D01*
X154622993Y-83810496D01*
X154646197Y-83804684D01*
X154669858Y-83801174D01*
X154693750Y-83800000D01*
X155181250Y-83800000D01*
X155205142Y-83801174D01*
G37*
G36*
X153330142Y-83801174D02*
G01*
X153353803Y-83804684D01*
X153377007Y-83810496D01*
X153399529Y-83818554D01*
X153421153Y-83828782D01*
X153441670Y-83841079D01*
X153460883Y-83855329D01*
X153478607Y-83871393D01*
X153494671Y-83889117D01*
X153508921Y-83908330D01*
X153521218Y-83928847D01*
X153531446Y-83950471D01*
X153539504Y-83972993D01*
X153545316Y-83996197D01*
X153548826Y-84019858D01*
X153550000Y-84043750D01*
X153550000Y-84956250D01*
X153548826Y-84980142D01*
X153545316Y-85003803D01*
X153539504Y-85027007D01*
X153531446Y-85049529D01*
X153521218Y-85071153D01*
X153508921Y-85091670D01*
X153494671Y-85110883D01*
X153478607Y-85128607D01*
X153460883Y-85144671D01*
X153441670Y-85158921D01*
X153421153Y-85171218D01*
X153399529Y-85181446D01*
X153377007Y-85189504D01*
X153353803Y-85195316D01*
X153330142Y-85198826D01*
X153306250Y-85200000D01*
X152818750Y-85200000D01*
X152794858Y-85198826D01*
X152771197Y-85195316D01*
X152747993Y-85189504D01*
X152725471Y-85181446D01*
X152703847Y-85171218D01*
X152683330Y-85158921D01*
X152664117Y-85144671D01*
X152646393Y-85128607D01*
X152630329Y-85110883D01*
X152616079Y-85091670D01*
X152603782Y-85071153D01*
X152593554Y-85049529D01*
X152585496Y-85027007D01*
X152579684Y-85003803D01*
X152576174Y-84980142D01*
X152575000Y-84956250D01*
X152575000Y-84043750D01*
X152576174Y-84019858D01*
X152579684Y-83996197D01*
X152585496Y-83972993D01*
X152593554Y-83950471D01*
X152603782Y-83928847D01*
X152616079Y-83908330D01*
X152630329Y-83889117D01*
X152646393Y-83871393D01*
X152664117Y-83855329D01*
X152683330Y-83841079D01*
X152703847Y-83828782D01*
X152725471Y-83818554D01*
X152747993Y-83810496D01*
X152771197Y-83804684D01*
X152794858Y-83801174D01*
X152818750Y-83800000D01*
X153306250Y-83800000D01*
X153330142Y-83801174D01*
G37*
D11*
X149425000Y-86812000D03*
X150075000Y-86812000D03*
X150725000Y-86812000D03*
X151375000Y-86812000D03*
X152025000Y-86812000D03*
X152675000Y-86812000D03*
X153325000Y-86812000D03*
X153975000Y-86812000D03*
X154625000Y-86812000D03*
X155275000Y-86812000D03*
X155925000Y-86812000D03*
X156575000Y-86812000D03*
X156575000Y-92688000D03*
X155925000Y-92688000D03*
X155275000Y-92688000D03*
X154625000Y-92688000D03*
X153975000Y-92688000D03*
X153325000Y-92688000D03*
X152675000Y-92688000D03*
X152025000Y-92688000D03*
X151375000Y-92688000D03*
X150725000Y-92688000D03*
X150075000Y-92688000D03*
X149425000Y-92688000D03*
D12*
X123480000Y-100525000D03*
X124120000Y-100525000D03*
X124760000Y-100525000D03*
X125400000Y-100525000D03*
X126040000Y-100525000D03*
X126680000Y-100525000D03*
X127320000Y-100525000D03*
X127960000Y-100525000D03*
X128600000Y-100525000D03*
X129240000Y-100525000D03*
X129880000Y-100525000D03*
X130520000Y-100525000D03*
X130520000Y-105975000D03*
X129880000Y-105975000D03*
X129240000Y-105975000D03*
X128600000Y-105975000D03*
X127960000Y-105975000D03*
X127320000Y-105975000D03*
X126680000Y-105975000D03*
X126040000Y-105975000D03*
X125400000Y-105975000D03*
X124760000Y-105975000D03*
X124120000Y-105975000D03*
X123480000Y-105975000D03*
D13*
X113200000Y-102250000D03*
D14*
X109950000Y-103250000D03*
D13*
X113200000Y-104250000D03*
X153750000Y-61050000D03*
D15*
X154750000Y-64300000D03*
D13*
X155750000Y-61050000D03*
D10*
G36*
X173917642Y-76701174D02*
G01*
X173941303Y-76704684D01*
X173964507Y-76710496D01*
X173987029Y-76718554D01*
X174008653Y-76728782D01*
X174029170Y-76741079D01*
X174048383Y-76755329D01*
X174066107Y-76771393D01*
X174082171Y-76789117D01*
X174096421Y-76808330D01*
X174108718Y-76828847D01*
X174118946Y-76850471D01*
X174127004Y-76872993D01*
X174132816Y-76896197D01*
X174136326Y-76919858D01*
X174137500Y-76943750D01*
X174137500Y-77431250D01*
X174136326Y-77455142D01*
X174132816Y-77478803D01*
X174127004Y-77502007D01*
X174118946Y-77524529D01*
X174108718Y-77546153D01*
X174096421Y-77566670D01*
X174082171Y-77585883D01*
X174066107Y-77603607D01*
X174048383Y-77619671D01*
X174029170Y-77633921D01*
X174008653Y-77646218D01*
X173987029Y-77656446D01*
X173964507Y-77664504D01*
X173941303Y-77670316D01*
X173917642Y-77673826D01*
X173893750Y-77675000D01*
X172981250Y-77675000D01*
X172957358Y-77673826D01*
X172933697Y-77670316D01*
X172910493Y-77664504D01*
X172887971Y-77656446D01*
X172866347Y-77646218D01*
X172845830Y-77633921D01*
X172826617Y-77619671D01*
X172808893Y-77603607D01*
X172792829Y-77585883D01*
X172778579Y-77566670D01*
X172766282Y-77546153D01*
X172756054Y-77524529D01*
X172747996Y-77502007D01*
X172742184Y-77478803D01*
X172738674Y-77455142D01*
X172737500Y-77431250D01*
X172737500Y-76943750D01*
X172738674Y-76919858D01*
X172742184Y-76896197D01*
X172747996Y-76872993D01*
X172756054Y-76850471D01*
X172766282Y-76828847D01*
X172778579Y-76808330D01*
X172792829Y-76789117D01*
X172808893Y-76771393D01*
X172826617Y-76755329D01*
X172845830Y-76741079D01*
X172866347Y-76728782D01*
X172887971Y-76718554D01*
X172910493Y-76710496D01*
X172933697Y-76704684D01*
X172957358Y-76701174D01*
X172981250Y-76700000D01*
X173893750Y-76700000D01*
X173917642Y-76701174D01*
G37*
G36*
X173917642Y-74826174D02*
G01*
X173941303Y-74829684D01*
X173964507Y-74835496D01*
X173987029Y-74843554D01*
X174008653Y-74853782D01*
X174029170Y-74866079D01*
X174048383Y-74880329D01*
X174066107Y-74896393D01*
X174082171Y-74914117D01*
X174096421Y-74933330D01*
X174108718Y-74953847D01*
X174118946Y-74975471D01*
X174127004Y-74997993D01*
X174132816Y-75021197D01*
X174136326Y-75044858D01*
X174137500Y-75068750D01*
X174137500Y-75556250D01*
X174136326Y-75580142D01*
X174132816Y-75603803D01*
X174127004Y-75627007D01*
X174118946Y-75649529D01*
X174108718Y-75671153D01*
X174096421Y-75691670D01*
X174082171Y-75710883D01*
X174066107Y-75728607D01*
X174048383Y-75744671D01*
X174029170Y-75758921D01*
X174008653Y-75771218D01*
X173987029Y-75781446D01*
X173964507Y-75789504D01*
X173941303Y-75795316D01*
X173917642Y-75798826D01*
X173893750Y-75800000D01*
X172981250Y-75800000D01*
X172957358Y-75798826D01*
X172933697Y-75795316D01*
X172910493Y-75789504D01*
X172887971Y-75781446D01*
X172866347Y-75771218D01*
X172845830Y-75758921D01*
X172826617Y-75744671D01*
X172808893Y-75728607D01*
X172792829Y-75710883D01*
X172778579Y-75691670D01*
X172766282Y-75671153D01*
X172756054Y-75649529D01*
X172747996Y-75627007D01*
X172742184Y-75603803D01*
X172738674Y-75580142D01*
X172737500Y-75556250D01*
X172737500Y-75068750D01*
X172738674Y-75044858D01*
X172742184Y-75021197D01*
X172747996Y-74997993D01*
X172756054Y-74975471D01*
X172766282Y-74953847D01*
X172778579Y-74933330D01*
X172792829Y-74914117D01*
X172808893Y-74896393D01*
X172826617Y-74880329D01*
X172845830Y-74866079D01*
X172866347Y-74853782D01*
X172887971Y-74843554D01*
X172910493Y-74835496D01*
X172933697Y-74829684D01*
X172957358Y-74826174D01*
X172981250Y-74825000D01*
X173893750Y-74825000D01*
X173917642Y-74826174D01*
G37*
G36*
X182830142Y-75801174D02*
G01*
X182853803Y-75804684D01*
X182877007Y-75810496D01*
X182899529Y-75818554D01*
X182921153Y-75828782D01*
X182941670Y-75841079D01*
X182960883Y-75855329D01*
X182978607Y-75871393D01*
X182994671Y-75889117D01*
X183008921Y-75908330D01*
X183021218Y-75928847D01*
X183031446Y-75950471D01*
X183039504Y-75972993D01*
X183045316Y-75996197D01*
X183048826Y-76019858D01*
X183050000Y-76043750D01*
X183050000Y-76956250D01*
X183048826Y-76980142D01*
X183045316Y-77003803D01*
X183039504Y-77027007D01*
X183031446Y-77049529D01*
X183021218Y-77071153D01*
X183008921Y-77091670D01*
X182994671Y-77110883D01*
X182978607Y-77128607D01*
X182960883Y-77144671D01*
X182941670Y-77158921D01*
X182921153Y-77171218D01*
X182899529Y-77181446D01*
X182877007Y-77189504D01*
X182853803Y-77195316D01*
X182830142Y-77198826D01*
X182806250Y-77200000D01*
X182318750Y-77200000D01*
X182294858Y-77198826D01*
X182271197Y-77195316D01*
X182247993Y-77189504D01*
X182225471Y-77181446D01*
X182203847Y-77171218D01*
X182183330Y-77158921D01*
X182164117Y-77144671D01*
X182146393Y-77128607D01*
X182130329Y-77110883D01*
X182116079Y-77091670D01*
X182103782Y-77071153D01*
X182093554Y-77049529D01*
X182085496Y-77027007D01*
X182079684Y-77003803D01*
X182076174Y-76980142D01*
X182075000Y-76956250D01*
X182075000Y-76043750D01*
X182076174Y-76019858D01*
X182079684Y-75996197D01*
X182085496Y-75972993D01*
X182093554Y-75950471D01*
X182103782Y-75928847D01*
X182116079Y-75908330D01*
X182130329Y-75889117D01*
X182146393Y-75871393D01*
X182164117Y-75855329D01*
X182183330Y-75841079D01*
X182203847Y-75828782D01*
X182225471Y-75818554D01*
X182247993Y-75810496D01*
X182271197Y-75804684D01*
X182294858Y-75801174D01*
X182318750Y-75800000D01*
X182806250Y-75800000D01*
X182830142Y-75801174D01*
G37*
G36*
X184705142Y-75801174D02*
G01*
X184728803Y-75804684D01*
X184752007Y-75810496D01*
X184774529Y-75818554D01*
X184796153Y-75828782D01*
X184816670Y-75841079D01*
X184835883Y-75855329D01*
X184853607Y-75871393D01*
X184869671Y-75889117D01*
X184883921Y-75908330D01*
X184896218Y-75928847D01*
X184906446Y-75950471D01*
X184914504Y-75972993D01*
X184920316Y-75996197D01*
X184923826Y-76019858D01*
X184925000Y-76043750D01*
X184925000Y-76956250D01*
X184923826Y-76980142D01*
X184920316Y-77003803D01*
X184914504Y-77027007D01*
X184906446Y-77049529D01*
X184896218Y-77071153D01*
X184883921Y-77091670D01*
X184869671Y-77110883D01*
X184853607Y-77128607D01*
X184835883Y-77144671D01*
X184816670Y-77158921D01*
X184796153Y-77171218D01*
X184774529Y-77181446D01*
X184752007Y-77189504D01*
X184728803Y-77195316D01*
X184705142Y-77198826D01*
X184681250Y-77200000D01*
X184193750Y-77200000D01*
X184169858Y-77198826D01*
X184146197Y-77195316D01*
X184122993Y-77189504D01*
X184100471Y-77181446D01*
X184078847Y-77171218D01*
X184058330Y-77158921D01*
X184039117Y-77144671D01*
X184021393Y-77128607D01*
X184005329Y-77110883D01*
X183991079Y-77091670D01*
X183978782Y-77071153D01*
X183968554Y-77049529D01*
X183960496Y-77027007D01*
X183954684Y-77003803D01*
X183951174Y-76980142D01*
X183950000Y-76956250D01*
X183950000Y-76043750D01*
X183951174Y-76019858D01*
X183954684Y-75996197D01*
X183960496Y-75972993D01*
X183968554Y-75950471D01*
X183978782Y-75928847D01*
X183991079Y-75908330D01*
X184005329Y-75889117D01*
X184021393Y-75871393D01*
X184039117Y-75855329D01*
X184058330Y-75841079D01*
X184078847Y-75828782D01*
X184100471Y-75818554D01*
X184122993Y-75810496D01*
X184146197Y-75804684D01*
X184169858Y-75801174D01*
X184193750Y-75800000D01*
X184681250Y-75800000D01*
X184705142Y-75801174D01*
G37*
G36*
X142980142Y-76701174D02*
G01*
X143003803Y-76704684D01*
X143027007Y-76710496D01*
X143049529Y-76718554D01*
X143071153Y-76728782D01*
X143091670Y-76741079D01*
X143110883Y-76755329D01*
X143128607Y-76771393D01*
X143144671Y-76789117D01*
X143158921Y-76808330D01*
X143171218Y-76828847D01*
X143181446Y-76850471D01*
X143189504Y-76872993D01*
X143195316Y-76896197D01*
X143198826Y-76919858D01*
X143200000Y-76943750D01*
X143200000Y-77431250D01*
X143198826Y-77455142D01*
X143195316Y-77478803D01*
X143189504Y-77502007D01*
X143181446Y-77524529D01*
X143171218Y-77546153D01*
X143158921Y-77566670D01*
X143144671Y-77585883D01*
X143128607Y-77603607D01*
X143110883Y-77619671D01*
X143091670Y-77633921D01*
X143071153Y-77646218D01*
X143049529Y-77656446D01*
X143027007Y-77664504D01*
X143003803Y-77670316D01*
X142980142Y-77673826D01*
X142956250Y-77675000D01*
X142043750Y-77675000D01*
X142019858Y-77673826D01*
X141996197Y-77670316D01*
X141972993Y-77664504D01*
X141950471Y-77656446D01*
X141928847Y-77646218D01*
X141908330Y-77633921D01*
X141889117Y-77619671D01*
X141871393Y-77603607D01*
X141855329Y-77585883D01*
X141841079Y-77566670D01*
X141828782Y-77546153D01*
X141818554Y-77524529D01*
X141810496Y-77502007D01*
X141804684Y-77478803D01*
X141801174Y-77455142D01*
X141800000Y-77431250D01*
X141800000Y-76943750D01*
X141801174Y-76919858D01*
X141804684Y-76896197D01*
X141810496Y-76872993D01*
X141818554Y-76850471D01*
X141828782Y-76828847D01*
X141841079Y-76808330D01*
X141855329Y-76789117D01*
X141871393Y-76771393D01*
X141889117Y-76755329D01*
X141908330Y-76741079D01*
X141928847Y-76728782D01*
X141950471Y-76718554D01*
X141972993Y-76710496D01*
X141996197Y-76704684D01*
X142019858Y-76701174D01*
X142043750Y-76700000D01*
X142956250Y-76700000D01*
X142980142Y-76701174D01*
G37*
G36*
X142980142Y-74826174D02*
G01*
X143003803Y-74829684D01*
X143027007Y-74835496D01*
X143049529Y-74843554D01*
X143071153Y-74853782D01*
X143091670Y-74866079D01*
X143110883Y-74880329D01*
X143128607Y-74896393D01*
X143144671Y-74914117D01*
X143158921Y-74933330D01*
X143171218Y-74953847D01*
X143181446Y-74975471D01*
X143189504Y-74997993D01*
X143195316Y-75021197D01*
X143198826Y-75044858D01*
X143200000Y-75068750D01*
X143200000Y-75556250D01*
X143198826Y-75580142D01*
X143195316Y-75603803D01*
X143189504Y-75627007D01*
X143181446Y-75649529D01*
X143171218Y-75671153D01*
X143158921Y-75691670D01*
X143144671Y-75710883D01*
X143128607Y-75728607D01*
X143110883Y-75744671D01*
X143091670Y-75758921D01*
X143071153Y-75771218D01*
X143049529Y-75781446D01*
X143027007Y-75789504D01*
X143003803Y-75795316D01*
X142980142Y-75798826D01*
X142956250Y-75800000D01*
X142043750Y-75800000D01*
X142019858Y-75798826D01*
X141996197Y-75795316D01*
X141972993Y-75789504D01*
X141950471Y-75781446D01*
X141928847Y-75771218D01*
X141908330Y-75758921D01*
X141889117Y-75744671D01*
X141871393Y-75728607D01*
X141855329Y-75710883D01*
X141841079Y-75691670D01*
X141828782Y-75671153D01*
X141818554Y-75649529D01*
X141810496Y-75627007D01*
X141804684Y-75603803D01*
X141801174Y-75580142D01*
X141800000Y-75556250D01*
X141800000Y-75068750D01*
X141801174Y-75044858D01*
X141804684Y-75021197D01*
X141810496Y-74997993D01*
X141818554Y-74975471D01*
X141828782Y-74953847D01*
X141841079Y-74933330D01*
X141855329Y-74914117D01*
X141871393Y-74896393D01*
X141889117Y-74880329D01*
X141908330Y-74866079D01*
X141928847Y-74853782D01*
X141950471Y-74843554D01*
X141972993Y-74835496D01*
X141996197Y-74829684D01*
X142019858Y-74826174D01*
X142043750Y-74825000D01*
X142956250Y-74825000D01*
X142980142Y-74826174D01*
G37*
G36*
X150330142Y-74301174D02*
G01*
X150353803Y-74304684D01*
X150377007Y-74310496D01*
X150399529Y-74318554D01*
X150421153Y-74328782D01*
X150441670Y-74341079D01*
X150460883Y-74355329D01*
X150478607Y-74371393D01*
X150494671Y-74389117D01*
X150508921Y-74408330D01*
X150521218Y-74428847D01*
X150531446Y-74450471D01*
X150539504Y-74472993D01*
X150545316Y-74496197D01*
X150548826Y-74519858D01*
X150550000Y-74543750D01*
X150550000Y-75456250D01*
X150548826Y-75480142D01*
X150545316Y-75503803D01*
X150539504Y-75527007D01*
X150531446Y-75549529D01*
X150521218Y-75571153D01*
X150508921Y-75591670D01*
X150494671Y-75610883D01*
X150478607Y-75628607D01*
X150460883Y-75644671D01*
X150441670Y-75658921D01*
X150421153Y-75671218D01*
X150399529Y-75681446D01*
X150377007Y-75689504D01*
X150353803Y-75695316D01*
X150330142Y-75698826D01*
X150306250Y-75700000D01*
X149818750Y-75700000D01*
X149794858Y-75698826D01*
X149771197Y-75695316D01*
X149747993Y-75689504D01*
X149725471Y-75681446D01*
X149703847Y-75671218D01*
X149683330Y-75658921D01*
X149664117Y-75644671D01*
X149646393Y-75628607D01*
X149630329Y-75610883D01*
X149616079Y-75591670D01*
X149603782Y-75571153D01*
X149593554Y-75549529D01*
X149585496Y-75527007D01*
X149579684Y-75503803D01*
X149576174Y-75480142D01*
X149575000Y-75456250D01*
X149575000Y-74543750D01*
X149576174Y-74519858D01*
X149579684Y-74496197D01*
X149585496Y-74472993D01*
X149593554Y-74450471D01*
X149603782Y-74428847D01*
X149616079Y-74408330D01*
X149630329Y-74389117D01*
X149646393Y-74371393D01*
X149664117Y-74355329D01*
X149683330Y-74341079D01*
X149703847Y-74328782D01*
X149725471Y-74318554D01*
X149747993Y-74310496D01*
X149771197Y-74304684D01*
X149794858Y-74301174D01*
X149818750Y-74300000D01*
X150306250Y-74300000D01*
X150330142Y-74301174D01*
G37*
G36*
X152205142Y-74301174D02*
G01*
X152228803Y-74304684D01*
X152252007Y-74310496D01*
X152274529Y-74318554D01*
X152296153Y-74328782D01*
X152316670Y-74341079D01*
X152335883Y-74355329D01*
X152353607Y-74371393D01*
X152369671Y-74389117D01*
X152383921Y-74408330D01*
X152396218Y-74428847D01*
X152406446Y-74450471D01*
X152414504Y-74472993D01*
X152420316Y-74496197D01*
X152423826Y-74519858D01*
X152425000Y-74543750D01*
X152425000Y-75456250D01*
X152423826Y-75480142D01*
X152420316Y-75503803D01*
X152414504Y-75527007D01*
X152406446Y-75549529D01*
X152396218Y-75571153D01*
X152383921Y-75591670D01*
X152369671Y-75610883D01*
X152353607Y-75628607D01*
X152335883Y-75644671D01*
X152316670Y-75658921D01*
X152296153Y-75671218D01*
X152274529Y-75681446D01*
X152252007Y-75689504D01*
X152228803Y-75695316D01*
X152205142Y-75698826D01*
X152181250Y-75700000D01*
X151693750Y-75700000D01*
X151669858Y-75698826D01*
X151646197Y-75695316D01*
X151622993Y-75689504D01*
X151600471Y-75681446D01*
X151578847Y-75671218D01*
X151558330Y-75658921D01*
X151539117Y-75644671D01*
X151521393Y-75628607D01*
X151505329Y-75610883D01*
X151491079Y-75591670D01*
X151478782Y-75571153D01*
X151468554Y-75549529D01*
X151460496Y-75527007D01*
X151454684Y-75503803D01*
X151451174Y-75480142D01*
X151450000Y-75456250D01*
X151450000Y-74543750D01*
X151451174Y-74519858D01*
X151454684Y-74496197D01*
X151460496Y-74472993D01*
X151468554Y-74450471D01*
X151478782Y-74428847D01*
X151491079Y-74408330D01*
X151505329Y-74389117D01*
X151521393Y-74371393D01*
X151539117Y-74355329D01*
X151558330Y-74341079D01*
X151578847Y-74328782D01*
X151600471Y-74318554D01*
X151622993Y-74310496D01*
X151646197Y-74304684D01*
X151669858Y-74301174D01*
X151693750Y-74300000D01*
X152181250Y-74300000D01*
X152205142Y-74301174D01*
G37*
G36*
X174730142Y-90201174D02*
G01*
X174753803Y-90204684D01*
X174777007Y-90210496D01*
X174799529Y-90218554D01*
X174821153Y-90228782D01*
X174841670Y-90241079D01*
X174860883Y-90255329D01*
X174878607Y-90271393D01*
X174894671Y-90289117D01*
X174908921Y-90308330D01*
X174921218Y-90328847D01*
X174931446Y-90350471D01*
X174939504Y-90372993D01*
X174945316Y-90396197D01*
X174948826Y-90419858D01*
X174950000Y-90443750D01*
X174950000Y-90931250D01*
X174948826Y-90955142D01*
X174945316Y-90978803D01*
X174939504Y-91002007D01*
X174931446Y-91024529D01*
X174921218Y-91046153D01*
X174908921Y-91066670D01*
X174894671Y-91085883D01*
X174878607Y-91103607D01*
X174860883Y-91119671D01*
X174841670Y-91133921D01*
X174821153Y-91146218D01*
X174799529Y-91156446D01*
X174777007Y-91164504D01*
X174753803Y-91170316D01*
X174730142Y-91173826D01*
X174706250Y-91175000D01*
X173793750Y-91175000D01*
X173769858Y-91173826D01*
X173746197Y-91170316D01*
X173722993Y-91164504D01*
X173700471Y-91156446D01*
X173678847Y-91146218D01*
X173658330Y-91133921D01*
X173639117Y-91119671D01*
X173621393Y-91103607D01*
X173605329Y-91085883D01*
X173591079Y-91066670D01*
X173578782Y-91046153D01*
X173568554Y-91024529D01*
X173560496Y-91002007D01*
X173554684Y-90978803D01*
X173551174Y-90955142D01*
X173550000Y-90931250D01*
X173550000Y-90443750D01*
X173551174Y-90419858D01*
X173554684Y-90396197D01*
X173560496Y-90372993D01*
X173568554Y-90350471D01*
X173578782Y-90328847D01*
X173591079Y-90308330D01*
X173605329Y-90289117D01*
X173621393Y-90271393D01*
X173639117Y-90255329D01*
X173658330Y-90241079D01*
X173678847Y-90228782D01*
X173700471Y-90218554D01*
X173722993Y-90210496D01*
X173746197Y-90204684D01*
X173769858Y-90201174D01*
X173793750Y-90200000D01*
X174706250Y-90200000D01*
X174730142Y-90201174D01*
G37*
G36*
X174730142Y-88326174D02*
G01*
X174753803Y-88329684D01*
X174777007Y-88335496D01*
X174799529Y-88343554D01*
X174821153Y-88353782D01*
X174841670Y-88366079D01*
X174860883Y-88380329D01*
X174878607Y-88396393D01*
X174894671Y-88414117D01*
X174908921Y-88433330D01*
X174921218Y-88453847D01*
X174931446Y-88475471D01*
X174939504Y-88497993D01*
X174945316Y-88521197D01*
X174948826Y-88544858D01*
X174950000Y-88568750D01*
X174950000Y-89056250D01*
X174948826Y-89080142D01*
X174945316Y-89103803D01*
X174939504Y-89127007D01*
X174931446Y-89149529D01*
X174921218Y-89171153D01*
X174908921Y-89191670D01*
X174894671Y-89210883D01*
X174878607Y-89228607D01*
X174860883Y-89244671D01*
X174841670Y-89258921D01*
X174821153Y-89271218D01*
X174799529Y-89281446D01*
X174777007Y-89289504D01*
X174753803Y-89295316D01*
X174730142Y-89298826D01*
X174706250Y-89300000D01*
X173793750Y-89300000D01*
X173769858Y-89298826D01*
X173746197Y-89295316D01*
X173722993Y-89289504D01*
X173700471Y-89281446D01*
X173678847Y-89271218D01*
X173658330Y-89258921D01*
X173639117Y-89244671D01*
X173621393Y-89228607D01*
X173605329Y-89210883D01*
X173591079Y-89191670D01*
X173578782Y-89171153D01*
X173568554Y-89149529D01*
X173560496Y-89127007D01*
X173554684Y-89103803D01*
X173551174Y-89080142D01*
X173550000Y-89056250D01*
X173550000Y-88568750D01*
X173551174Y-88544858D01*
X173554684Y-88521197D01*
X173560496Y-88497993D01*
X173568554Y-88475471D01*
X173578782Y-88453847D01*
X173591079Y-88433330D01*
X173605329Y-88414117D01*
X173621393Y-88396393D01*
X173639117Y-88380329D01*
X173658330Y-88366079D01*
X173678847Y-88353782D01*
X173700471Y-88343554D01*
X173722993Y-88335496D01*
X173746197Y-88329684D01*
X173769858Y-88326174D01*
X173793750Y-88325000D01*
X174706250Y-88325000D01*
X174730142Y-88326174D01*
G37*
G36*
X183230142Y-89201174D02*
G01*
X183253803Y-89204684D01*
X183277007Y-89210496D01*
X183299529Y-89218554D01*
X183321153Y-89228782D01*
X183341670Y-89241079D01*
X183360883Y-89255329D01*
X183378607Y-89271393D01*
X183394671Y-89289117D01*
X183408921Y-89308330D01*
X183421218Y-89328847D01*
X183431446Y-89350471D01*
X183439504Y-89372993D01*
X183445316Y-89396197D01*
X183448826Y-89419858D01*
X183450000Y-89443750D01*
X183450000Y-89931250D01*
X183448826Y-89955142D01*
X183445316Y-89978803D01*
X183439504Y-90002007D01*
X183431446Y-90024529D01*
X183421218Y-90046153D01*
X183408921Y-90066670D01*
X183394671Y-90085883D01*
X183378607Y-90103607D01*
X183360883Y-90119671D01*
X183341670Y-90133921D01*
X183321153Y-90146218D01*
X183299529Y-90156446D01*
X183277007Y-90164504D01*
X183253803Y-90170316D01*
X183230142Y-90173826D01*
X183206250Y-90175000D01*
X182293750Y-90175000D01*
X182269858Y-90173826D01*
X182246197Y-90170316D01*
X182222993Y-90164504D01*
X182200471Y-90156446D01*
X182178847Y-90146218D01*
X182158330Y-90133921D01*
X182139117Y-90119671D01*
X182121393Y-90103607D01*
X182105329Y-90085883D01*
X182091079Y-90066670D01*
X182078782Y-90046153D01*
X182068554Y-90024529D01*
X182060496Y-90002007D01*
X182054684Y-89978803D01*
X182051174Y-89955142D01*
X182050000Y-89931250D01*
X182050000Y-89443750D01*
X182051174Y-89419858D01*
X182054684Y-89396197D01*
X182060496Y-89372993D01*
X182068554Y-89350471D01*
X182078782Y-89328847D01*
X182091079Y-89308330D01*
X182105329Y-89289117D01*
X182121393Y-89271393D01*
X182139117Y-89255329D01*
X182158330Y-89241079D01*
X182178847Y-89228782D01*
X182200471Y-89218554D01*
X182222993Y-89210496D01*
X182246197Y-89204684D01*
X182269858Y-89201174D01*
X182293750Y-89200000D01*
X183206250Y-89200000D01*
X183230142Y-89201174D01*
G37*
G36*
X183230142Y-87326174D02*
G01*
X183253803Y-87329684D01*
X183277007Y-87335496D01*
X183299529Y-87343554D01*
X183321153Y-87353782D01*
X183341670Y-87366079D01*
X183360883Y-87380329D01*
X183378607Y-87396393D01*
X183394671Y-87414117D01*
X183408921Y-87433330D01*
X183421218Y-87453847D01*
X183431446Y-87475471D01*
X183439504Y-87497993D01*
X183445316Y-87521197D01*
X183448826Y-87544858D01*
X183450000Y-87568750D01*
X183450000Y-88056250D01*
X183448826Y-88080142D01*
X183445316Y-88103803D01*
X183439504Y-88127007D01*
X183431446Y-88149529D01*
X183421218Y-88171153D01*
X183408921Y-88191670D01*
X183394671Y-88210883D01*
X183378607Y-88228607D01*
X183360883Y-88244671D01*
X183341670Y-88258921D01*
X183321153Y-88271218D01*
X183299529Y-88281446D01*
X183277007Y-88289504D01*
X183253803Y-88295316D01*
X183230142Y-88298826D01*
X183206250Y-88300000D01*
X182293750Y-88300000D01*
X182269858Y-88298826D01*
X182246197Y-88295316D01*
X182222993Y-88289504D01*
X182200471Y-88281446D01*
X182178847Y-88271218D01*
X182158330Y-88258921D01*
X182139117Y-88244671D01*
X182121393Y-88228607D01*
X182105329Y-88210883D01*
X182091079Y-88191670D01*
X182078782Y-88171153D01*
X182068554Y-88149529D01*
X182060496Y-88127007D01*
X182054684Y-88103803D01*
X182051174Y-88080142D01*
X182050000Y-88056250D01*
X182050000Y-87568750D01*
X182051174Y-87544858D01*
X182054684Y-87521197D01*
X182060496Y-87497993D01*
X182068554Y-87475471D01*
X182078782Y-87453847D01*
X182091079Y-87433330D01*
X182105329Y-87414117D01*
X182121393Y-87396393D01*
X182139117Y-87380329D01*
X182158330Y-87366079D01*
X182178847Y-87353782D01*
X182200471Y-87343554D01*
X182222993Y-87335496D01*
X182246197Y-87329684D01*
X182269858Y-87326174D01*
X182293750Y-87325000D01*
X183206250Y-87325000D01*
X183230142Y-87326174D01*
G37*
G36*
X132480142Y-63201174D02*
G01*
X132503803Y-63204684D01*
X132527007Y-63210496D01*
X132549529Y-63218554D01*
X132571153Y-63228782D01*
X132591670Y-63241079D01*
X132610883Y-63255329D01*
X132628607Y-63271393D01*
X132644671Y-63289117D01*
X132658921Y-63308330D01*
X132671218Y-63328847D01*
X132681446Y-63350471D01*
X132689504Y-63372993D01*
X132695316Y-63396197D01*
X132698826Y-63419858D01*
X132700000Y-63443750D01*
X132700000Y-63931250D01*
X132698826Y-63955142D01*
X132695316Y-63978803D01*
X132689504Y-64002007D01*
X132681446Y-64024529D01*
X132671218Y-64046153D01*
X132658921Y-64066670D01*
X132644671Y-64085883D01*
X132628607Y-64103607D01*
X132610883Y-64119671D01*
X132591670Y-64133921D01*
X132571153Y-64146218D01*
X132549529Y-64156446D01*
X132527007Y-64164504D01*
X132503803Y-64170316D01*
X132480142Y-64173826D01*
X132456250Y-64175000D01*
X131543750Y-64175000D01*
X131519858Y-64173826D01*
X131496197Y-64170316D01*
X131472993Y-64164504D01*
X131450471Y-64156446D01*
X131428847Y-64146218D01*
X131408330Y-64133921D01*
X131389117Y-64119671D01*
X131371393Y-64103607D01*
X131355329Y-64085883D01*
X131341079Y-64066670D01*
X131328782Y-64046153D01*
X131318554Y-64024529D01*
X131310496Y-64002007D01*
X131304684Y-63978803D01*
X131301174Y-63955142D01*
X131300000Y-63931250D01*
X131300000Y-63443750D01*
X131301174Y-63419858D01*
X131304684Y-63396197D01*
X131310496Y-63372993D01*
X131318554Y-63350471D01*
X131328782Y-63328847D01*
X131341079Y-63308330D01*
X131355329Y-63289117D01*
X131371393Y-63271393D01*
X131389117Y-63255329D01*
X131408330Y-63241079D01*
X131428847Y-63228782D01*
X131450471Y-63218554D01*
X131472993Y-63210496D01*
X131496197Y-63204684D01*
X131519858Y-63201174D01*
X131543750Y-63200000D01*
X132456250Y-63200000D01*
X132480142Y-63201174D01*
G37*
G36*
X132480142Y-61326174D02*
G01*
X132503803Y-61329684D01*
X132527007Y-61335496D01*
X132549529Y-61343554D01*
X132571153Y-61353782D01*
X132591670Y-61366079D01*
X132610883Y-61380329D01*
X132628607Y-61396393D01*
X132644671Y-61414117D01*
X132658921Y-61433330D01*
X132671218Y-61453847D01*
X132681446Y-61475471D01*
X132689504Y-61497993D01*
X132695316Y-61521197D01*
X132698826Y-61544858D01*
X132700000Y-61568750D01*
X132700000Y-62056250D01*
X132698826Y-62080142D01*
X132695316Y-62103803D01*
X132689504Y-62127007D01*
X132681446Y-62149529D01*
X132671218Y-62171153D01*
X132658921Y-62191670D01*
X132644671Y-62210883D01*
X132628607Y-62228607D01*
X132610883Y-62244671D01*
X132591670Y-62258921D01*
X132571153Y-62271218D01*
X132549529Y-62281446D01*
X132527007Y-62289504D01*
X132503803Y-62295316D01*
X132480142Y-62298826D01*
X132456250Y-62300000D01*
X131543750Y-62300000D01*
X131519858Y-62298826D01*
X131496197Y-62295316D01*
X131472993Y-62289504D01*
X131450471Y-62281446D01*
X131428847Y-62271218D01*
X131408330Y-62258921D01*
X131389117Y-62244671D01*
X131371393Y-62228607D01*
X131355329Y-62210883D01*
X131341079Y-62191670D01*
X131328782Y-62171153D01*
X131318554Y-62149529D01*
X131310496Y-62127007D01*
X131304684Y-62103803D01*
X131301174Y-62080142D01*
X131300000Y-62056250D01*
X131300000Y-61568750D01*
X131301174Y-61544858D01*
X131304684Y-61521197D01*
X131310496Y-61497993D01*
X131318554Y-61475471D01*
X131328782Y-61453847D01*
X131341079Y-61433330D01*
X131355329Y-61414117D01*
X131371393Y-61396393D01*
X131389117Y-61380329D01*
X131408330Y-61366079D01*
X131428847Y-61353782D01*
X131450471Y-61343554D01*
X131472993Y-61335496D01*
X131496197Y-61329684D01*
X131519858Y-61326174D01*
X131543750Y-61325000D01*
X132456250Y-61325000D01*
X132480142Y-61326174D01*
G37*
G36*
X140080142Y-61301174D02*
G01*
X140103803Y-61304684D01*
X140127007Y-61310496D01*
X140149529Y-61318554D01*
X140171153Y-61328782D01*
X140191670Y-61341079D01*
X140210883Y-61355329D01*
X140228607Y-61371393D01*
X140244671Y-61389117D01*
X140258921Y-61408330D01*
X140271218Y-61428847D01*
X140281446Y-61450471D01*
X140289504Y-61472993D01*
X140295316Y-61496197D01*
X140298826Y-61519858D01*
X140300000Y-61543750D01*
X140300000Y-62456250D01*
X140298826Y-62480142D01*
X140295316Y-62503803D01*
X140289504Y-62527007D01*
X140281446Y-62549529D01*
X140271218Y-62571153D01*
X140258921Y-62591670D01*
X140244671Y-62610883D01*
X140228607Y-62628607D01*
X140210883Y-62644671D01*
X140191670Y-62658921D01*
X140171153Y-62671218D01*
X140149529Y-62681446D01*
X140127007Y-62689504D01*
X140103803Y-62695316D01*
X140080142Y-62698826D01*
X140056250Y-62700000D01*
X139568750Y-62700000D01*
X139544858Y-62698826D01*
X139521197Y-62695316D01*
X139497993Y-62689504D01*
X139475471Y-62681446D01*
X139453847Y-62671218D01*
X139433330Y-62658921D01*
X139414117Y-62644671D01*
X139396393Y-62628607D01*
X139380329Y-62610883D01*
X139366079Y-62591670D01*
X139353782Y-62571153D01*
X139343554Y-62549529D01*
X139335496Y-62527007D01*
X139329684Y-62503803D01*
X139326174Y-62480142D01*
X139325000Y-62456250D01*
X139325000Y-61543750D01*
X139326174Y-61519858D01*
X139329684Y-61496197D01*
X139335496Y-61472993D01*
X139343554Y-61450471D01*
X139353782Y-61428847D01*
X139366079Y-61408330D01*
X139380329Y-61389117D01*
X139396393Y-61371393D01*
X139414117Y-61355329D01*
X139433330Y-61341079D01*
X139453847Y-61328782D01*
X139475471Y-61318554D01*
X139497993Y-61310496D01*
X139521197Y-61304684D01*
X139544858Y-61301174D01*
X139568750Y-61300000D01*
X140056250Y-61300000D01*
X140080142Y-61301174D01*
G37*
G36*
X141955142Y-61301174D02*
G01*
X141978803Y-61304684D01*
X142002007Y-61310496D01*
X142024529Y-61318554D01*
X142046153Y-61328782D01*
X142066670Y-61341079D01*
X142085883Y-61355329D01*
X142103607Y-61371393D01*
X142119671Y-61389117D01*
X142133921Y-61408330D01*
X142146218Y-61428847D01*
X142156446Y-61450471D01*
X142164504Y-61472993D01*
X142170316Y-61496197D01*
X142173826Y-61519858D01*
X142175000Y-61543750D01*
X142175000Y-62456250D01*
X142173826Y-62480142D01*
X142170316Y-62503803D01*
X142164504Y-62527007D01*
X142156446Y-62549529D01*
X142146218Y-62571153D01*
X142133921Y-62591670D01*
X142119671Y-62610883D01*
X142103607Y-62628607D01*
X142085883Y-62644671D01*
X142066670Y-62658921D01*
X142046153Y-62671218D01*
X142024529Y-62681446D01*
X142002007Y-62689504D01*
X141978803Y-62695316D01*
X141955142Y-62698826D01*
X141931250Y-62700000D01*
X141443750Y-62700000D01*
X141419858Y-62698826D01*
X141396197Y-62695316D01*
X141372993Y-62689504D01*
X141350471Y-62681446D01*
X141328847Y-62671218D01*
X141308330Y-62658921D01*
X141289117Y-62644671D01*
X141271393Y-62628607D01*
X141255329Y-62610883D01*
X141241079Y-62591670D01*
X141228782Y-62571153D01*
X141218554Y-62549529D01*
X141210496Y-62527007D01*
X141204684Y-62503803D01*
X141201174Y-62480142D01*
X141200000Y-62456250D01*
X141200000Y-61543750D01*
X141201174Y-61519858D01*
X141204684Y-61496197D01*
X141210496Y-61472993D01*
X141218554Y-61450471D01*
X141228782Y-61428847D01*
X141241079Y-61408330D01*
X141255329Y-61389117D01*
X141271393Y-61371393D01*
X141289117Y-61355329D01*
X141308330Y-61341079D01*
X141328847Y-61328782D01*
X141350471Y-61318554D01*
X141372993Y-61310496D01*
X141396197Y-61304684D01*
X141419858Y-61301174D01*
X141443750Y-61300000D01*
X141931250Y-61300000D01*
X141955142Y-61301174D01*
G37*
G36*
X112730142Y-50951174D02*
G01*
X112753803Y-50954684D01*
X112777007Y-50960496D01*
X112799529Y-50968554D01*
X112821153Y-50978782D01*
X112841670Y-50991079D01*
X112860883Y-51005329D01*
X112878607Y-51021393D01*
X112894671Y-51039117D01*
X112908921Y-51058330D01*
X112921218Y-51078847D01*
X112931446Y-51100471D01*
X112939504Y-51122993D01*
X112945316Y-51146197D01*
X112948826Y-51169858D01*
X112950000Y-51193750D01*
X112950000Y-51681250D01*
X112948826Y-51705142D01*
X112945316Y-51728803D01*
X112939504Y-51752007D01*
X112931446Y-51774529D01*
X112921218Y-51796153D01*
X112908921Y-51816670D01*
X112894671Y-51835883D01*
X112878607Y-51853607D01*
X112860883Y-51869671D01*
X112841670Y-51883921D01*
X112821153Y-51896218D01*
X112799529Y-51906446D01*
X112777007Y-51914504D01*
X112753803Y-51920316D01*
X112730142Y-51923826D01*
X112706250Y-51925000D01*
X111793750Y-51925000D01*
X111769858Y-51923826D01*
X111746197Y-51920316D01*
X111722993Y-51914504D01*
X111700471Y-51906446D01*
X111678847Y-51896218D01*
X111658330Y-51883921D01*
X111639117Y-51869671D01*
X111621393Y-51853607D01*
X111605329Y-51835883D01*
X111591079Y-51816670D01*
X111578782Y-51796153D01*
X111568554Y-51774529D01*
X111560496Y-51752007D01*
X111554684Y-51728803D01*
X111551174Y-51705142D01*
X111550000Y-51681250D01*
X111550000Y-51193750D01*
X111551174Y-51169858D01*
X111554684Y-51146197D01*
X111560496Y-51122993D01*
X111568554Y-51100471D01*
X111578782Y-51078847D01*
X111591079Y-51058330D01*
X111605329Y-51039117D01*
X111621393Y-51021393D01*
X111639117Y-51005329D01*
X111658330Y-50991079D01*
X111678847Y-50978782D01*
X111700471Y-50968554D01*
X111722993Y-50960496D01*
X111746197Y-50954684D01*
X111769858Y-50951174D01*
X111793750Y-50950000D01*
X112706250Y-50950000D01*
X112730142Y-50951174D01*
G37*
G36*
X112730142Y-49076174D02*
G01*
X112753803Y-49079684D01*
X112777007Y-49085496D01*
X112799529Y-49093554D01*
X112821153Y-49103782D01*
X112841670Y-49116079D01*
X112860883Y-49130329D01*
X112878607Y-49146393D01*
X112894671Y-49164117D01*
X112908921Y-49183330D01*
X112921218Y-49203847D01*
X112931446Y-49225471D01*
X112939504Y-49247993D01*
X112945316Y-49271197D01*
X112948826Y-49294858D01*
X112950000Y-49318750D01*
X112950000Y-49806250D01*
X112948826Y-49830142D01*
X112945316Y-49853803D01*
X112939504Y-49877007D01*
X112931446Y-49899529D01*
X112921218Y-49921153D01*
X112908921Y-49941670D01*
X112894671Y-49960883D01*
X112878607Y-49978607D01*
X112860883Y-49994671D01*
X112841670Y-50008921D01*
X112821153Y-50021218D01*
X112799529Y-50031446D01*
X112777007Y-50039504D01*
X112753803Y-50045316D01*
X112730142Y-50048826D01*
X112706250Y-50050000D01*
X111793750Y-50050000D01*
X111769858Y-50048826D01*
X111746197Y-50045316D01*
X111722993Y-50039504D01*
X111700471Y-50031446D01*
X111678847Y-50021218D01*
X111658330Y-50008921D01*
X111639117Y-49994671D01*
X111621393Y-49978607D01*
X111605329Y-49960883D01*
X111591079Y-49941670D01*
X111578782Y-49921153D01*
X111568554Y-49899529D01*
X111560496Y-49877007D01*
X111554684Y-49853803D01*
X111551174Y-49830142D01*
X111550000Y-49806250D01*
X111550000Y-49318750D01*
X111551174Y-49294858D01*
X111554684Y-49271197D01*
X111560496Y-49247993D01*
X111568554Y-49225471D01*
X111578782Y-49203847D01*
X111591079Y-49183330D01*
X111605329Y-49164117D01*
X111621393Y-49146393D01*
X111639117Y-49130329D01*
X111658330Y-49116079D01*
X111678847Y-49103782D01*
X111700471Y-49093554D01*
X111722993Y-49085496D01*
X111746197Y-49079684D01*
X111769858Y-49076174D01*
X111793750Y-49075000D01*
X112706250Y-49075000D01*
X112730142Y-49076174D01*
G37*
G36*
X120480142Y-50701174D02*
G01*
X120503803Y-50704684D01*
X120527007Y-50710496D01*
X120549529Y-50718554D01*
X120571153Y-50728782D01*
X120591670Y-50741079D01*
X120610883Y-50755329D01*
X120628607Y-50771393D01*
X120644671Y-50789117D01*
X120658921Y-50808330D01*
X120671218Y-50828847D01*
X120681446Y-50850471D01*
X120689504Y-50872993D01*
X120695316Y-50896197D01*
X120698826Y-50919858D01*
X120700000Y-50943750D01*
X120700000Y-51431250D01*
X120698826Y-51455142D01*
X120695316Y-51478803D01*
X120689504Y-51502007D01*
X120681446Y-51524529D01*
X120671218Y-51546153D01*
X120658921Y-51566670D01*
X120644671Y-51585883D01*
X120628607Y-51603607D01*
X120610883Y-51619671D01*
X120591670Y-51633921D01*
X120571153Y-51646218D01*
X120549529Y-51656446D01*
X120527007Y-51664504D01*
X120503803Y-51670316D01*
X120480142Y-51673826D01*
X120456250Y-51675000D01*
X119543750Y-51675000D01*
X119519858Y-51673826D01*
X119496197Y-51670316D01*
X119472993Y-51664504D01*
X119450471Y-51656446D01*
X119428847Y-51646218D01*
X119408330Y-51633921D01*
X119389117Y-51619671D01*
X119371393Y-51603607D01*
X119355329Y-51585883D01*
X119341079Y-51566670D01*
X119328782Y-51546153D01*
X119318554Y-51524529D01*
X119310496Y-51502007D01*
X119304684Y-51478803D01*
X119301174Y-51455142D01*
X119300000Y-51431250D01*
X119300000Y-50943750D01*
X119301174Y-50919858D01*
X119304684Y-50896197D01*
X119310496Y-50872993D01*
X119318554Y-50850471D01*
X119328782Y-50828847D01*
X119341079Y-50808330D01*
X119355329Y-50789117D01*
X119371393Y-50771393D01*
X119389117Y-50755329D01*
X119408330Y-50741079D01*
X119428847Y-50728782D01*
X119450471Y-50718554D01*
X119472993Y-50710496D01*
X119496197Y-50704684D01*
X119519858Y-50701174D01*
X119543750Y-50700000D01*
X120456250Y-50700000D01*
X120480142Y-50701174D01*
G37*
G36*
X120480142Y-48826174D02*
G01*
X120503803Y-48829684D01*
X120527007Y-48835496D01*
X120549529Y-48843554D01*
X120571153Y-48853782D01*
X120591670Y-48866079D01*
X120610883Y-48880329D01*
X120628607Y-48896393D01*
X120644671Y-48914117D01*
X120658921Y-48933330D01*
X120671218Y-48953847D01*
X120681446Y-48975471D01*
X120689504Y-48997993D01*
X120695316Y-49021197D01*
X120698826Y-49044858D01*
X120700000Y-49068750D01*
X120700000Y-49556250D01*
X120698826Y-49580142D01*
X120695316Y-49603803D01*
X120689504Y-49627007D01*
X120681446Y-49649529D01*
X120671218Y-49671153D01*
X120658921Y-49691670D01*
X120644671Y-49710883D01*
X120628607Y-49728607D01*
X120610883Y-49744671D01*
X120591670Y-49758921D01*
X120571153Y-49771218D01*
X120549529Y-49781446D01*
X120527007Y-49789504D01*
X120503803Y-49795316D01*
X120480142Y-49798826D01*
X120456250Y-49800000D01*
X119543750Y-49800000D01*
X119519858Y-49798826D01*
X119496197Y-49795316D01*
X119472993Y-49789504D01*
X119450471Y-49781446D01*
X119428847Y-49771218D01*
X119408330Y-49758921D01*
X119389117Y-49744671D01*
X119371393Y-49728607D01*
X119355329Y-49710883D01*
X119341079Y-49691670D01*
X119328782Y-49671153D01*
X119318554Y-49649529D01*
X119310496Y-49627007D01*
X119304684Y-49603803D01*
X119301174Y-49580142D01*
X119300000Y-49556250D01*
X119300000Y-49068750D01*
X119301174Y-49044858D01*
X119304684Y-49021197D01*
X119310496Y-48997993D01*
X119318554Y-48975471D01*
X119328782Y-48953847D01*
X119341079Y-48933330D01*
X119355329Y-48914117D01*
X119371393Y-48896393D01*
X119389117Y-48880329D01*
X119408330Y-48866079D01*
X119428847Y-48853782D01*
X119450471Y-48843554D01*
X119472993Y-48835496D01*
X119496197Y-48829684D01*
X119519858Y-48826174D01*
X119543750Y-48825000D01*
X120456250Y-48825000D01*
X120480142Y-48826174D01*
G37*
G36*
X190955142Y-62051174D02*
G01*
X190978803Y-62054684D01*
X191002007Y-62060496D01*
X191024529Y-62068554D01*
X191046153Y-62078782D01*
X191066670Y-62091079D01*
X191085883Y-62105329D01*
X191103607Y-62121393D01*
X191119671Y-62139117D01*
X191133921Y-62158330D01*
X191146218Y-62178847D01*
X191156446Y-62200471D01*
X191164504Y-62222993D01*
X191170316Y-62246197D01*
X191173826Y-62269858D01*
X191175000Y-62293750D01*
X191175000Y-63206250D01*
X191173826Y-63230142D01*
X191170316Y-63253803D01*
X191164504Y-63277007D01*
X191156446Y-63299529D01*
X191146218Y-63321153D01*
X191133921Y-63341670D01*
X191119671Y-63360883D01*
X191103607Y-63378607D01*
X191085883Y-63394671D01*
X191066670Y-63408921D01*
X191046153Y-63421218D01*
X191024529Y-63431446D01*
X191002007Y-63439504D01*
X190978803Y-63445316D01*
X190955142Y-63448826D01*
X190931250Y-63450000D01*
X190443750Y-63450000D01*
X190419858Y-63448826D01*
X190396197Y-63445316D01*
X190372993Y-63439504D01*
X190350471Y-63431446D01*
X190328847Y-63421218D01*
X190308330Y-63408921D01*
X190289117Y-63394671D01*
X190271393Y-63378607D01*
X190255329Y-63360883D01*
X190241079Y-63341670D01*
X190228782Y-63321153D01*
X190218554Y-63299529D01*
X190210496Y-63277007D01*
X190204684Y-63253803D01*
X190201174Y-63230142D01*
X190200000Y-63206250D01*
X190200000Y-62293750D01*
X190201174Y-62269858D01*
X190204684Y-62246197D01*
X190210496Y-62222993D01*
X190218554Y-62200471D01*
X190228782Y-62178847D01*
X190241079Y-62158330D01*
X190255329Y-62139117D01*
X190271393Y-62121393D01*
X190289117Y-62105329D01*
X190308330Y-62091079D01*
X190328847Y-62078782D01*
X190350471Y-62068554D01*
X190372993Y-62060496D01*
X190396197Y-62054684D01*
X190419858Y-62051174D01*
X190443750Y-62050000D01*
X190931250Y-62050000D01*
X190955142Y-62051174D01*
G37*
G36*
X189080142Y-62051174D02*
G01*
X189103803Y-62054684D01*
X189127007Y-62060496D01*
X189149529Y-62068554D01*
X189171153Y-62078782D01*
X189191670Y-62091079D01*
X189210883Y-62105329D01*
X189228607Y-62121393D01*
X189244671Y-62139117D01*
X189258921Y-62158330D01*
X189271218Y-62178847D01*
X189281446Y-62200471D01*
X189289504Y-62222993D01*
X189295316Y-62246197D01*
X189298826Y-62269858D01*
X189300000Y-62293750D01*
X189300000Y-63206250D01*
X189298826Y-63230142D01*
X189295316Y-63253803D01*
X189289504Y-63277007D01*
X189281446Y-63299529D01*
X189271218Y-63321153D01*
X189258921Y-63341670D01*
X189244671Y-63360883D01*
X189228607Y-63378607D01*
X189210883Y-63394671D01*
X189191670Y-63408921D01*
X189171153Y-63421218D01*
X189149529Y-63431446D01*
X189127007Y-63439504D01*
X189103803Y-63445316D01*
X189080142Y-63448826D01*
X189056250Y-63450000D01*
X188568750Y-63450000D01*
X188544858Y-63448826D01*
X188521197Y-63445316D01*
X188497993Y-63439504D01*
X188475471Y-63431446D01*
X188453847Y-63421218D01*
X188433330Y-63408921D01*
X188414117Y-63394671D01*
X188396393Y-63378607D01*
X188380329Y-63360883D01*
X188366079Y-63341670D01*
X188353782Y-63321153D01*
X188343554Y-63299529D01*
X188335496Y-63277007D01*
X188329684Y-63253803D01*
X188326174Y-63230142D01*
X188325000Y-63206250D01*
X188325000Y-62293750D01*
X188326174Y-62269858D01*
X188329684Y-62246197D01*
X188335496Y-62222993D01*
X188343554Y-62200471D01*
X188353782Y-62178847D01*
X188366079Y-62158330D01*
X188380329Y-62139117D01*
X188396393Y-62121393D01*
X188414117Y-62105329D01*
X188433330Y-62091079D01*
X188453847Y-62078782D01*
X188475471Y-62068554D01*
X188497993Y-62060496D01*
X188521197Y-62054684D01*
X188544858Y-62051174D01*
X188568750Y-62050000D01*
X189056250Y-62050000D01*
X189080142Y-62051174D01*
G37*
G36*
X182142642Y-62301174D02*
G01*
X182166303Y-62304684D01*
X182189507Y-62310496D01*
X182212029Y-62318554D01*
X182233653Y-62328782D01*
X182254170Y-62341079D01*
X182273383Y-62355329D01*
X182291107Y-62371393D01*
X182307171Y-62389117D01*
X182321421Y-62408330D01*
X182333718Y-62428847D01*
X182343946Y-62450471D01*
X182352004Y-62472993D01*
X182357816Y-62496197D01*
X182361326Y-62519858D01*
X182362500Y-62543750D01*
X182362500Y-63456250D01*
X182361326Y-63480142D01*
X182357816Y-63503803D01*
X182352004Y-63527007D01*
X182343946Y-63549529D01*
X182333718Y-63571153D01*
X182321421Y-63591670D01*
X182307171Y-63610883D01*
X182291107Y-63628607D01*
X182273383Y-63644671D01*
X182254170Y-63658921D01*
X182233653Y-63671218D01*
X182212029Y-63681446D01*
X182189507Y-63689504D01*
X182166303Y-63695316D01*
X182142642Y-63698826D01*
X182118750Y-63700000D01*
X181631250Y-63700000D01*
X181607358Y-63698826D01*
X181583697Y-63695316D01*
X181560493Y-63689504D01*
X181537971Y-63681446D01*
X181516347Y-63671218D01*
X181495830Y-63658921D01*
X181476617Y-63644671D01*
X181458893Y-63628607D01*
X181442829Y-63610883D01*
X181428579Y-63591670D01*
X181416282Y-63571153D01*
X181406054Y-63549529D01*
X181397996Y-63527007D01*
X181392184Y-63503803D01*
X181388674Y-63480142D01*
X181387500Y-63456250D01*
X181387500Y-62543750D01*
X181388674Y-62519858D01*
X181392184Y-62496197D01*
X181397996Y-62472993D01*
X181406054Y-62450471D01*
X181416282Y-62428847D01*
X181428579Y-62408330D01*
X181442829Y-62389117D01*
X181458893Y-62371393D01*
X181476617Y-62355329D01*
X181495830Y-62341079D01*
X181516347Y-62328782D01*
X181537971Y-62318554D01*
X181560493Y-62310496D01*
X181583697Y-62304684D01*
X181607358Y-62301174D01*
X181631250Y-62300000D01*
X182118750Y-62300000D01*
X182142642Y-62301174D01*
G37*
G36*
X180267642Y-62301174D02*
G01*
X180291303Y-62304684D01*
X180314507Y-62310496D01*
X180337029Y-62318554D01*
X180358653Y-62328782D01*
X180379170Y-62341079D01*
X180398383Y-62355329D01*
X180416107Y-62371393D01*
X180432171Y-62389117D01*
X180446421Y-62408330D01*
X180458718Y-62428847D01*
X180468946Y-62450471D01*
X180477004Y-62472993D01*
X180482816Y-62496197D01*
X180486326Y-62519858D01*
X180487500Y-62543750D01*
X180487500Y-63456250D01*
X180486326Y-63480142D01*
X180482816Y-63503803D01*
X180477004Y-63527007D01*
X180468946Y-63549529D01*
X180458718Y-63571153D01*
X180446421Y-63591670D01*
X180432171Y-63610883D01*
X180416107Y-63628607D01*
X180398383Y-63644671D01*
X180379170Y-63658921D01*
X180358653Y-63671218D01*
X180337029Y-63681446D01*
X180314507Y-63689504D01*
X180291303Y-63695316D01*
X180267642Y-63698826D01*
X180243750Y-63700000D01*
X179756250Y-63700000D01*
X179732358Y-63698826D01*
X179708697Y-63695316D01*
X179685493Y-63689504D01*
X179662971Y-63681446D01*
X179641347Y-63671218D01*
X179620830Y-63658921D01*
X179601617Y-63644671D01*
X179583893Y-63628607D01*
X179567829Y-63610883D01*
X179553579Y-63591670D01*
X179541282Y-63571153D01*
X179531054Y-63549529D01*
X179522996Y-63527007D01*
X179517184Y-63503803D01*
X179513674Y-63480142D01*
X179512500Y-63456250D01*
X179512500Y-62543750D01*
X179513674Y-62519858D01*
X179517184Y-62496197D01*
X179522996Y-62472993D01*
X179531054Y-62450471D01*
X179541282Y-62428847D01*
X179553579Y-62408330D01*
X179567829Y-62389117D01*
X179583893Y-62371393D01*
X179601617Y-62355329D01*
X179620830Y-62341079D01*
X179641347Y-62328782D01*
X179662971Y-62318554D01*
X179685493Y-62310496D01*
X179708697Y-62304684D01*
X179732358Y-62301174D01*
X179756250Y-62300000D01*
X180243750Y-62300000D01*
X180267642Y-62301174D01*
G37*
G36*
X118580142Y-74551174D02*
G01*
X118603803Y-74554684D01*
X118627007Y-74560496D01*
X118649529Y-74568554D01*
X118671153Y-74578782D01*
X118691670Y-74591079D01*
X118710883Y-74605329D01*
X118728607Y-74621393D01*
X118744671Y-74639117D01*
X118758921Y-74658330D01*
X118771218Y-74678847D01*
X118781446Y-74700471D01*
X118789504Y-74722993D01*
X118795316Y-74746197D01*
X118798826Y-74769858D01*
X118800000Y-74793750D01*
X118800000Y-75706250D01*
X118798826Y-75730142D01*
X118795316Y-75753803D01*
X118789504Y-75777007D01*
X118781446Y-75799529D01*
X118771218Y-75821153D01*
X118758921Y-75841670D01*
X118744671Y-75860883D01*
X118728607Y-75878607D01*
X118710883Y-75894671D01*
X118691670Y-75908921D01*
X118671153Y-75921218D01*
X118649529Y-75931446D01*
X118627007Y-75939504D01*
X118603803Y-75945316D01*
X118580142Y-75948826D01*
X118556250Y-75950000D01*
X118068750Y-75950000D01*
X118044858Y-75948826D01*
X118021197Y-75945316D01*
X117997993Y-75939504D01*
X117975471Y-75931446D01*
X117953847Y-75921218D01*
X117933330Y-75908921D01*
X117914117Y-75894671D01*
X117896393Y-75878607D01*
X117880329Y-75860883D01*
X117866079Y-75841670D01*
X117853782Y-75821153D01*
X117843554Y-75799529D01*
X117835496Y-75777007D01*
X117829684Y-75753803D01*
X117826174Y-75730142D01*
X117825000Y-75706250D01*
X117825000Y-74793750D01*
X117826174Y-74769858D01*
X117829684Y-74746197D01*
X117835496Y-74722993D01*
X117843554Y-74700471D01*
X117853782Y-74678847D01*
X117866079Y-74658330D01*
X117880329Y-74639117D01*
X117896393Y-74621393D01*
X117914117Y-74605329D01*
X117933330Y-74591079D01*
X117953847Y-74578782D01*
X117975471Y-74568554D01*
X117997993Y-74560496D01*
X118021197Y-74554684D01*
X118044858Y-74551174D01*
X118068750Y-74550000D01*
X118556250Y-74550000D01*
X118580142Y-74551174D01*
G37*
G36*
X120455142Y-74551174D02*
G01*
X120478803Y-74554684D01*
X120502007Y-74560496D01*
X120524529Y-74568554D01*
X120546153Y-74578782D01*
X120566670Y-74591079D01*
X120585883Y-74605329D01*
X120603607Y-74621393D01*
X120619671Y-74639117D01*
X120633921Y-74658330D01*
X120646218Y-74678847D01*
X120656446Y-74700471D01*
X120664504Y-74722993D01*
X120670316Y-74746197D01*
X120673826Y-74769858D01*
X120675000Y-74793750D01*
X120675000Y-75706250D01*
X120673826Y-75730142D01*
X120670316Y-75753803D01*
X120664504Y-75777007D01*
X120656446Y-75799529D01*
X120646218Y-75821153D01*
X120633921Y-75841670D01*
X120619671Y-75860883D01*
X120603607Y-75878607D01*
X120585883Y-75894671D01*
X120566670Y-75908921D01*
X120546153Y-75921218D01*
X120524529Y-75931446D01*
X120502007Y-75939504D01*
X120478803Y-75945316D01*
X120455142Y-75948826D01*
X120431250Y-75950000D01*
X119943750Y-75950000D01*
X119919858Y-75948826D01*
X119896197Y-75945316D01*
X119872993Y-75939504D01*
X119850471Y-75931446D01*
X119828847Y-75921218D01*
X119808330Y-75908921D01*
X119789117Y-75894671D01*
X119771393Y-75878607D01*
X119755329Y-75860883D01*
X119741079Y-75841670D01*
X119728782Y-75821153D01*
X119718554Y-75799529D01*
X119710496Y-75777007D01*
X119704684Y-75753803D01*
X119701174Y-75730142D01*
X119700000Y-75706250D01*
X119700000Y-74793750D01*
X119701174Y-74769858D01*
X119704684Y-74746197D01*
X119710496Y-74722993D01*
X119718554Y-74700471D01*
X119728782Y-74678847D01*
X119741079Y-74658330D01*
X119755329Y-74639117D01*
X119771393Y-74621393D01*
X119789117Y-74605329D01*
X119808330Y-74591079D01*
X119828847Y-74578782D01*
X119850471Y-74568554D01*
X119872993Y-74560496D01*
X119896197Y-74554684D01*
X119919858Y-74551174D01*
X119943750Y-74550000D01*
X120431250Y-74550000D01*
X120455142Y-74551174D01*
G37*
G36*
X128017642Y-74301174D02*
G01*
X128041303Y-74304684D01*
X128064507Y-74310496D01*
X128087029Y-74318554D01*
X128108653Y-74328782D01*
X128129170Y-74341079D01*
X128148383Y-74355329D01*
X128166107Y-74371393D01*
X128182171Y-74389117D01*
X128196421Y-74408330D01*
X128208718Y-74428847D01*
X128218946Y-74450471D01*
X128227004Y-74472993D01*
X128232816Y-74496197D01*
X128236326Y-74519858D01*
X128237500Y-74543750D01*
X128237500Y-75456250D01*
X128236326Y-75480142D01*
X128232816Y-75503803D01*
X128227004Y-75527007D01*
X128218946Y-75549529D01*
X128208718Y-75571153D01*
X128196421Y-75591670D01*
X128182171Y-75610883D01*
X128166107Y-75628607D01*
X128148383Y-75644671D01*
X128129170Y-75658921D01*
X128108653Y-75671218D01*
X128087029Y-75681446D01*
X128064507Y-75689504D01*
X128041303Y-75695316D01*
X128017642Y-75698826D01*
X127993750Y-75700000D01*
X127506250Y-75700000D01*
X127482358Y-75698826D01*
X127458697Y-75695316D01*
X127435493Y-75689504D01*
X127412971Y-75681446D01*
X127391347Y-75671218D01*
X127370830Y-75658921D01*
X127351617Y-75644671D01*
X127333893Y-75628607D01*
X127317829Y-75610883D01*
X127303579Y-75591670D01*
X127291282Y-75571153D01*
X127281054Y-75549529D01*
X127272996Y-75527007D01*
X127267184Y-75503803D01*
X127263674Y-75480142D01*
X127262500Y-75456250D01*
X127262500Y-74543750D01*
X127263674Y-74519858D01*
X127267184Y-74496197D01*
X127272996Y-74472993D01*
X127281054Y-74450471D01*
X127291282Y-74428847D01*
X127303579Y-74408330D01*
X127317829Y-74389117D01*
X127333893Y-74371393D01*
X127351617Y-74355329D01*
X127370830Y-74341079D01*
X127391347Y-74328782D01*
X127412971Y-74318554D01*
X127435493Y-74310496D01*
X127458697Y-74304684D01*
X127482358Y-74301174D01*
X127506250Y-74300000D01*
X127993750Y-74300000D01*
X128017642Y-74301174D01*
G37*
G36*
X129892642Y-74301174D02*
G01*
X129916303Y-74304684D01*
X129939507Y-74310496D01*
X129962029Y-74318554D01*
X129983653Y-74328782D01*
X130004170Y-74341079D01*
X130023383Y-74355329D01*
X130041107Y-74371393D01*
X130057171Y-74389117D01*
X130071421Y-74408330D01*
X130083718Y-74428847D01*
X130093946Y-74450471D01*
X130102004Y-74472993D01*
X130107816Y-74496197D01*
X130111326Y-74519858D01*
X130112500Y-74543750D01*
X130112500Y-75456250D01*
X130111326Y-75480142D01*
X130107816Y-75503803D01*
X130102004Y-75527007D01*
X130093946Y-75549529D01*
X130083718Y-75571153D01*
X130071421Y-75591670D01*
X130057171Y-75610883D01*
X130041107Y-75628607D01*
X130023383Y-75644671D01*
X130004170Y-75658921D01*
X129983653Y-75671218D01*
X129962029Y-75681446D01*
X129939507Y-75689504D01*
X129916303Y-75695316D01*
X129892642Y-75698826D01*
X129868750Y-75700000D01*
X129381250Y-75700000D01*
X129357358Y-75698826D01*
X129333697Y-75695316D01*
X129310493Y-75689504D01*
X129287971Y-75681446D01*
X129266347Y-75671218D01*
X129245830Y-75658921D01*
X129226617Y-75644671D01*
X129208893Y-75628607D01*
X129192829Y-75610883D01*
X129178579Y-75591670D01*
X129166282Y-75571153D01*
X129156054Y-75549529D01*
X129147996Y-75527007D01*
X129142184Y-75503803D01*
X129138674Y-75480142D01*
X129137500Y-75456250D01*
X129137500Y-74543750D01*
X129138674Y-74519858D01*
X129142184Y-74496197D01*
X129147996Y-74472993D01*
X129156054Y-74450471D01*
X129166282Y-74428847D01*
X129178579Y-74408330D01*
X129192829Y-74389117D01*
X129208893Y-74371393D01*
X129226617Y-74355329D01*
X129245830Y-74341079D01*
X129266347Y-74328782D01*
X129287971Y-74318554D01*
X129310493Y-74310496D01*
X129333697Y-74304684D01*
X129357358Y-74301174D01*
X129381250Y-74300000D01*
X129868750Y-74300000D01*
X129892642Y-74301174D01*
G37*
G36*
X128980142Y-63451174D02*
G01*
X129003803Y-63454684D01*
X129027007Y-63460496D01*
X129049529Y-63468554D01*
X129071153Y-63478782D01*
X129091670Y-63491079D01*
X129110883Y-63505329D01*
X129128607Y-63521393D01*
X129144671Y-63539117D01*
X129158921Y-63558330D01*
X129171218Y-63578847D01*
X129181446Y-63600471D01*
X129189504Y-63622993D01*
X129195316Y-63646197D01*
X129198826Y-63669858D01*
X129200000Y-63693750D01*
X129200000Y-64181250D01*
X129198826Y-64205142D01*
X129195316Y-64228803D01*
X129189504Y-64252007D01*
X129181446Y-64274529D01*
X129171218Y-64296153D01*
X129158921Y-64316670D01*
X129144671Y-64335883D01*
X129128607Y-64353607D01*
X129110883Y-64369671D01*
X129091670Y-64383921D01*
X129071153Y-64396218D01*
X129049529Y-64406446D01*
X129027007Y-64414504D01*
X129003803Y-64420316D01*
X128980142Y-64423826D01*
X128956250Y-64425000D01*
X128043750Y-64425000D01*
X128019858Y-64423826D01*
X127996197Y-64420316D01*
X127972993Y-64414504D01*
X127950471Y-64406446D01*
X127928847Y-64396218D01*
X127908330Y-64383921D01*
X127889117Y-64369671D01*
X127871393Y-64353607D01*
X127855329Y-64335883D01*
X127841079Y-64316670D01*
X127828782Y-64296153D01*
X127818554Y-64274529D01*
X127810496Y-64252007D01*
X127804684Y-64228803D01*
X127801174Y-64205142D01*
X127800000Y-64181250D01*
X127800000Y-63693750D01*
X127801174Y-63669858D01*
X127804684Y-63646197D01*
X127810496Y-63622993D01*
X127818554Y-63600471D01*
X127828782Y-63578847D01*
X127841079Y-63558330D01*
X127855329Y-63539117D01*
X127871393Y-63521393D01*
X127889117Y-63505329D01*
X127908330Y-63491079D01*
X127928847Y-63478782D01*
X127950471Y-63468554D01*
X127972993Y-63460496D01*
X127996197Y-63454684D01*
X128019858Y-63451174D01*
X128043750Y-63450000D01*
X128956250Y-63450000D01*
X128980142Y-63451174D01*
G37*
G36*
X128980142Y-61576174D02*
G01*
X129003803Y-61579684D01*
X129027007Y-61585496D01*
X129049529Y-61593554D01*
X129071153Y-61603782D01*
X129091670Y-61616079D01*
X129110883Y-61630329D01*
X129128607Y-61646393D01*
X129144671Y-61664117D01*
X129158921Y-61683330D01*
X129171218Y-61703847D01*
X129181446Y-61725471D01*
X129189504Y-61747993D01*
X129195316Y-61771197D01*
X129198826Y-61794858D01*
X129200000Y-61818750D01*
X129200000Y-62306250D01*
X129198826Y-62330142D01*
X129195316Y-62353803D01*
X129189504Y-62377007D01*
X129181446Y-62399529D01*
X129171218Y-62421153D01*
X129158921Y-62441670D01*
X129144671Y-62460883D01*
X129128607Y-62478607D01*
X129110883Y-62494671D01*
X129091670Y-62508921D01*
X129071153Y-62521218D01*
X129049529Y-62531446D01*
X129027007Y-62539504D01*
X129003803Y-62545316D01*
X128980142Y-62548826D01*
X128956250Y-62550000D01*
X128043750Y-62550000D01*
X128019858Y-62548826D01*
X127996197Y-62545316D01*
X127972993Y-62539504D01*
X127950471Y-62531446D01*
X127928847Y-62521218D01*
X127908330Y-62508921D01*
X127889117Y-62494671D01*
X127871393Y-62478607D01*
X127855329Y-62460883D01*
X127841079Y-62441670D01*
X127828782Y-62421153D01*
X127818554Y-62399529D01*
X127810496Y-62377007D01*
X127804684Y-62353803D01*
X127801174Y-62330142D01*
X127800000Y-62306250D01*
X127800000Y-61818750D01*
X127801174Y-61794858D01*
X127804684Y-61771197D01*
X127810496Y-61747993D01*
X127818554Y-61725471D01*
X127828782Y-61703847D01*
X127841079Y-61683330D01*
X127855329Y-61664117D01*
X127871393Y-61646393D01*
X127889117Y-61630329D01*
X127908330Y-61616079D01*
X127928847Y-61603782D01*
X127950471Y-61593554D01*
X127972993Y-61585496D01*
X127996197Y-61579684D01*
X128019858Y-61576174D01*
X128043750Y-61575000D01*
X128956250Y-61575000D01*
X128980142Y-61576174D01*
G37*
G36*
X120205142Y-63051174D02*
G01*
X120228803Y-63054684D01*
X120252007Y-63060496D01*
X120274529Y-63068554D01*
X120296153Y-63078782D01*
X120316670Y-63091079D01*
X120335883Y-63105329D01*
X120353607Y-63121393D01*
X120369671Y-63139117D01*
X120383921Y-63158330D01*
X120396218Y-63178847D01*
X120406446Y-63200471D01*
X120414504Y-63222993D01*
X120420316Y-63246197D01*
X120423826Y-63269858D01*
X120425000Y-63293750D01*
X120425000Y-64206250D01*
X120423826Y-64230142D01*
X120420316Y-64253803D01*
X120414504Y-64277007D01*
X120406446Y-64299529D01*
X120396218Y-64321153D01*
X120383921Y-64341670D01*
X120369671Y-64360883D01*
X120353607Y-64378607D01*
X120335883Y-64394671D01*
X120316670Y-64408921D01*
X120296153Y-64421218D01*
X120274529Y-64431446D01*
X120252007Y-64439504D01*
X120228803Y-64445316D01*
X120205142Y-64448826D01*
X120181250Y-64450000D01*
X119693750Y-64450000D01*
X119669858Y-64448826D01*
X119646197Y-64445316D01*
X119622993Y-64439504D01*
X119600471Y-64431446D01*
X119578847Y-64421218D01*
X119558330Y-64408921D01*
X119539117Y-64394671D01*
X119521393Y-64378607D01*
X119505329Y-64360883D01*
X119491079Y-64341670D01*
X119478782Y-64321153D01*
X119468554Y-64299529D01*
X119460496Y-64277007D01*
X119454684Y-64253803D01*
X119451174Y-64230142D01*
X119450000Y-64206250D01*
X119450000Y-63293750D01*
X119451174Y-63269858D01*
X119454684Y-63246197D01*
X119460496Y-63222993D01*
X119468554Y-63200471D01*
X119478782Y-63178847D01*
X119491079Y-63158330D01*
X119505329Y-63139117D01*
X119521393Y-63121393D01*
X119539117Y-63105329D01*
X119558330Y-63091079D01*
X119578847Y-63078782D01*
X119600471Y-63068554D01*
X119622993Y-63060496D01*
X119646197Y-63054684D01*
X119669858Y-63051174D01*
X119693750Y-63050000D01*
X120181250Y-63050000D01*
X120205142Y-63051174D01*
G37*
G36*
X118330142Y-63051174D02*
G01*
X118353803Y-63054684D01*
X118377007Y-63060496D01*
X118399529Y-63068554D01*
X118421153Y-63078782D01*
X118441670Y-63091079D01*
X118460883Y-63105329D01*
X118478607Y-63121393D01*
X118494671Y-63139117D01*
X118508921Y-63158330D01*
X118521218Y-63178847D01*
X118531446Y-63200471D01*
X118539504Y-63222993D01*
X118545316Y-63246197D01*
X118548826Y-63269858D01*
X118550000Y-63293750D01*
X118550000Y-64206250D01*
X118548826Y-64230142D01*
X118545316Y-64253803D01*
X118539504Y-64277007D01*
X118531446Y-64299529D01*
X118521218Y-64321153D01*
X118508921Y-64341670D01*
X118494671Y-64360883D01*
X118478607Y-64378607D01*
X118460883Y-64394671D01*
X118441670Y-64408921D01*
X118421153Y-64421218D01*
X118399529Y-64431446D01*
X118377007Y-64439504D01*
X118353803Y-64445316D01*
X118330142Y-64448826D01*
X118306250Y-64450000D01*
X117818750Y-64450000D01*
X117794858Y-64448826D01*
X117771197Y-64445316D01*
X117747993Y-64439504D01*
X117725471Y-64431446D01*
X117703847Y-64421218D01*
X117683330Y-64408921D01*
X117664117Y-64394671D01*
X117646393Y-64378607D01*
X117630329Y-64360883D01*
X117616079Y-64341670D01*
X117603782Y-64321153D01*
X117593554Y-64299529D01*
X117585496Y-64277007D01*
X117579684Y-64253803D01*
X117576174Y-64230142D01*
X117575000Y-64206250D01*
X117575000Y-63293750D01*
X117576174Y-63269858D01*
X117579684Y-63246197D01*
X117585496Y-63222993D01*
X117593554Y-63200471D01*
X117603782Y-63178847D01*
X117616079Y-63158330D01*
X117630329Y-63139117D01*
X117646393Y-63121393D01*
X117664117Y-63105329D01*
X117683330Y-63091079D01*
X117703847Y-63078782D01*
X117725471Y-63068554D01*
X117747993Y-63060496D01*
X117771197Y-63054684D01*
X117794858Y-63051174D01*
X117818750Y-63050000D01*
X118306250Y-63050000D01*
X118330142Y-63051174D01*
G37*
D16*
X179500000Y-76250000D03*
X177500000Y-77200000D03*
X177500000Y-75300000D03*
D17*
X188000000Y-74250000D03*
X188960000Y-76250000D03*
X187040000Y-76250000D03*
D16*
X147750000Y-76250000D03*
X145750000Y-77200000D03*
X145750000Y-75300000D03*
D18*
X157250000Y-76000000D03*
X155250000Y-76960000D03*
X155250000Y-75040000D03*
D16*
X179500000Y-89750000D03*
X177500000Y-90700000D03*
X177500000Y-88800000D03*
D18*
X188500000Y-88500000D03*
X186500000Y-89460000D03*
X186500000Y-87540000D03*
D16*
X137500000Y-63000000D03*
X135500000Y-63950000D03*
X135500000Y-62050000D03*
D18*
X146250000Y-62250000D03*
X144250000Y-63210000D03*
X144250000Y-61290000D03*
D16*
X116750000Y-50500000D03*
X114750000Y-51450000D03*
X114750000Y-49550000D03*
D18*
X125000000Y-50750000D03*
X123000000Y-51710000D03*
X123000000Y-49790000D03*
D16*
X184000000Y-62000000D03*
X186000000Y-61050000D03*
X186000000Y-62950000D03*
D18*
X175250000Y-62750000D03*
X177250000Y-61790000D03*
X177250000Y-63710000D03*
D16*
X125000000Y-76000000D03*
X123000000Y-76950000D03*
X123000000Y-75050000D03*
D18*
X134250000Y-76250000D03*
X132250000Y-77210000D03*
X132250000Y-75290000D03*
D19*
X124250000Y-64000000D03*
X123300000Y-62000000D03*
X125200000Y-62000000D03*
D17*
X114750000Y-64000000D03*
X113790000Y-62000000D03*
X115710000Y-62000000D03*
D20*
X179820000Y-130440000D03*
X179820000Y-128540000D03*
X182620000Y-128540000D03*
X182620000Y-129490000D03*
X182620000Y-130440000D03*
D12*
X162730000Y-60275000D03*
X163370000Y-60275000D03*
X164010000Y-60275000D03*
X164650000Y-60275000D03*
X165290000Y-60275000D03*
X165930000Y-60275000D03*
X166570000Y-60275000D03*
X167210000Y-60275000D03*
X167850000Y-60275000D03*
X168490000Y-60275000D03*
X169130000Y-60275000D03*
X169770000Y-60275000D03*
X169770000Y-65725000D03*
X169130000Y-65725000D03*
X168490000Y-65725000D03*
X167850000Y-65725000D03*
X167210000Y-65725000D03*
X166570000Y-65725000D03*
X165930000Y-65725000D03*
X165290000Y-65725000D03*
X164650000Y-65725000D03*
X164010000Y-65725000D03*
X163370000Y-65725000D03*
X162730000Y-65725000D03*
D21*
X188150000Y-135200000D03*
X188150000Y-136900000D03*
X188150000Y-138600000D03*
X183350000Y-138600000D03*
X183350000Y-136900000D03*
X183350000Y-135200000D03*
X188150000Y-108300000D03*
X188150000Y-110000000D03*
X188150000Y-111700000D03*
X183350000Y-111700000D03*
X183350000Y-110000000D03*
X183350000Y-108300000D03*
X188150000Y-121750000D03*
X188150000Y-123450000D03*
X188150000Y-125150000D03*
X183350000Y-125150000D03*
X183350000Y-123450000D03*
X183350000Y-121750000D03*
X188150000Y-94850000D03*
X188150000Y-96550000D03*
X188150000Y-98250000D03*
X183350000Y-98250000D03*
X183350000Y-96550000D03*
X183350000Y-94850000D03*
X188150000Y-67950000D03*
X188150000Y-69650000D03*
X188150000Y-71350000D03*
X183350000Y-71350000D03*
X183350000Y-69650000D03*
X183350000Y-67950000D03*
X188150000Y-81400000D03*
X188150000Y-83100000D03*
X188150000Y-84800000D03*
X183350000Y-84800000D03*
X183350000Y-83100000D03*
X183350000Y-81400000D03*
X188150000Y-54500000D03*
X188150000Y-56200000D03*
X188150000Y-57900000D03*
X183350000Y-57900000D03*
X183350000Y-56200000D03*
X183350000Y-54500000D03*
X188150000Y-41050000D03*
X188150000Y-42750000D03*
X188150000Y-44450000D03*
X183350000Y-44450000D03*
X183350000Y-42750000D03*
X183350000Y-41050000D03*
X162150000Y-135200000D03*
X162150000Y-136900000D03*
X162150000Y-138600000D03*
X157350000Y-138600000D03*
X157350000Y-136900000D03*
X157350000Y-135200000D03*
X162150000Y-108300000D03*
X162150000Y-110000000D03*
X162150000Y-111700000D03*
X157350000Y-111700000D03*
X157350000Y-110000000D03*
X157350000Y-108300000D03*
X162150000Y-121750000D03*
X162150000Y-123450000D03*
X162150000Y-125150000D03*
X157350000Y-125150000D03*
X157350000Y-123450000D03*
X157350000Y-121750000D03*
X162150000Y-94850000D03*
X162150000Y-96550000D03*
X162150000Y-98250000D03*
X157350000Y-98250000D03*
X157350000Y-96550000D03*
X157350000Y-94850000D03*
X162150000Y-67950000D03*
X162150000Y-69650000D03*
X162150000Y-71350000D03*
X157350000Y-71350000D03*
X157350000Y-69650000D03*
X157350000Y-67950000D03*
X162150000Y-81400000D03*
X162150000Y-83100000D03*
X162150000Y-84800000D03*
X157350000Y-84800000D03*
X157350000Y-83100000D03*
X157350000Y-81400000D03*
X162150000Y-54500000D03*
X162150000Y-56200000D03*
X162150000Y-57900000D03*
X157350000Y-57900000D03*
X157350000Y-56200000D03*
X157350000Y-54500000D03*
X162150000Y-41050000D03*
X162150000Y-42750000D03*
X162150000Y-44450000D03*
X157350000Y-44450000D03*
X157350000Y-42750000D03*
X157350000Y-41050000D03*
X201150000Y-135200000D03*
X201150000Y-136900000D03*
X201150000Y-138600000D03*
X196350000Y-138600000D03*
X196350000Y-136900000D03*
X196350000Y-135200000D03*
X201150000Y-108300000D03*
X201150000Y-110000000D03*
X201150000Y-111700000D03*
X196350000Y-111700000D03*
X196350000Y-110000000D03*
X196350000Y-108300000D03*
X201150000Y-121750000D03*
X201150000Y-123450000D03*
X201150000Y-125150000D03*
X196350000Y-125150000D03*
X196350000Y-123450000D03*
X196350000Y-121750000D03*
X201150000Y-94850000D03*
X201150000Y-96550000D03*
X201150000Y-98250000D03*
X196350000Y-98250000D03*
X196350000Y-96550000D03*
X196350000Y-94850000D03*
X201150000Y-67950000D03*
X201150000Y-69650000D03*
X201150000Y-71350000D03*
X196350000Y-71350000D03*
X196350000Y-69650000D03*
X196350000Y-67950000D03*
X201150000Y-81400000D03*
X201150000Y-83100000D03*
X201150000Y-84800000D03*
X196350000Y-84800000D03*
X196350000Y-83100000D03*
X196350000Y-81400000D03*
X201150000Y-54500000D03*
X201150000Y-56200000D03*
X201150000Y-57900000D03*
X196350000Y-57900000D03*
X196350000Y-56200000D03*
X196350000Y-54500000D03*
X201150000Y-41050000D03*
X201150000Y-42750000D03*
X201150000Y-44450000D03*
X196350000Y-44450000D03*
X196350000Y-42750000D03*
X196350000Y-41050000D03*
X149150000Y-135200000D03*
X149150000Y-136900000D03*
X149150000Y-138600000D03*
X144350000Y-138600000D03*
X144350000Y-136900000D03*
X144350000Y-135200000D03*
X149150000Y-108300000D03*
X149150000Y-110000000D03*
X149150000Y-111700000D03*
X144350000Y-111700000D03*
X144350000Y-110000000D03*
X144350000Y-108300000D03*
X149150000Y-121750000D03*
X149150000Y-123450000D03*
X149150000Y-125150000D03*
X144350000Y-125150000D03*
X144350000Y-123450000D03*
X144350000Y-121750000D03*
X149150000Y-94850000D03*
X149150000Y-96550000D03*
X149150000Y-98250000D03*
X144350000Y-98250000D03*
X144350000Y-96550000D03*
X144350000Y-94850000D03*
X149150000Y-67950000D03*
X149150000Y-69650000D03*
X149150000Y-71350000D03*
X144350000Y-71350000D03*
X144350000Y-69650000D03*
X144350000Y-67950000D03*
X149150000Y-81400000D03*
X149150000Y-83100000D03*
X149150000Y-84800000D03*
X144350000Y-84800000D03*
X144350000Y-83100000D03*
X144350000Y-81400000D03*
X149150000Y-54500000D03*
X149150000Y-56200000D03*
X149150000Y-57900000D03*
X144350000Y-57900000D03*
X144350000Y-56200000D03*
X144350000Y-54500000D03*
X149150000Y-41050000D03*
X149150000Y-42750000D03*
X149150000Y-44450000D03*
X144350000Y-44450000D03*
X144350000Y-42750000D03*
X144350000Y-41050000D03*
X123150000Y-135200000D03*
X123150000Y-136900000D03*
X123150000Y-138600000D03*
X118350000Y-138600000D03*
X118350000Y-136900000D03*
X118350000Y-135200000D03*
X123150000Y-108300000D03*
X123150000Y-110000000D03*
X123150000Y-111700000D03*
X118350000Y-111700000D03*
X118350000Y-110000000D03*
X118350000Y-108300000D03*
X123150000Y-121750000D03*
X123150000Y-123450000D03*
X123150000Y-125150000D03*
X118350000Y-125150000D03*
X118350000Y-123450000D03*
X118350000Y-121750000D03*
X123150000Y-94850000D03*
X123150000Y-96550000D03*
X123150000Y-98250000D03*
X118350000Y-98250000D03*
X118350000Y-96550000D03*
X118350000Y-94850000D03*
X123150000Y-67950000D03*
X123150000Y-69650000D03*
X123150000Y-71350000D03*
X118350000Y-71350000D03*
X118350000Y-69650000D03*
X118350000Y-67950000D03*
X123150000Y-81400000D03*
X123150000Y-83100000D03*
X123150000Y-84800000D03*
X118350000Y-84800000D03*
X118350000Y-83100000D03*
X118350000Y-81400000D03*
X123150000Y-54500000D03*
X123150000Y-56200000D03*
X123150000Y-57900000D03*
X118350000Y-57900000D03*
X118350000Y-56200000D03*
X118350000Y-54500000D03*
X123150000Y-41050000D03*
X123150000Y-42750000D03*
X123150000Y-44450000D03*
X118350000Y-44450000D03*
X118350000Y-42750000D03*
X118350000Y-41050000D03*
X175150000Y-135200000D03*
X175150000Y-136900000D03*
X175150000Y-138600000D03*
X170350000Y-138600000D03*
X170350000Y-136900000D03*
X170350000Y-135200000D03*
X175150000Y-108300000D03*
X175150000Y-110000000D03*
X175150000Y-111700000D03*
X170350000Y-111700000D03*
X170350000Y-110000000D03*
X170350000Y-108300000D03*
X175150000Y-121750000D03*
X175150000Y-123450000D03*
X175150000Y-125150000D03*
X170350000Y-125150000D03*
X170350000Y-123450000D03*
X170350000Y-121750000D03*
X175150000Y-94850000D03*
X175150000Y-96550000D03*
X175150000Y-98250000D03*
X170350000Y-98250000D03*
X170350000Y-96550000D03*
X170350000Y-94850000D03*
X175150000Y-67950000D03*
X175150000Y-69650000D03*
X175150000Y-71350000D03*
X170350000Y-71350000D03*
X170350000Y-69650000D03*
X170350000Y-67950000D03*
X175150000Y-81400000D03*
X175150000Y-83100000D03*
X175150000Y-84800000D03*
X170350000Y-84800000D03*
X170350000Y-83100000D03*
X170350000Y-81400000D03*
X175150000Y-54500000D03*
X175150000Y-56200000D03*
X175150000Y-57900000D03*
X170350000Y-57900000D03*
X170350000Y-56200000D03*
X170350000Y-54500000D03*
X175150000Y-41050000D03*
X175150000Y-42750000D03*
X175150000Y-44450000D03*
X170350000Y-44450000D03*
X170350000Y-42750000D03*
X170350000Y-41050000D03*
X136150000Y-135200000D03*
X136150000Y-136900000D03*
X136150000Y-138600000D03*
X131350000Y-138600000D03*
X131350000Y-136900000D03*
X131350000Y-135200000D03*
X136150000Y-108300000D03*
X136150000Y-110000000D03*
X136150000Y-111700000D03*
X131350000Y-111700000D03*
X131350000Y-110000000D03*
X131350000Y-108300000D03*
X136150000Y-121750000D03*
X136150000Y-123450000D03*
X136150000Y-125150000D03*
X131350000Y-125150000D03*
X131350000Y-123450000D03*
X131350000Y-121750000D03*
X136150000Y-94850000D03*
X136150000Y-96550000D03*
X136150000Y-98250000D03*
X131350000Y-98250000D03*
X131350000Y-96550000D03*
X131350000Y-94850000D03*
X136150000Y-67950000D03*
X136150000Y-69650000D03*
X136150000Y-71350000D03*
X131350000Y-71350000D03*
X131350000Y-69650000D03*
X131350000Y-67950000D03*
X136150000Y-81400000D03*
X136150000Y-83100000D03*
X136150000Y-84800000D03*
X131350000Y-84800000D03*
X131350000Y-83100000D03*
X131350000Y-81400000D03*
X136150000Y-54500000D03*
X136150000Y-56200000D03*
X136150000Y-57900000D03*
X131350000Y-57900000D03*
X131350000Y-56200000D03*
X131350000Y-54500000D03*
X136150000Y-41050000D03*
X136150000Y-42750000D03*
X136150000Y-44450000D03*
X131350000Y-44450000D03*
X131350000Y-42750000D03*
X131350000Y-41050000D03*
X110150000Y-135200000D03*
X110150000Y-136900000D03*
X110150000Y-138600000D03*
X105350000Y-138600000D03*
X105350000Y-136900000D03*
X105350000Y-135200000D03*
X110150000Y-108300000D03*
X110150000Y-110000000D03*
X110150000Y-111700000D03*
X105350000Y-111700000D03*
X105350000Y-110000000D03*
X105350000Y-108300000D03*
X110150000Y-121750000D03*
X110150000Y-123450000D03*
X110150000Y-125150000D03*
X105350000Y-125150000D03*
X105350000Y-123450000D03*
X105350000Y-121750000D03*
X110150000Y-94850000D03*
X110150000Y-96550000D03*
X110150000Y-98250000D03*
X105350000Y-98250000D03*
X105350000Y-96550000D03*
X105350000Y-94850000D03*
X110150000Y-67950000D03*
X110150000Y-69650000D03*
X110150000Y-71350000D03*
X105350000Y-71350000D03*
X105350000Y-69650000D03*
X105350000Y-67950000D03*
X110150000Y-81400000D03*
X110150000Y-83100000D03*
X110150000Y-84800000D03*
X105350000Y-84800000D03*
X105350000Y-83100000D03*
X105350000Y-81400000D03*
X110150000Y-54500000D03*
X110150000Y-56200000D03*
X110150000Y-57900000D03*
X105350000Y-57900000D03*
X105350000Y-56200000D03*
X105350000Y-54500000D03*
X110150000Y-41050000D03*
X110150000Y-42750000D03*
X110150000Y-44450000D03*
X105350000Y-44450000D03*
X105350000Y-42750000D03*
X105350000Y-41050000D03*
D10*
G36*
X159480142Y-62451174D02*
G01*
X159503803Y-62454684D01*
X159527007Y-62460496D01*
X159549529Y-62468554D01*
X159571153Y-62478782D01*
X159591670Y-62491079D01*
X159610883Y-62505329D01*
X159628607Y-62521393D01*
X159644671Y-62539117D01*
X159658921Y-62558330D01*
X159671218Y-62578847D01*
X159681446Y-62600471D01*
X159689504Y-62622993D01*
X159695316Y-62646197D01*
X159698826Y-62669858D01*
X159700000Y-62693750D01*
X159700000Y-63181250D01*
X159698826Y-63205142D01*
X159695316Y-63228803D01*
X159689504Y-63252007D01*
X159681446Y-63274529D01*
X159671218Y-63296153D01*
X159658921Y-63316670D01*
X159644671Y-63335883D01*
X159628607Y-63353607D01*
X159610883Y-63369671D01*
X159591670Y-63383921D01*
X159571153Y-63396218D01*
X159549529Y-63406446D01*
X159527007Y-63414504D01*
X159503803Y-63420316D01*
X159480142Y-63423826D01*
X159456250Y-63425000D01*
X158543750Y-63425000D01*
X158519858Y-63423826D01*
X158496197Y-63420316D01*
X158472993Y-63414504D01*
X158450471Y-63406446D01*
X158428847Y-63396218D01*
X158408330Y-63383921D01*
X158389117Y-63369671D01*
X158371393Y-63353607D01*
X158355329Y-63335883D01*
X158341079Y-63316670D01*
X158328782Y-63296153D01*
X158318554Y-63274529D01*
X158310496Y-63252007D01*
X158304684Y-63228803D01*
X158301174Y-63205142D01*
X158300000Y-63181250D01*
X158300000Y-62693750D01*
X158301174Y-62669858D01*
X158304684Y-62646197D01*
X158310496Y-62622993D01*
X158318554Y-62600471D01*
X158328782Y-62578847D01*
X158341079Y-62558330D01*
X158355329Y-62539117D01*
X158371393Y-62521393D01*
X158389117Y-62505329D01*
X158408330Y-62491079D01*
X158428847Y-62478782D01*
X158450471Y-62468554D01*
X158472993Y-62460496D01*
X158496197Y-62454684D01*
X158519858Y-62451174D01*
X158543750Y-62450000D01*
X159456250Y-62450000D01*
X159480142Y-62451174D01*
G37*
G36*
X159480142Y-60576174D02*
G01*
X159503803Y-60579684D01*
X159527007Y-60585496D01*
X159549529Y-60593554D01*
X159571153Y-60603782D01*
X159591670Y-60616079D01*
X159610883Y-60630329D01*
X159628607Y-60646393D01*
X159644671Y-60664117D01*
X159658921Y-60683330D01*
X159671218Y-60703847D01*
X159681446Y-60725471D01*
X159689504Y-60747993D01*
X159695316Y-60771197D01*
X159698826Y-60794858D01*
X159700000Y-60818750D01*
X159700000Y-61306250D01*
X159698826Y-61330142D01*
X159695316Y-61353803D01*
X159689504Y-61377007D01*
X159681446Y-61399529D01*
X159671218Y-61421153D01*
X159658921Y-61441670D01*
X159644671Y-61460883D01*
X159628607Y-61478607D01*
X159610883Y-61494671D01*
X159591670Y-61508921D01*
X159571153Y-61521218D01*
X159549529Y-61531446D01*
X159527007Y-61539504D01*
X159503803Y-61545316D01*
X159480142Y-61548826D01*
X159456250Y-61550000D01*
X158543750Y-61550000D01*
X158519858Y-61548826D01*
X158496197Y-61545316D01*
X158472993Y-61539504D01*
X158450471Y-61531446D01*
X158428847Y-61521218D01*
X158408330Y-61508921D01*
X158389117Y-61494671D01*
X158371393Y-61478607D01*
X158355329Y-61460883D01*
X158341079Y-61441670D01*
X158328782Y-61421153D01*
X158318554Y-61399529D01*
X158310496Y-61377007D01*
X158304684Y-61353803D01*
X158301174Y-61330142D01*
X158300000Y-61306250D01*
X158300000Y-60818750D01*
X158301174Y-60794858D01*
X158304684Y-60771197D01*
X158310496Y-60747993D01*
X158318554Y-60725471D01*
X158328782Y-60703847D01*
X158341079Y-60683330D01*
X158355329Y-60664117D01*
X158371393Y-60646393D01*
X158389117Y-60630329D01*
X158408330Y-60616079D01*
X158428847Y-60603782D01*
X158450471Y-60593554D01*
X158472993Y-60585496D01*
X158496197Y-60579684D01*
X158519858Y-60576174D01*
X158543750Y-60575000D01*
X159456250Y-60575000D01*
X159480142Y-60576174D01*
G37*
G36*
X187255142Y-127941174D02*
G01*
X187278803Y-127944684D01*
X187302007Y-127950496D01*
X187324529Y-127958554D01*
X187346153Y-127968782D01*
X187366670Y-127981079D01*
X187385883Y-127995329D01*
X187403607Y-128011393D01*
X187419671Y-128029117D01*
X187433921Y-128048330D01*
X187446218Y-128068847D01*
X187456446Y-128090471D01*
X187464504Y-128112993D01*
X187470316Y-128136197D01*
X187473826Y-128159858D01*
X187475000Y-128183750D01*
X187475000Y-129096250D01*
X187473826Y-129120142D01*
X187470316Y-129143803D01*
X187464504Y-129167007D01*
X187456446Y-129189529D01*
X187446218Y-129211153D01*
X187433921Y-129231670D01*
X187419671Y-129250883D01*
X187403607Y-129268607D01*
X187385883Y-129284671D01*
X187366670Y-129298921D01*
X187346153Y-129311218D01*
X187324529Y-129321446D01*
X187302007Y-129329504D01*
X187278803Y-129335316D01*
X187255142Y-129338826D01*
X187231250Y-129340000D01*
X186743750Y-129340000D01*
X186719858Y-129338826D01*
X186696197Y-129335316D01*
X186672993Y-129329504D01*
X186650471Y-129321446D01*
X186628847Y-129311218D01*
X186608330Y-129298921D01*
X186589117Y-129284671D01*
X186571393Y-129268607D01*
X186555329Y-129250883D01*
X186541079Y-129231670D01*
X186528782Y-129211153D01*
X186518554Y-129189529D01*
X186510496Y-129167007D01*
X186504684Y-129143803D01*
X186501174Y-129120142D01*
X186500000Y-129096250D01*
X186500000Y-128183750D01*
X186501174Y-128159858D01*
X186504684Y-128136197D01*
X186510496Y-128112993D01*
X186518554Y-128090471D01*
X186528782Y-128068847D01*
X186541079Y-128048330D01*
X186555329Y-128029117D01*
X186571393Y-128011393D01*
X186589117Y-127995329D01*
X186608330Y-127981079D01*
X186628847Y-127968782D01*
X186650471Y-127958554D01*
X186672993Y-127950496D01*
X186696197Y-127944684D01*
X186719858Y-127941174D01*
X186743750Y-127940000D01*
X187231250Y-127940000D01*
X187255142Y-127941174D01*
G37*
G36*
X185380142Y-127941174D02*
G01*
X185403803Y-127944684D01*
X185427007Y-127950496D01*
X185449529Y-127958554D01*
X185471153Y-127968782D01*
X185491670Y-127981079D01*
X185510883Y-127995329D01*
X185528607Y-128011393D01*
X185544671Y-128029117D01*
X185558921Y-128048330D01*
X185571218Y-128068847D01*
X185581446Y-128090471D01*
X185589504Y-128112993D01*
X185595316Y-128136197D01*
X185598826Y-128159858D01*
X185600000Y-128183750D01*
X185600000Y-129096250D01*
X185598826Y-129120142D01*
X185595316Y-129143803D01*
X185589504Y-129167007D01*
X185581446Y-129189529D01*
X185571218Y-129211153D01*
X185558921Y-129231670D01*
X185544671Y-129250883D01*
X185528607Y-129268607D01*
X185510883Y-129284671D01*
X185491670Y-129298921D01*
X185471153Y-129311218D01*
X185449529Y-129321446D01*
X185427007Y-129329504D01*
X185403803Y-129335316D01*
X185380142Y-129338826D01*
X185356250Y-129340000D01*
X184868750Y-129340000D01*
X184844858Y-129338826D01*
X184821197Y-129335316D01*
X184797993Y-129329504D01*
X184775471Y-129321446D01*
X184753847Y-129311218D01*
X184733330Y-129298921D01*
X184714117Y-129284671D01*
X184696393Y-129268607D01*
X184680329Y-129250883D01*
X184666079Y-129231670D01*
X184653782Y-129211153D01*
X184643554Y-129189529D01*
X184635496Y-129167007D01*
X184629684Y-129143803D01*
X184626174Y-129120142D01*
X184625000Y-129096250D01*
X184625000Y-128183750D01*
X184626174Y-128159858D01*
X184629684Y-128136197D01*
X184635496Y-128112993D01*
X184643554Y-128090471D01*
X184653782Y-128068847D01*
X184666079Y-128048330D01*
X184680329Y-128029117D01*
X184696393Y-128011393D01*
X184714117Y-127995329D01*
X184733330Y-127981079D01*
X184753847Y-127968782D01*
X184775471Y-127958554D01*
X184797993Y-127950496D01*
X184821197Y-127944684D01*
X184844858Y-127941174D01*
X184868750Y-127940000D01*
X185356250Y-127940000D01*
X185380142Y-127941174D01*
G37*
G36*
X175080142Y-129301174D02*
G01*
X175103803Y-129304684D01*
X175127007Y-129310496D01*
X175149529Y-129318554D01*
X175171153Y-129328782D01*
X175191670Y-129341079D01*
X175210883Y-129355329D01*
X175228607Y-129371393D01*
X175244671Y-129389117D01*
X175258921Y-129408330D01*
X175271218Y-129428847D01*
X175281446Y-129450471D01*
X175289504Y-129472993D01*
X175295316Y-129496197D01*
X175298826Y-129519858D01*
X175300000Y-129543750D01*
X175300000Y-130456250D01*
X175298826Y-130480142D01*
X175295316Y-130503803D01*
X175289504Y-130527007D01*
X175281446Y-130549529D01*
X175271218Y-130571153D01*
X175258921Y-130591670D01*
X175244671Y-130610883D01*
X175228607Y-130628607D01*
X175210883Y-130644671D01*
X175191670Y-130658921D01*
X175171153Y-130671218D01*
X175149529Y-130681446D01*
X175127007Y-130689504D01*
X175103803Y-130695316D01*
X175080142Y-130698826D01*
X175056250Y-130700000D01*
X174568750Y-130700000D01*
X174544858Y-130698826D01*
X174521197Y-130695316D01*
X174497993Y-130689504D01*
X174475471Y-130681446D01*
X174453847Y-130671218D01*
X174433330Y-130658921D01*
X174414117Y-130644671D01*
X174396393Y-130628607D01*
X174380329Y-130610883D01*
X174366079Y-130591670D01*
X174353782Y-130571153D01*
X174343554Y-130549529D01*
X174335496Y-130527007D01*
X174329684Y-130503803D01*
X174326174Y-130480142D01*
X174325000Y-130456250D01*
X174325000Y-129543750D01*
X174326174Y-129519858D01*
X174329684Y-129496197D01*
X174335496Y-129472993D01*
X174343554Y-129450471D01*
X174353782Y-129428847D01*
X174366079Y-129408330D01*
X174380329Y-129389117D01*
X174396393Y-129371393D01*
X174414117Y-129355329D01*
X174433330Y-129341079D01*
X174453847Y-129328782D01*
X174475471Y-129318554D01*
X174497993Y-129310496D01*
X174521197Y-129304684D01*
X174544858Y-129301174D01*
X174568750Y-129300000D01*
X175056250Y-129300000D01*
X175080142Y-129301174D01*
G37*
G36*
X176955142Y-129301174D02*
G01*
X176978803Y-129304684D01*
X177002007Y-129310496D01*
X177024529Y-129318554D01*
X177046153Y-129328782D01*
X177066670Y-129341079D01*
X177085883Y-129355329D01*
X177103607Y-129371393D01*
X177119671Y-129389117D01*
X177133921Y-129408330D01*
X177146218Y-129428847D01*
X177156446Y-129450471D01*
X177164504Y-129472993D01*
X177170316Y-129496197D01*
X177173826Y-129519858D01*
X177175000Y-129543750D01*
X177175000Y-130456250D01*
X177173826Y-130480142D01*
X177170316Y-130503803D01*
X177164504Y-130527007D01*
X177156446Y-130549529D01*
X177146218Y-130571153D01*
X177133921Y-130591670D01*
X177119671Y-130610883D01*
X177103607Y-130628607D01*
X177085883Y-130644671D01*
X177066670Y-130658921D01*
X177046153Y-130671218D01*
X177024529Y-130681446D01*
X177002007Y-130689504D01*
X176978803Y-130695316D01*
X176955142Y-130698826D01*
X176931250Y-130700000D01*
X176443750Y-130700000D01*
X176419858Y-130698826D01*
X176396197Y-130695316D01*
X176372993Y-130689504D01*
X176350471Y-130681446D01*
X176328847Y-130671218D01*
X176308330Y-130658921D01*
X176289117Y-130644671D01*
X176271393Y-130628607D01*
X176255329Y-130610883D01*
X176241079Y-130591670D01*
X176228782Y-130571153D01*
X176218554Y-130549529D01*
X176210496Y-130527007D01*
X176204684Y-130503803D01*
X176201174Y-130480142D01*
X176200000Y-130456250D01*
X176200000Y-129543750D01*
X176201174Y-129519858D01*
X176204684Y-129496197D01*
X176210496Y-129472993D01*
X176218554Y-129450471D01*
X176228782Y-129428847D01*
X176241079Y-129408330D01*
X176255329Y-129389117D01*
X176271393Y-129371393D01*
X176289117Y-129355329D01*
X176308330Y-129341079D01*
X176328847Y-129328782D01*
X176350471Y-129318554D01*
X176372993Y-129310496D01*
X176396197Y-129304684D01*
X176419858Y-129301174D01*
X176443750Y-129300000D01*
X176931250Y-129300000D01*
X176955142Y-129301174D01*
G37*
G36*
X118980142Y-103701174D02*
G01*
X119003803Y-103704684D01*
X119027007Y-103710496D01*
X119049529Y-103718554D01*
X119071153Y-103728782D01*
X119091670Y-103741079D01*
X119110883Y-103755329D01*
X119128607Y-103771393D01*
X119144671Y-103789117D01*
X119158921Y-103808330D01*
X119171218Y-103828847D01*
X119181446Y-103850471D01*
X119189504Y-103872993D01*
X119195316Y-103896197D01*
X119198826Y-103919858D01*
X119200000Y-103943750D01*
X119200000Y-104431250D01*
X119198826Y-104455142D01*
X119195316Y-104478803D01*
X119189504Y-104502007D01*
X119181446Y-104524529D01*
X119171218Y-104546153D01*
X119158921Y-104566670D01*
X119144671Y-104585883D01*
X119128607Y-104603607D01*
X119110883Y-104619671D01*
X119091670Y-104633921D01*
X119071153Y-104646218D01*
X119049529Y-104656446D01*
X119027007Y-104664504D01*
X119003803Y-104670316D01*
X118980142Y-104673826D01*
X118956250Y-104675000D01*
X118043750Y-104675000D01*
X118019858Y-104673826D01*
X117996197Y-104670316D01*
X117972993Y-104664504D01*
X117950471Y-104656446D01*
X117928847Y-104646218D01*
X117908330Y-104633921D01*
X117889117Y-104619671D01*
X117871393Y-104603607D01*
X117855329Y-104585883D01*
X117841079Y-104566670D01*
X117828782Y-104546153D01*
X117818554Y-104524529D01*
X117810496Y-104502007D01*
X117804684Y-104478803D01*
X117801174Y-104455142D01*
X117800000Y-104431250D01*
X117800000Y-103943750D01*
X117801174Y-103919858D01*
X117804684Y-103896197D01*
X117810496Y-103872993D01*
X117818554Y-103850471D01*
X117828782Y-103828847D01*
X117841079Y-103808330D01*
X117855329Y-103789117D01*
X117871393Y-103771393D01*
X117889117Y-103755329D01*
X117908330Y-103741079D01*
X117928847Y-103728782D01*
X117950471Y-103718554D01*
X117972993Y-103710496D01*
X117996197Y-103704684D01*
X118019858Y-103701174D01*
X118043750Y-103700000D01*
X118956250Y-103700000D01*
X118980142Y-103701174D01*
G37*
G36*
X118980142Y-101826174D02*
G01*
X119003803Y-101829684D01*
X119027007Y-101835496D01*
X119049529Y-101843554D01*
X119071153Y-101853782D01*
X119091670Y-101866079D01*
X119110883Y-101880329D01*
X119128607Y-101896393D01*
X119144671Y-101914117D01*
X119158921Y-101933330D01*
X119171218Y-101953847D01*
X119181446Y-101975471D01*
X119189504Y-101997993D01*
X119195316Y-102021197D01*
X119198826Y-102044858D01*
X119200000Y-102068750D01*
X119200000Y-102556250D01*
X119198826Y-102580142D01*
X119195316Y-102603803D01*
X119189504Y-102627007D01*
X119181446Y-102649529D01*
X119171218Y-102671153D01*
X119158921Y-102691670D01*
X119144671Y-102710883D01*
X119128607Y-102728607D01*
X119110883Y-102744671D01*
X119091670Y-102758921D01*
X119071153Y-102771218D01*
X119049529Y-102781446D01*
X119027007Y-102789504D01*
X119003803Y-102795316D01*
X118980142Y-102798826D01*
X118956250Y-102800000D01*
X118043750Y-102800000D01*
X118019858Y-102798826D01*
X117996197Y-102795316D01*
X117972993Y-102789504D01*
X117950471Y-102781446D01*
X117928847Y-102771218D01*
X117908330Y-102758921D01*
X117889117Y-102744671D01*
X117871393Y-102728607D01*
X117855329Y-102710883D01*
X117841079Y-102691670D01*
X117828782Y-102671153D01*
X117818554Y-102649529D01*
X117810496Y-102627007D01*
X117804684Y-102603803D01*
X117801174Y-102580142D01*
X117800000Y-102556250D01*
X117800000Y-102068750D01*
X117801174Y-102044858D01*
X117804684Y-102021197D01*
X117810496Y-101997993D01*
X117818554Y-101975471D01*
X117828782Y-101953847D01*
X117841079Y-101933330D01*
X117855329Y-101914117D01*
X117871393Y-101896393D01*
X117889117Y-101880329D01*
X117908330Y-101866079D01*
X117928847Y-101853782D01*
X117950471Y-101843554D01*
X117972993Y-101835496D01*
X117996197Y-101829684D01*
X118019858Y-101826174D01*
X118043750Y-101825000D01*
X118956250Y-101825000D01*
X118980142Y-101826174D01*
G37*
M02*
