G04 #@! TF.GenerationSoftware,KiCad,Pcbnew,(5.1.5)-3*
G04 #@! TF.CreationDate,2020-01-18T10:24:29-06:00*
G04 #@! TF.ProjectId,ledgrid,6c656467-7269-4642-9e6b-696361645f70,rev?*
G04 #@! TF.SameCoordinates,Original*
G04 #@! TF.FileFunction,Copper,L2,Bot*
G04 #@! TF.FilePolarity,Positive*
%FSLAX46Y46*%
G04 Gerber Fmt 4.6, Leading zero omitted, Abs format (unit mm)*
G04 Created by KiCad (PCBNEW (5.1.5)-3) date 2020-01-18 10:24:29*
%MOMM*%
%LPD*%
G04 APERTURE LIST*
%ADD10C,6.400000*%
%ADD11O,1.700000X1.700000*%
%ADD12R,1.700000X1.700000*%
%ADD13C,1.000000*%
%ADD14C,0.800000*%
%ADD15C,0.250000*%
%ADD16C,2.000000*%
%ADD17C,2.500000*%
G04 APERTURE END LIST*
D10*
X199250000Y-49000000D03*
X130250000Y-49500000D03*
X114500000Y-129000000D03*
D11*
X199790000Y-78040000D03*
X197250000Y-78040000D03*
X199790000Y-75500000D03*
D12*
X197250000Y-75500000D03*
D11*
X199790000Y-90790000D03*
X197250000Y-90790000D03*
X199790000Y-88250000D03*
D12*
X197250000Y-88250000D03*
D11*
X154540000Y-41710000D03*
X154540000Y-44250000D03*
X152000000Y-41710000D03*
D12*
X152000000Y-44250000D03*
D11*
X167540000Y-41710000D03*
X167540000Y-44250000D03*
X165000000Y-41710000D03*
D12*
X165000000Y-44250000D03*
D13*
X149860000Y-78740000D03*
X152400000Y-78740000D03*
X157480000Y-93980000D03*
X157480000Y-83750000D03*
X147320000Y-91440000D03*
X149860000Y-96520000D03*
X149860000Y-91440000D03*
X157480000Y-96520000D03*
D11*
X151960000Y-138040000D03*
X151960000Y-135500000D03*
X154500000Y-138040000D03*
D12*
X154500000Y-135500000D03*
D11*
X106710000Y-75460000D03*
X109250000Y-75460000D03*
X106710000Y-78000000D03*
D12*
X109250000Y-78000000D03*
D11*
X164960000Y-138040000D03*
X164960000Y-135500000D03*
X167500000Y-138040000D03*
D12*
X167500000Y-135500000D03*
D11*
X106710000Y-88210000D03*
X109250000Y-88210000D03*
X106710000Y-90750000D03*
D12*
X109250000Y-90750000D03*
D14*
X150750000Y-84000000D03*
X192250000Y-75000000D03*
X154250000Y-49175000D03*
X192250000Y-88250000D03*
X165000000Y-49500000D03*
X192250000Y-62250000D03*
X164500000Y-54750000D03*
X165000000Y-51750000D03*
X106500000Y-50500000D03*
X106750000Y-61000000D03*
X121750000Y-106000000D03*
X116250000Y-104500000D03*
X162750000Y-64250000D03*
X165000000Y-129250000D03*
X192000000Y-101500000D03*
X152750000Y-82500000D03*
X147250000Y-78750000D03*
X154500000Y-129250000D03*
X169750000Y-105250000D03*
X162750000Y-76250000D03*
X192249989Y-76000011D03*
X153325000Y-48925000D03*
X164000000Y-61750000D03*
X154500000Y-95000000D03*
X158250000Y-100000000D03*
X153250000Y-95500000D03*
X157000000Y-101000000D03*
X152500000Y-96500000D03*
X154500000Y-101750000D03*
X153500000Y-91000000D03*
X152510000Y-90760000D03*
X111500000Y-62000000D03*
X125750000Y-49000000D03*
X146500000Y-59500000D03*
X146250000Y-73750000D03*
X194750000Y-60000000D03*
X194500000Y-87250000D03*
X184500000Y-127000000D03*
X112000000Y-47000000D03*
X112000000Y-57500000D03*
X112000000Y-69750000D03*
X112250000Y-96500000D03*
X112250000Y-83000000D03*
X112399999Y-64100001D03*
X112250000Y-137000000D03*
X112250000Y-123500000D03*
X112250000Y-110000000D03*
X135750000Y-46750000D03*
X138000000Y-54500000D03*
X138000000Y-68000000D03*
X138000000Y-81500000D03*
X138000000Y-96500000D03*
X138500000Y-137000000D03*
X138467040Y-123782960D03*
X138432836Y-110067164D03*
X141000000Y-84250000D03*
X177000000Y-59000000D03*
X178500000Y-46500000D03*
X177500000Y-54500000D03*
X177000000Y-68000000D03*
X177000000Y-110000000D03*
X177000000Y-96500000D03*
X177000000Y-83250000D03*
X176950000Y-123450000D03*
X177000000Y-137000000D03*
X124750000Y-46750000D03*
X125250000Y-54500000D03*
X125250000Y-68750000D03*
X125250000Y-83000000D03*
X125250000Y-96500000D03*
X125250000Y-137000000D03*
X125250000Y-123500000D03*
X125250000Y-110000000D03*
X148250000Y-47500000D03*
X149250000Y-59750000D03*
X151250000Y-68000000D03*
X149500000Y-132500000D03*
X151250000Y-123500000D03*
X151250000Y-110250000D03*
X146350000Y-83250000D03*
X147000000Y-94750000D03*
X152426998Y-72500000D03*
X151150000Y-97500000D03*
X201750000Y-86750000D03*
X201750000Y-93000000D03*
X202000000Y-73000000D03*
X197500000Y-86250000D03*
X159250000Y-52750000D03*
X161250000Y-66500000D03*
X160000000Y-58000000D03*
X160250000Y-71250000D03*
X164000000Y-82250000D03*
X161425000Y-126675000D03*
X160250000Y-138500000D03*
X164000000Y-96500000D03*
X160250000Y-75250000D03*
X162250000Y-106750000D03*
X160250000Y-98250000D03*
X188150000Y-46650000D03*
X188250000Y-60250000D03*
X190000000Y-110000000D03*
X190000000Y-96500000D03*
X190000000Y-83000000D03*
X190000000Y-70000000D03*
X190000000Y-123500000D03*
X190000000Y-137000000D03*
X178500000Y-128750000D03*
X178500000Y-122000000D03*
X162750000Y-75000000D03*
X155250000Y-78500000D03*
X154137500Y-83000000D03*
X171250000Y-101250000D03*
X121437500Y-102312500D03*
X160500000Y-120250000D03*
X124000000Y-117500000D03*
X178500000Y-110500000D03*
X178500000Y-101750000D03*
X151250000Y-69250000D03*
X157250000Y-62000000D03*
X152250000Y-81000000D03*
X130750000Y-104250000D03*
X136500000Y-90750000D03*
X160250000Y-68750000D03*
X128250000Y-102500000D03*
X134750000Y-90750000D03*
X159000000Y-66750000D03*
X175750000Y-50250000D03*
X169250000Y-62250000D03*
X172000000Y-43500000D03*
X159500000Y-44000000D03*
X176000000Y-49000000D03*
X168000000Y-64000000D03*
X142250000Y-47500000D03*
X138000000Y-46500000D03*
X158125000Y-51375000D03*
X177000000Y-48000000D03*
X167750000Y-62250000D03*
X168000000Y-67500000D03*
X166500000Y-53500000D03*
X168250000Y-54000000D03*
X168500000Y-58500000D03*
X165250000Y-69000000D03*
X167750000Y-84750000D03*
X159950000Y-84800000D03*
X146500000Y-85000000D03*
X169149999Y-63850001D03*
X168250000Y-82750000D03*
X168250000Y-82750000D03*
X165000000Y-72500000D03*
X164000000Y-69250000D03*
X154725000Y-68275000D03*
X168250000Y-69000000D03*
X133500000Y-98500000D03*
X133250000Y-96500000D03*
X129500000Y-94750000D03*
X128500000Y-98500000D03*
X128574979Y-126925021D03*
X128500000Y-112000000D03*
X128900000Y-124650000D03*
X129525001Y-110724999D03*
X131350000Y-120350000D03*
X131250000Y-113750000D03*
X133250000Y-109750000D03*
X130500000Y-115250000D03*
X126875000Y-135375000D03*
X128250000Y-108250000D03*
X127600000Y-134400000D03*
X131500000Y-106250000D03*
X128500000Y-104000000D03*
X126075021Y-130924979D03*
X171750000Y-78000000D03*
X157938000Y-86812000D03*
X169000000Y-87500000D03*
X148312000Y-86812000D03*
X142749499Y-85749499D03*
X142500000Y-78500000D03*
X133500000Y-63000000D03*
X135750000Y-87000000D03*
X113500000Y-52500000D03*
X113500000Y-52500000D03*
X123500000Y-88500000D03*
X175000000Y-64750000D03*
X169750000Y-89000000D03*
X116500000Y-75500000D03*
X155925000Y-88325000D03*
X123750000Y-86750000D03*
X145750000Y-86500000D03*
X157000000Y-88250000D03*
X128500000Y-65250000D03*
X134000000Y-87750000D03*
X147000000Y-87000000D03*
X171000000Y-132250000D03*
X166500000Y-122000000D03*
X166500000Y-112750000D03*
X156750000Y-91000000D03*
X172275031Y-132974969D03*
X168000000Y-121000000D03*
X168000000Y-112500000D03*
X160250000Y-90778998D03*
X151250000Y-94500000D03*
X159500000Y-70500000D03*
X126250000Y-103000000D03*
X135500000Y-92000000D03*
X170000000Y-131500000D03*
X129000000Y-89500000D03*
X131000000Y-90750000D03*
X152250000Y-94250000D03*
X165000000Y-112750000D03*
X164750000Y-122500000D03*
D15*
X156980001Y-84249999D02*
X157480000Y-83750000D01*
X156830001Y-84399999D02*
X156980001Y-84249999D01*
X151149999Y-84399999D02*
X156830001Y-84399999D01*
X150750000Y-84000000D02*
X151149999Y-84399999D01*
D16*
X151960000Y-138040000D02*
X151960000Y-135500000D01*
D17*
X151799990Y-134381620D02*
X151799990Y-135500000D01*
D16*
X152000000Y-44250000D02*
X152000000Y-41710000D01*
X150797919Y-41710000D02*
X150757919Y-41750000D01*
X152000000Y-41710000D02*
X150797919Y-41710000D01*
D17*
X150797919Y-41710000D02*
X110040000Y-41710000D01*
X106710000Y-45040000D02*
X106710000Y-75460000D01*
X110040000Y-41710000D02*
X106710000Y-45040000D01*
D16*
X106710000Y-75460000D02*
X109250000Y-75460000D01*
D15*
X105860001Y-76309999D02*
X106710000Y-75460000D01*
X105384990Y-76785010D02*
X105860001Y-76309999D01*
X105384990Y-84344990D02*
X105384990Y-76785010D01*
X109250000Y-88210000D02*
X105384990Y-84344990D01*
X164100001Y-54350001D02*
X164100001Y-52649999D01*
X164500000Y-54750000D02*
X164100001Y-54350001D01*
X164100001Y-52649999D02*
X164750000Y-52000000D01*
X164750000Y-52000000D02*
X165000000Y-51750000D01*
X165000000Y-51750000D02*
X165000000Y-51750000D01*
X121350001Y-105600001D02*
X117350001Y-105600001D01*
X121750000Y-106000000D02*
X121350001Y-105600001D01*
X117350001Y-105600001D02*
X116250000Y-104500000D01*
X116250000Y-104500000D02*
X116250000Y-104500000D01*
X162750000Y-64250000D02*
X162750000Y-63000000D01*
X162750000Y-63000000D02*
X164000000Y-61750000D01*
X164000000Y-61750000D02*
X164000000Y-61750000D01*
X165000000Y-135460000D02*
X164960000Y-135500000D01*
X165000000Y-129250000D02*
X165000000Y-135460000D01*
X152750000Y-82500000D02*
X151000000Y-82500000D01*
X151000000Y-82500000D02*
X147250000Y-78750000D01*
X147250000Y-78750000D02*
X147250000Y-78750000D01*
D16*
X151960000Y-134575163D02*
X154392582Y-132142582D01*
X151960000Y-135500000D02*
X151960000Y-134575163D01*
D17*
X192250000Y-113000000D02*
X192250000Y-96068390D01*
X192250000Y-96068390D02*
X192249989Y-96068379D01*
X192249989Y-96068379D02*
X192249989Y-76000011D01*
X155750000Y-115250000D02*
X190000000Y-115250000D01*
X190000000Y-115250000D02*
X192250000Y-113000000D01*
X154392582Y-132142582D02*
X154392582Y-116607418D01*
X154392582Y-116607418D02*
X155750000Y-115250000D01*
X192249989Y-69511987D02*
X192249989Y-74934326D01*
X191649991Y-68911989D02*
X192249989Y-69511987D01*
X172918370Y-49400020D02*
X177818390Y-44500000D01*
X177818390Y-44500000D02*
X188931610Y-44500000D01*
X153500000Y-49400020D02*
X172918370Y-49400020D01*
X188931610Y-44500000D02*
X191649991Y-47218381D01*
X192249989Y-74934326D02*
X192249989Y-75500011D01*
X191649991Y-47218381D02*
X191649991Y-68911989D01*
D15*
X147649999Y-78350001D02*
X147250000Y-78750000D01*
X147759999Y-78240001D02*
X147649999Y-78350001D01*
X149360001Y-78240001D02*
X147759999Y-78240001D01*
X149860000Y-78740000D02*
X149360001Y-78240001D01*
X164725001Y-95361411D02*
X164725001Y-78225001D01*
X169750000Y-105250000D02*
X169750000Y-100386410D01*
X169750000Y-100386410D02*
X164725001Y-95361411D01*
X164725001Y-78225001D02*
X162750000Y-76250000D01*
X162750000Y-76250000D02*
X162750000Y-76250000D01*
X162750000Y-76250000D02*
X162750000Y-76250000D01*
D17*
X192249989Y-76000011D02*
X192249989Y-75500011D01*
D15*
X164000000Y-61750000D02*
X164000000Y-61750000D01*
X154500000Y-95000000D02*
X154500000Y-96250000D01*
X154500000Y-96250000D02*
X158250000Y-100000000D01*
X158250000Y-100000000D02*
X158250000Y-100000000D01*
X158250000Y-100000000D02*
X158250000Y-100000000D01*
X153250000Y-95500000D02*
X153250000Y-97250000D01*
X153250000Y-97250000D02*
X157000000Y-101000000D01*
X157000000Y-101000000D02*
X157000000Y-101000000D01*
X147320000Y-92147106D02*
X147320000Y-91440000D01*
X147320000Y-92279412D02*
X147320000Y-92147106D01*
X152202095Y-95500000D02*
X152027084Y-95675011D01*
X150715598Y-95675010D02*
X147320000Y-92279412D01*
X152027084Y-95675011D02*
X150715598Y-95675010D01*
X153250000Y-95500000D02*
X152202095Y-95500000D01*
X157000000Y-101000000D02*
X157000000Y-101000000D01*
X152500000Y-96500000D02*
X152500000Y-99750000D01*
X152500000Y-99750000D02*
X154500000Y-101750000D01*
X154500000Y-101750000D02*
X154500000Y-101750000D01*
X149880000Y-96500000D02*
X149860000Y-96520000D01*
X152500000Y-96500000D02*
X149880000Y-96500000D01*
X154500000Y-101750000D02*
X154500000Y-101750000D01*
X157480000Y-95812894D02*
X157480000Y-96520000D01*
X157480000Y-95545685D02*
X157480000Y-95812894D01*
X153500000Y-91565685D02*
X157480000Y-95545685D01*
X153500000Y-91000000D02*
X153500000Y-91565685D01*
X152995001Y-90274999D02*
X152909999Y-90360001D01*
X152909999Y-90360001D02*
X152510000Y-90760000D01*
X153848001Y-90274999D02*
X152995001Y-90274999D01*
X154225001Y-90651999D02*
X153848001Y-90274999D01*
X154225001Y-90725001D02*
X154225001Y-90651999D01*
X157480000Y-93980000D02*
X154225001Y-90725001D01*
D17*
X154500000Y-135500000D02*
X154500000Y-138040000D01*
X199790000Y-78040000D02*
X197250000Y-78040000D01*
X196400001Y-78889999D02*
X197250000Y-78040000D01*
X194949999Y-80340001D02*
X196400001Y-78889999D01*
X156840001Y-46550001D02*
X155389999Y-45099999D01*
X155389999Y-45099999D02*
X154540000Y-44250000D01*
X190000000Y-41750000D02*
X176750000Y-41750000D01*
X176750000Y-41750000D02*
X171949999Y-46550001D01*
X171949999Y-46550001D02*
X156840001Y-46550001D01*
X154540000Y-44250000D02*
X154540000Y-41710000D01*
D16*
X106710000Y-78000000D02*
X109250000Y-78000000D01*
D17*
X156689992Y-46700010D02*
X156840001Y-46550001D01*
X150200010Y-46700010D02*
X156689992Y-46700010D01*
X147910010Y-44410010D02*
X150200010Y-46700010D01*
X109504837Y-46245163D02*
X111339990Y-44410010D01*
X110174837Y-78000000D02*
X111700010Y-76474827D01*
X109250000Y-78000000D02*
X110174837Y-78000000D01*
X111700010Y-76474827D02*
X111700010Y-74445173D01*
X111700010Y-74445173D02*
X109504837Y-72250000D01*
D15*
X139910010Y-44410010D02*
X138785010Y-43285010D01*
X140160010Y-44410010D02*
X139910010Y-44410010D01*
X109504837Y-61995163D02*
X109509674Y-62000000D01*
X109509674Y-62000000D02*
X111500000Y-62000000D01*
D17*
X109504837Y-61995163D02*
X109504837Y-46245163D01*
X109504837Y-72250000D02*
X109504837Y-61995163D01*
D15*
X125750000Y-44570020D02*
X125750000Y-49000000D01*
X125910010Y-44410010D02*
X125750000Y-44570020D01*
D17*
X125910010Y-44410010D02*
X140160010Y-44410010D01*
X111339990Y-44410010D02*
X125910010Y-44410010D01*
D15*
X146500000Y-44570020D02*
X146500000Y-59500000D01*
X146339990Y-44410010D02*
X146500000Y-44570020D01*
D17*
X146339990Y-44410010D02*
X147910010Y-44410010D01*
X140160010Y-44410010D02*
X146339990Y-44410010D01*
D15*
X146250000Y-59750000D02*
X146500000Y-59500000D01*
X146250000Y-73750000D02*
X146250000Y-59750000D01*
D17*
X194950010Y-114118380D02*
X194950010Y-94950010D01*
X194949999Y-94949999D02*
X194949999Y-80340001D01*
X194950010Y-94950010D02*
X194949999Y-94949999D01*
X157092592Y-133260962D02*
X157092592Y-117950010D01*
X154500000Y-135500000D02*
X154853554Y-135500000D01*
X157092592Y-117950010D02*
X191118381Y-117950009D01*
X154853554Y-135500000D02*
X157092592Y-133260962D01*
X191118381Y-117950009D02*
X194950010Y-114118380D01*
D15*
X191118381Y-117950009D02*
X191118381Y-120381619D01*
X191118381Y-120381619D02*
X184500000Y-127000000D01*
D17*
X194350001Y-59600001D02*
X194750000Y-60000000D01*
X194350001Y-46100001D02*
X194350001Y-59600001D01*
X190000000Y-41750000D02*
X194350001Y-46100001D01*
X196047919Y-78040000D02*
X197250000Y-78040000D01*
X195479998Y-78040000D02*
X196047919Y-78040000D01*
X194949999Y-77510001D02*
X195479998Y-78040000D01*
X194949999Y-60765684D02*
X194949999Y-77510001D01*
X194750000Y-60565685D02*
X194949999Y-60765684D01*
X194750000Y-60000000D02*
X194750000Y-60565685D01*
D15*
X112000000Y-47000000D02*
X112000000Y-57500000D01*
X112000000Y-60250000D02*
X112000000Y-60250000D01*
X112000000Y-57500000D02*
X112000000Y-60250000D01*
X112000000Y-69750000D02*
X112000000Y-69750000D01*
X113275020Y-71025020D02*
X113275020Y-81974980D01*
X112000000Y-69750000D02*
X113275020Y-71025020D01*
X113275020Y-81974980D02*
X112250000Y-83000000D01*
X112250000Y-83000000D02*
X112250000Y-96500000D01*
X112250000Y-96500000D02*
X112250000Y-96500000D01*
X112250000Y-83000000D02*
X112250000Y-83000000D01*
X112399999Y-69350001D02*
X112000000Y-69750000D01*
X112399999Y-60649999D02*
X112399999Y-64100001D01*
X112000000Y-60250000D02*
X112399999Y-60649999D01*
X112399999Y-64100001D02*
X112399999Y-69350001D01*
X112250000Y-96500000D02*
X112250000Y-110000000D01*
X112250000Y-137000000D02*
X112250000Y-137000000D01*
X112250000Y-110000000D02*
X112250000Y-110000000D01*
X111850001Y-123100001D02*
X112250000Y-123500000D01*
X110974999Y-111275001D02*
X110974999Y-122224999D01*
X110974999Y-122224999D02*
X111850001Y-123100001D01*
X112250000Y-110000000D02*
X110974999Y-111275001D01*
X111850001Y-136600001D02*
X112250000Y-137000000D01*
X110974999Y-124775001D02*
X110974999Y-135724999D01*
X110974999Y-135724999D02*
X111850001Y-136600001D01*
X112250000Y-123500000D02*
X110974999Y-124775001D01*
X135350001Y-47149999D02*
X135350001Y-51850001D01*
X135750000Y-46750000D02*
X135350001Y-47149999D01*
X135350001Y-51850001D02*
X138000000Y-54500000D01*
X138000000Y-54500000D02*
X138000000Y-54500000D01*
X138000000Y-54500000D02*
X138000000Y-68000000D01*
X138000000Y-68000000D02*
X138000000Y-68000000D01*
X138000000Y-68000000D02*
X138000000Y-81500000D01*
X138000000Y-81500000D02*
X138000000Y-81500000D01*
X138000000Y-96500000D02*
X138000000Y-96500000D01*
X138399999Y-96899999D02*
X138432836Y-110067164D01*
X138000000Y-96500000D02*
X138399999Y-96899999D01*
X138500000Y-137000000D02*
X138399999Y-136899999D01*
X138467040Y-123782960D02*
X138500000Y-137000000D01*
X138432836Y-110067164D02*
X138467040Y-123782960D01*
X140524999Y-93975001D02*
X140524999Y-84725001D01*
X138000000Y-96500000D02*
X140524999Y-93975001D01*
X140524999Y-84725001D02*
X141000000Y-84250000D01*
X141000000Y-84250000D02*
X141000000Y-84250000D01*
X177000000Y-59000000D02*
X177000000Y-60500000D01*
X178899999Y-46899999D02*
X178899999Y-53100001D01*
X178500000Y-46500000D02*
X178899999Y-46899999D01*
X178899999Y-53100001D02*
X177500000Y-54500000D01*
X177500000Y-54500000D02*
X177500000Y-54500000D01*
X177000000Y-60500000D02*
X177000000Y-68000000D01*
X177000000Y-68000000D02*
X177000000Y-68000000D01*
X177000000Y-68000000D02*
X177000000Y-83250000D01*
X177000000Y-110000000D02*
X177000000Y-110000000D01*
X177000000Y-96500000D02*
X177000000Y-110000000D01*
X177000000Y-83250000D02*
X177000000Y-96500000D01*
X176950000Y-123450000D02*
X177000000Y-137000000D01*
X177000000Y-137000000D02*
X176950000Y-136950000D01*
X124750000Y-46750000D02*
X124750000Y-54000000D01*
X124750000Y-54000000D02*
X125250000Y-54500000D01*
X125250000Y-54500000D02*
X125250000Y-54500000D01*
X125250000Y-54500000D02*
X125250000Y-68750000D01*
X125250000Y-68750000D02*
X125250000Y-68750000D01*
X125250000Y-68750000D02*
X125250000Y-83000000D01*
X125250000Y-83000000D02*
X125250000Y-83000000D01*
X125250000Y-83000000D02*
X125250000Y-96500000D01*
X125250000Y-96500000D02*
X125250000Y-96500000D01*
X125250000Y-96500000D02*
X125250000Y-110000000D01*
X125250000Y-110000000D02*
X125250000Y-123500000D01*
X125250000Y-137000000D02*
X125250000Y-137000000D01*
X125250000Y-123500000D02*
X125250000Y-137000000D01*
X125250000Y-110000000D02*
X125250000Y-110000000D01*
X148250000Y-47500000D02*
X148250000Y-51750000D01*
X148250000Y-51750000D02*
X149250000Y-52750000D01*
X149250000Y-52750000D02*
X149250000Y-59750000D01*
X149250000Y-59750000D02*
X149250000Y-59750000D01*
X149250000Y-59750000D02*
X149250000Y-66000000D01*
X149250000Y-66000000D02*
X151250000Y-68000000D01*
X151250000Y-68000000D02*
X151250000Y-68000000D01*
X151250000Y-130750000D02*
X149500000Y-132500000D01*
X149500000Y-132500000D02*
X149500000Y-132500000D01*
X151250000Y-123500000D02*
X151250000Y-130750000D01*
X151250000Y-110250000D02*
X151250000Y-123500000D01*
X145024999Y-84575001D02*
X145024999Y-92774999D01*
X146350000Y-83250000D02*
X145024999Y-84575001D01*
X145024999Y-92774999D02*
X147000000Y-94750000D01*
X147000000Y-94750000D02*
X147000000Y-94750000D01*
X146350000Y-78576998D02*
X152426998Y-72500000D01*
X146350000Y-83250000D02*
X146350000Y-78576998D01*
X152426998Y-72500000D02*
X152426998Y-72500000D01*
X151150000Y-110150000D02*
X151250000Y-110250000D01*
X151150000Y-97500000D02*
X151150000Y-110150000D01*
X201750000Y-86750000D02*
X201750000Y-86750000D01*
X201750000Y-86750000D02*
X201750000Y-93000000D01*
X201750000Y-93000000D02*
X201750000Y-93000000D01*
X202000000Y-86500000D02*
X201750000Y-86750000D01*
X202000000Y-73000000D02*
X202000000Y-86500000D01*
X201250000Y-86250000D02*
X201750000Y-86750000D01*
X197500000Y-86250000D02*
X201250000Y-86250000D01*
X159250000Y-52750000D02*
X159250000Y-57250000D01*
X159250000Y-57250000D02*
X160000000Y-58000000D01*
X160000000Y-58000000D02*
X160000000Y-65500000D01*
X160000000Y-65500000D02*
X160000000Y-65750000D01*
X160000000Y-65750000D02*
X160750000Y-66500000D01*
X160750000Y-66500000D02*
X161250000Y-66500000D01*
X161250000Y-66500000D02*
X161250000Y-66500000D01*
X160000000Y-58000000D02*
X160000000Y-58000000D01*
X160250000Y-71250000D02*
X160250000Y-78500000D01*
X160250000Y-78500000D02*
X164000000Y-82250000D01*
X164000000Y-82250000D02*
X164000000Y-82250000D01*
X161425000Y-126675000D02*
X161425000Y-137325000D01*
X161425000Y-137325000D02*
X160250000Y-138500000D01*
X160250000Y-138500000D02*
X160250000Y-138500000D01*
X164000000Y-82250000D02*
X164000000Y-96500000D01*
X162250000Y-106750000D02*
X162250000Y-100250000D01*
X162250000Y-100250000D02*
X160250000Y-98250000D01*
X160250000Y-98250000D02*
X160250000Y-98250000D01*
X188150000Y-47215685D02*
X188250000Y-47315685D01*
X188150000Y-46650000D02*
X188150000Y-47215685D01*
X188250000Y-47315685D02*
X188250000Y-60250000D01*
X188250000Y-60250000D02*
X188250000Y-60250000D01*
X188250000Y-60250000D02*
X188250000Y-67750000D01*
X188250000Y-67750000D02*
X190000000Y-69500000D01*
X190000000Y-69500000D02*
X190000000Y-70000000D01*
X190000000Y-108250000D02*
X190000000Y-110000000D01*
X190000000Y-110000000D02*
X190000000Y-110000000D01*
X190000000Y-96500000D02*
X190000000Y-108250000D01*
X190000000Y-83000000D02*
X190000000Y-96500000D01*
X190000000Y-70000000D02*
X190000000Y-83000000D01*
X190000000Y-123500000D02*
X190000000Y-137000000D01*
X190000000Y-137000000D02*
X190000000Y-137000000D01*
X178500000Y-128750000D02*
X178500000Y-122000000D01*
X178500000Y-122000000D02*
X178500000Y-122000000D01*
X167250000Y-95750000D02*
X165348001Y-93848001D01*
X165348001Y-77598001D02*
X162750000Y-75000000D01*
X162750000Y-75000000D02*
X162750000Y-75000000D01*
X155250000Y-81887500D02*
X154137500Y-83000000D01*
X155250000Y-78500000D02*
X155250000Y-81887500D01*
X167250000Y-97250000D02*
X167250000Y-95750000D01*
X171250000Y-101250000D02*
X167250000Y-97250000D01*
X121437500Y-102312500D02*
X122475001Y-103350001D01*
X176250000Y-119750000D02*
X178500000Y-122000000D01*
X161250000Y-119750000D02*
X176250000Y-119750000D01*
X161250000Y-119750000D02*
X161000000Y-119750000D01*
X161000000Y-119750000D02*
X160500000Y-120250000D01*
X160500000Y-120250000D02*
X160500000Y-120250000D01*
X165348001Y-91348001D02*
X165348001Y-77598001D01*
X165348001Y-93848001D02*
X165348001Y-91348001D01*
X122475001Y-103350001D02*
X122475001Y-115975001D01*
X122475001Y-115975001D02*
X124000000Y-117500000D01*
X124000000Y-117500000D02*
X124000000Y-117500000D01*
X155010000Y-78740000D02*
X155250000Y-78500000D01*
X152400000Y-78740000D02*
X155010000Y-78740000D01*
X178500000Y-110500000D02*
X178500000Y-101750000D01*
X178500000Y-101750000D02*
X178500000Y-101750000D01*
X178500000Y-101750000D02*
X178500000Y-101750000D01*
X151250000Y-69250000D02*
X157250000Y-63250000D01*
X157250000Y-63250000D02*
X157250000Y-62000000D01*
X157250000Y-62000000D02*
X157250000Y-62000000D01*
X154137500Y-82321815D02*
X154137500Y-82434315D01*
X152815685Y-81000000D02*
X154137500Y-82321815D01*
X154137500Y-82434315D02*
X154137500Y-83000000D01*
X152250000Y-81000000D02*
X152815685Y-81000000D01*
X130750000Y-104250000D02*
X136500000Y-98500000D01*
X136500000Y-98500000D02*
X136500000Y-92250000D01*
X136500000Y-92250000D02*
X136500000Y-92250000D01*
X136500000Y-92250000D02*
X136500000Y-90750000D01*
X140000000Y-87250000D02*
X136500000Y-90750000D01*
X159850001Y-69149999D02*
X154559413Y-69149999D01*
X160250000Y-68750000D02*
X159850001Y-69149999D01*
X140000000Y-79926998D02*
X140000000Y-87250000D01*
X154559413Y-69149999D02*
X145934413Y-77774999D01*
X145934413Y-77774999D02*
X142151999Y-77774999D01*
X142151999Y-77774999D02*
X140000000Y-79926998D01*
X130973001Y-102100001D02*
X134750000Y-98323002D01*
X128250000Y-102500000D02*
X128649999Y-102100001D01*
X128649999Y-102100001D02*
X130973001Y-102100001D01*
X134750000Y-98323002D02*
X134750000Y-90750000D01*
X134750000Y-90750000D02*
X134750000Y-90750000D01*
X139000000Y-86500000D02*
X134750000Y-90750000D01*
X139000000Y-78000000D02*
X139000000Y-86500000D01*
X141000000Y-76000000D02*
X139000000Y-78000000D01*
X155176998Y-66750000D02*
X147975001Y-73951997D01*
X147073002Y-76000000D02*
X141000000Y-76000000D01*
X147975001Y-73951997D02*
X147975001Y-75098001D01*
X159000000Y-66750000D02*
X155176998Y-66750000D01*
X147975001Y-75098001D02*
X147073002Y-76000000D01*
X175350001Y-50649999D02*
X175350001Y-56149999D01*
X175750000Y-50250000D02*
X175350001Y-50649999D01*
X175350001Y-56149999D02*
X169250000Y-62250000D01*
X169250000Y-62250000D02*
X169250000Y-62250000D01*
X171574999Y-43074999D02*
X160425001Y-43074999D01*
X172000000Y-43500000D02*
X171574999Y-43074999D01*
X160425001Y-43074999D02*
X159500000Y-44000000D01*
X159500000Y-44000000D02*
X159500000Y-44000000D01*
X168000000Y-64000000D02*
X168000000Y-64000000D01*
X175600001Y-49399999D02*
X176000000Y-49000000D01*
X175145791Y-49399999D02*
X175600001Y-49399999D01*
X170201968Y-50975030D02*
X173570760Y-50975030D01*
X167024999Y-63024999D02*
X167024999Y-54151999D01*
X173570760Y-50975030D02*
X175145791Y-49399999D01*
X168000000Y-64000000D02*
X167024999Y-63024999D01*
X142250000Y-47500000D02*
X139000000Y-47500000D01*
X139000000Y-47500000D02*
X138000000Y-46500000D01*
X138000000Y-46500000D02*
X138000000Y-46500000D01*
X169463499Y-51713499D02*
X170201968Y-50975030D01*
X167024999Y-54151999D02*
X169463499Y-51713499D01*
X158125000Y-51375000D02*
X158000000Y-51250000D01*
X158690685Y-51375000D02*
X159090655Y-50975030D01*
X159090655Y-50975030D02*
X170201968Y-50975030D01*
X158125000Y-51375000D02*
X158690685Y-51375000D01*
X171098001Y-62975001D02*
X168475001Y-62975001D01*
X175800011Y-58272991D02*
X171098001Y-62975001D01*
X177000000Y-48000000D02*
X177000000Y-50073002D01*
X175800011Y-51272991D02*
X175800011Y-58272991D01*
X177000000Y-50073002D02*
X175800011Y-51272991D01*
X168475001Y-62975001D02*
X167750000Y-62250000D01*
X167750000Y-62250000D02*
X167750000Y-62250000D01*
X168000000Y-67500000D02*
X166500000Y-66000000D01*
X166500000Y-66000000D02*
X166500000Y-53500000D01*
X166500000Y-53500000D02*
X166500000Y-53500000D01*
X168250000Y-54000000D02*
X168250000Y-58250000D01*
X168250000Y-58250000D02*
X168500000Y-58500000D01*
X168500000Y-58500000D02*
X168500000Y-58500000D01*
X166750000Y-70500000D02*
X165250000Y-69000000D01*
X165250000Y-69000000D02*
X165250000Y-69000000D01*
X166750000Y-70500000D02*
X166750000Y-83750000D01*
X166750000Y-83750000D02*
X167750000Y-84750000D01*
X167750000Y-84750000D02*
X167750000Y-84750000D01*
X159950000Y-84800000D02*
X158876998Y-84800000D01*
X158201997Y-85475001D02*
X146975001Y-85475001D01*
X158876998Y-84800000D02*
X158201997Y-85475001D01*
X146975001Y-85475001D02*
X146500000Y-85000000D01*
X146500000Y-85000000D02*
X146500000Y-85000000D01*
X169149999Y-74100001D02*
X169149999Y-63850001D01*
X168750000Y-74500000D02*
X169149999Y-74100001D01*
X169149999Y-63850001D02*
X169149999Y-63850001D01*
X168750000Y-74500000D02*
X168750000Y-82250000D01*
X168750000Y-82250000D02*
X168250000Y-82750000D01*
X168250000Y-82750000D02*
X168250000Y-82750000D01*
X168250000Y-82750000D02*
X168250000Y-82750000D01*
X165000000Y-72500000D02*
X165000000Y-70250000D01*
X165000000Y-70250000D02*
X164000000Y-69250000D01*
X164000000Y-69250000D02*
X164000000Y-69250000D01*
X155124999Y-67875001D02*
X167125001Y-67875001D01*
X154725000Y-68275000D02*
X155124999Y-67875001D01*
X167125001Y-67875001D02*
X168250000Y-69000000D01*
X168250000Y-69000000D02*
X168250000Y-69000000D01*
X133500000Y-98500000D02*
X133500000Y-96750000D01*
X133500000Y-96750000D02*
X133250000Y-96500000D01*
X133250000Y-96500000D02*
X133250000Y-96500000D01*
X129100001Y-95149999D02*
X129100001Y-97899999D01*
X129500000Y-94750000D02*
X129100001Y-95149999D01*
X129100001Y-97899999D02*
X128500000Y-98500000D01*
X128500000Y-98500000D02*
X128500000Y-98500000D01*
X128174980Y-126525022D02*
X128574979Y-126925021D01*
X128074999Y-112425001D02*
X128074999Y-126425041D01*
X128074999Y-126425041D02*
X128174980Y-126525022D01*
X128500000Y-112000000D02*
X128074999Y-112425001D01*
X129525001Y-124590684D02*
X129525001Y-110724999D01*
X128900000Y-124650000D02*
X129465685Y-124650000D01*
X129465685Y-124650000D02*
X129525001Y-124590684D01*
X131350000Y-119784315D02*
X131250000Y-119684315D01*
X131350000Y-120350000D02*
X131350000Y-119784315D01*
X131250000Y-119684315D02*
X131250000Y-113750000D01*
X131250000Y-113750000D02*
X131250000Y-113750000D01*
X133250000Y-109750000D02*
X133250000Y-109750000D01*
X133250000Y-110000000D02*
X133250000Y-109750000D01*
X130100001Y-113149999D02*
X133250000Y-110000000D01*
X130100001Y-114850001D02*
X130100001Y-113149999D01*
X130500000Y-115250000D02*
X130100001Y-114850001D01*
X126875000Y-135375000D02*
X126875000Y-109625000D01*
X126875000Y-109625000D02*
X128000000Y-108500000D01*
X128000000Y-108500000D02*
X128250000Y-108250000D01*
X128250000Y-108250000D02*
X128250000Y-108250000D01*
X127600000Y-134400000D02*
X127600000Y-110150000D01*
X127600000Y-110150000D02*
X131500000Y-106250000D01*
X131500000Y-106250000D02*
X131500000Y-106250000D01*
X126149999Y-106350001D02*
X128500000Y-104000000D01*
X128500000Y-104000000D02*
X128500000Y-104000000D01*
X126075021Y-106424979D02*
X126149999Y-106350001D01*
X126075021Y-130924979D02*
X126075021Y-106424979D01*
X171750000Y-78000000D02*
X171750000Y-84750000D01*
X171750000Y-84750000D02*
X169000000Y-87500000D01*
X157938000Y-86812000D02*
X157938000Y-86812000D01*
X148312000Y-86812000D02*
X157938000Y-86812000D01*
X142349500Y-85349500D02*
X142349500Y-78900500D01*
X142749499Y-85749499D02*
X142349500Y-85349500D01*
X142349500Y-78900500D02*
X142349500Y-78650500D01*
X142349500Y-78650500D02*
X142500000Y-78500000D01*
X142500000Y-78500000D02*
X142500000Y-78500000D01*
X133500000Y-63000000D02*
X133500000Y-84750000D01*
X133500000Y-84750000D02*
X135750000Y-87000000D01*
X113899999Y-52899999D02*
X113899999Y-78899999D01*
X113500000Y-52500000D02*
X113899999Y-52899999D01*
X113899999Y-78899999D02*
X123500000Y-88500000D01*
X175399999Y-65149999D02*
X175399999Y-83350001D01*
X175000000Y-64750000D02*
X175399999Y-65149999D01*
X175399999Y-83350001D02*
X169750000Y-89000000D01*
X116500000Y-75500000D02*
X116500000Y-79250000D01*
X116500000Y-79250000D02*
X123500000Y-86250000D01*
X123500000Y-86250000D02*
X123500000Y-86500000D01*
X123500000Y-86500000D02*
X123750000Y-86750000D01*
X155359315Y-88325000D02*
X155925000Y-88325000D01*
X147009315Y-88325000D02*
X155359315Y-88325000D01*
X145750000Y-87065685D02*
X147009315Y-88325000D01*
X145750000Y-86500000D02*
X145750000Y-87065685D01*
X157000000Y-88250000D02*
X156349999Y-87599999D01*
X128500000Y-65250000D02*
X128500000Y-82250000D01*
X128500000Y-82250000D02*
X134000000Y-87750000D01*
X156287001Y-87537001D02*
X156600001Y-87850001D01*
X156600001Y-87850001D02*
X157000000Y-88250000D01*
X147537001Y-87537001D02*
X156287001Y-87537001D01*
X147000000Y-87000000D02*
X147537001Y-87537001D01*
X167750000Y-135500000D02*
X167500000Y-135500000D01*
X171000000Y-132250000D02*
X167750000Y-135500000D01*
X171399999Y-131850001D02*
X171399999Y-126899999D01*
X171000000Y-132250000D02*
X171399999Y-131850001D01*
X171399999Y-126899999D02*
X166500000Y-122000000D01*
X166500000Y-122000000D02*
X166500000Y-122000000D01*
X166500000Y-112750000D02*
X163750000Y-110000000D01*
X163750000Y-110000000D02*
X163750000Y-98000000D01*
X163750000Y-98000000D02*
X156750000Y-91000000D01*
X156750000Y-91000000D02*
X156750000Y-91000000D01*
X167500000Y-137750000D02*
X167500000Y-138040000D01*
X172275031Y-132974969D02*
X167500000Y-137750000D01*
X172275031Y-132974969D02*
X172275031Y-125275031D01*
X172275031Y-125275031D02*
X168000000Y-121000000D01*
X168000000Y-121000000D02*
X168000000Y-121000000D01*
X168399999Y-102013589D02*
X161325001Y-94938591D01*
X168000000Y-112500000D02*
X168399999Y-112100001D01*
X168399999Y-112100001D02*
X168399999Y-102013589D01*
X161325001Y-91853999D02*
X160250000Y-90778998D01*
X161325001Y-94938591D02*
X161325001Y-91853999D01*
X160250000Y-90778998D02*
X160250000Y-90778998D01*
X151250000Y-94500000D02*
X151250000Y-94500000D01*
X159100001Y-70899999D02*
X159100001Y-80600001D01*
X159500000Y-70500000D02*
X159100001Y-70899999D01*
X159100001Y-80600001D02*
X161500000Y-83000000D01*
X161500000Y-83000000D02*
X161500000Y-84773004D01*
X161500000Y-85500000D02*
X157175011Y-89824989D01*
X161500000Y-84773004D02*
X161500000Y-85500000D01*
X157175011Y-89824989D02*
X156250000Y-89824989D01*
X152425011Y-89824989D02*
X156498013Y-89824989D01*
X151925011Y-89824989D02*
X152425011Y-89824989D01*
X151250000Y-94500000D02*
X151250000Y-90500000D01*
X151250000Y-90500000D02*
X151925011Y-89824989D01*
X130484411Y-103225001D02*
X135500000Y-98209412D01*
X126250000Y-103000000D02*
X126475001Y-103225001D01*
X126475001Y-103225001D02*
X130484411Y-103225001D01*
X135500000Y-98209412D02*
X135500000Y-92000000D01*
X135500000Y-92000000D02*
X135500000Y-92000000D01*
X165809999Y-137190001D02*
X164960000Y-138040000D01*
X166135001Y-136864999D02*
X165809999Y-137190001D01*
X166135001Y-134579997D02*
X166135001Y-136864999D01*
X166389999Y-134324999D02*
X166135001Y-134579997D01*
X167175001Y-134324999D02*
X166389999Y-134324999D01*
X170000000Y-131500000D02*
X167175001Y-134324999D01*
X129000000Y-89500000D02*
X129750000Y-89500000D01*
X129750000Y-89500000D02*
X131000000Y-90750000D01*
X131000000Y-90750000D02*
X131000000Y-90750000D01*
X165000000Y-112750000D02*
X165000000Y-112750000D01*
X170000000Y-127750000D02*
X170000000Y-131500000D01*
X164750000Y-122500000D02*
X170000000Y-127750000D01*
X154823002Y-94250000D02*
X152250000Y-94250000D01*
X165000000Y-112750000D02*
X160250000Y-108000000D01*
X160250000Y-100926998D02*
X155225001Y-95901999D01*
X155225001Y-95901999D02*
X155225001Y-94651999D01*
X155225001Y-94651999D02*
X154823002Y-94250000D01*
X160250000Y-108000000D02*
X160250000Y-106000000D01*
X160250000Y-106000000D02*
X160250000Y-100926998D01*
X149860000Y-92147106D02*
X149860000Y-91440000D01*
X149860000Y-94183002D02*
X149860000Y-92147106D01*
X151840684Y-95225001D02*
X150901999Y-95225001D01*
X150901999Y-95225001D02*
X149860000Y-94183002D01*
X152250000Y-94815685D02*
X151840684Y-95225001D01*
X152250000Y-94250000D02*
X152250000Y-94815685D01*
M02*
